<?xml version="1.0" standalone="no"?>
<!DOCTYPE svg PUBLIC "-//W3C//DTD SVG 20010904//EN"
 "http://www.w3.org/TR/2001/REC-SVG-20010904/DTD/svg10.dtd">
<svg version="1.0" xmlns="http://www.w3.org/2000/svg"
 width="1280.000000pt" height="884.000000pt" viewBox="0 0 1280.000000 884.000000"
 preserveAspectRatio="xMidYMid meet">
<metadata>
Created by potrace 1.15, written by Peter Selinger 2001-2017
</metadata>
<g transform="translate(0.000000,884.000000) scale(0.100000,-0.100000)"
fill="#000000" stroke="none">
<path d="M10385 8826 c-27 -7 -68 -20 -89 -30 -68 -29 -204 -125 -270 -191
l-63 -63 -21 44 c-55 112 -199 148 -441 109 -222 -36 -419 -134 -580 -289 -68
-66 -183 -207 -193 -238 -4 -10 -9 -9 -24 4 -11 9 -46 29 -78 44 -56 25 -63
26 -199 22 -115 -4 -152 -9 -197 -26 -30 -12 -56 -22 -56 -22 -1 0 -4 25 -8
56 -8 72 -35 123 -87 168 -58 49 -121 68 -232 68 -71 0 -110 -6 -172 -26 l-80
-25 -25 24 c-38 36 -122 74 -197 90 -179 38 -481 0 -687 -85 -268 -112 -596
-451 -596 -618 0 -38 -2 -43 -17 -37 -23 8 -57 14 -113 18 l-45 4 -21 60 c-52
152 -177 231 -381 241 -117 5 -205 -8 -274 -43 l-47 -23 -23 36 c-36 56 -78
72 -184 72 -67 0 -107 -6 -157 -23 l-66 -23 -7 46 c-29 210 -186 318 -429 295
-42 -3 -79 -7 -83 -7 -5 0 -12 18 -16 40 -11 57 -64 114 -139 148 -57 26 -73
29 -173 29 -98 0 -116 -3 -167 -27 -70 -33 -145 -100 -168 -152 -18 -39 -18
-39 -30 -15 -78 150 -239 207 -513 181 -262 -25 -460 -112 -676 -301 -128
-111 -298 -339 -385 -514 l-38 -77 -63 68 c-68 74 -140 118 -240 149 -83 25
-377 25 -515 0 -375 -69 -716 -244 -1052 -540 -59 -52 -68 -65 -68 -93 0 -19
3 -34 6 -34 3 0 38 30 78 66 269 250 618 438 966 521 144 34 474 45 566 18
124 -36 214 -101 286 -208 36 -53 43 -58 49 -41 4 10 19 46 31 79 13 33 52
104 86 158 187 298 370 474 607 587 169 80 238 95 460 95 184 0 192 -1 245
-26 74 -35 123 -79 162 -147 l32 -56 14 45 c30 91 100 163 189 195 22 7 80 13
138 13 84 1 108 -3 150 -23 62 -28 112 -83 127 -140 l11 -43 137 5 c111 4 146
1 187 -12 110 -36 183 -137 183 -252 0 -60 -1 -63 -37 -90 -21 -15 -72 -60
-113 -100 l-75 -72 -130 10 c-321 24 -742 -44 -1142 -183 -557 -195 -1227
-590 -1759 -1035 -127 -107 -364 -326 -493 -457 -81 -82 -85 -85 -96 -64 -5
12 -21 27 -35 34 -37 18 -76 107 -83 190 -9 107 -32 143 -93 143 -31 0 -31 18
0 30 29 11 46 39 45 72 -1 23 -1 23 -8 -2 -6 -21 -9 -15 -20 33 -7 32 -10 61
-7 64 3 4 6 -3 6 -13 0 -11 7 -29 16 -40 15 -18 15 -18 9 5 -4 12 -10 48 -15
79 -9 68 -28 85 -87 79 -60 -6 -93 -30 -93 -67 0 -16 -7 -47 -16 -69 -18 -47
-5 -114 26 -134 29 -17 25 -24 -23 -45 -42 -19 -44 -21 -65 -98 -11 -43 -24
-99 -28 -123 -7 -43 -6 -46 32 -77 l38 -33 -18 -38 -19 -38 -9 28 c-5 15 -17
27 -26 27 -21 0 -56 -50 -77 -110 -9 -25 -27 -56 -40 -70 -35 -37 -44 -69 -51
-190 -6 -99 -9 -109 -23 -98 -12 10 -12 8 1 -8 10 -11 18 -28 18 -37 0 -9 4
-18 9 -22 5 -3 13 -19 16 -37 4 -17 27 -52 51 -78 l43 -46 -93 -140 c-174
-261 -248 -390 -244 -426 3 -30 9 -23 92 112 263 426 532 784 829 1101 491
525 1107 988 1737 1308 588 299 1104 441 1598 441 199 0 237 -8 302 -67 46
-41 50 -49 50 -89 0 -39 -5 -49 -42 -85 -24 -23 -97 -73 -163 -112 -268 -157
-346 -205 -483 -294 -649 -426 -1154 -1101 -1268 -1693 -13 -68 -18 -143 -18
-265 0 -155 2 -174 22 -220 35 -78 69 -121 125 -159 76 -51 149 -68 291 -69
157 -2 234 16 506 116 134 49 212 61 339 54 181 -11 344 -65 376 -127 44 -85
13 -135 -340 -545 -99 -115 -220 -261 -268 -324 -287 -374 -473 -736 -534
-1038 -23 -117 -23 -333 0 -423 44 -168 147 -295 297 -368 106 -52 194 -69
416 -81 147 -9 179 -14 225 -34 96 -43 139 -115 119 -200 -18 -84 -72 -149
-385 -467 -341 -346 -426 -442 -509 -574 -95 -151 -137 -287 -137 -443 0 -125
38 -218 129 -315 39 -42 50 -48 85 -48 l40 0 -39 28 c-58 43 -103 98 -138 172
-29 61 -31 72 -31 175 1 129 23 213 88 339 65 125 117 190 164 204 63 19 150
15 199 -8 68 -33 79 -52 80 -136 1 -41 5 -74 10 -73 5 1 28 12 52 26 58 34
170 73 212 73 90 0 160 -52 214 -159 28 -55 51 -213 39 -272 -5 -27 -4 -31 13
-26 62 19 73 18 93 -2 14 -14 21 -34 21 -60 0 -47 8 -51 105 -51 64 0 77 -3
103 -25 35 -29 79 -114 87 -167 5 -29 11 -38 25 -38 42 0 16 119 -44 201 -44
59 -86 79 -170 79 -63 0 -66 1 -66 24 0 14 -12 38 -26 55 -22 26 -33 31 -71
31 l-45 0 8 32 c34 151 -62 350 -196 406 -56 23 -163 12 -245 -26 -37 -18 -68
-32 -70 -32 -1 0 -5 19 -9 41 -9 59 -38 94 -101 124 -48 24 -64 27 -135 23
-44 -2 -80 0 -80 4 0 4 139 149 309 322 406 414 451 474 451 605 0 75 -20 116
-77 153 -73 47 -139 62 -328 73 -157 9 -258 31 -353 75 -315 147 -391 512
-212 1015 29 81 39 96 97 152 88 85 129 103 229 103 67 0 89 -5 141 -29 133
-63 203 -161 211 -293 2 -43 7 -78 10 -78 3 0 14 8 25 18 14 12 36 17 77 17
69 0 95 -19 135 -99 37 -74 30 -145 -19 -185 -21 -18 -20 -41 1 -41 9 0 45 -5
81 -11 110 -19 171 -95 172 -213 0 -45 -6 -69 -25 -102 -14 -24 -21 -45 -16
-49 6 -3 43 4 83 15 76 21 178 27 178 10 0 -5 -11 -42 -24 -82 -54 -163 -73
-427 -41 -578 l15 -71 -39 -47 c-21 -26 -48 -66 -59 -88 -24 -46 -58 -172 -68
-243 -17 -127 62 -398 215 -740 125 -278 267 -407 523 -476 158 -42 271 -51
430 -32 163 20 208 34 310 94 100 60 159 143 203 283 27 90 31 313 7 428 l-20
93 22 14 c11 7 82 49 156 93 74 45 202 126 284 180 l149 100 31 -19 c35 -22
78 -24 141 -8 53 13 78 38 73 75 -4 33 -52 74 -69 57 -8 -8 -5 -13 10 -18 26
-8 42 -37 31 -55 -10 -17 -130 -27 -155 -13 -14 8 3 24 100 92 64 46 119 80
122 78 3 -3 0 -29 -6 -57 -15 -68 -14 -209 2 -239 21 -42 60 -63 118 -65 l54
-1 -3 61 c-3 57 -1 65 37 124 54 84 54 116 1 174 -23 24 -57 52 -77 61 -34 17
-35 18 -18 31 16 12 22 11 39 -5 41 -36 114 -81 167 -102 30 -11 55 -22 57
-23 1 -2 -9 -23 -22 -47 -45 -81 -59 -153 -58 -289 2 -110 -1 -129 -18 -155
-11 -16 -20 -41 -20 -54 0 -24 0 -24 16 -5 12 13 11 10 -2 -11 -10 -16 -28
-38 -41 -48 -24 -19 -53 -99 -73 -204 -16 -80 -6 -98 65 -118 52 -15 57 -15
100 4 29 13 52 32 66 55 18 31 24 34 41 25 13 -7 17 -16 13 -27 -11 -30 -16
-136 -7 -167 12 -42 52 -60 142 -62 72 -2 75 -3 82 -29 18 -69 120 -119 228
-111 70 4 143 34 172 71 25 30 24 106 -2 134 -11 12 -32 25 -46 28 -29 7 -233
-2 -276 -12 l-27 -6 6 68 c3 38 7 70 8 72 1 1 52 5 113 9 109 6 112 5 112 -15
0 -35 51 -52 154 -52 142 0 310 47 489 137 156 78 216 156 204 265 -19 161
-160 259 -400 281 -114 11 -375 -2 -422 -19 -13 -5 -8 9 18 62 30 59 40 71 73
83 71 26 270 252 340 386 28 53 31 55 69 55 88 0 386 -41 472 -64 115 -32 221
-84 273 -136 92 -92 128 -220 165 -575 18 -171 34 -231 73 -267 41 -38 79 -46
292 -58 453 -25 649 -73 764 -187 89 -88 136 -231 136 -419 0 -89 1 -94 21
-94 22 0 22 2 16 123 -6 144 -19 209 -58 295 -34 75 -114 159 -188 196 -39 20
-51 31 -47 44 13 45 60 284 83 422 22 138 25 193 30 511 6 381 -4 603 -37 866
-22 167 -60 378 -91 493 -20 76 -99 284 -105 277 -2 -1 14 -53 36 -115 62
-175 126 -520 162 -872 17 -170 17 -922 0 -1045 -16 -113 -79 -458 -92 -506
l-10 -35 -88 22 c-111 28 -303 51 -497 60 -82 4 -160 10 -172 13 l-21 6 29 90
c40 124 83 294 115 460 26 130 28 163 32 455 3 282 -4 467 -24 600 -5 32 -3
37 28 51 56 27 65 56 45 152 -9 46 -34 117 -55 161 -39 77 -39 79 -26 124 25
80 66 312 68 375 l1 61 90 12 c50 7 182 30 295 53 329 64 409 73 598 69 192
-4 246 -19 325 -89 57 -49 82 -111 82 -200 0 -55 -6 -76 -37 -140 -21 -40 -60
-101 -89 -133 -104 -121 -167 -233 -246 -434 -64 -163 -83 -248 -83 -362 0
-111 21 -186 69 -252 57 -77 121 -106 259 -116 l87 -7 32 -96 c17 -53 42 -154
55 -225 21 -119 23 -157 23 -474 0 -283 -4 -366 -18 -460 -17 -106 -70 -372
-83 -412 -3 -12 0 -18 10 -18 9 0 18 10 21 23 79 345 95 468 102 787 8 357
-17 590 -82 783 -14 39 -25 78 -25 85 0 9 38 12 159 12 346 0 549 -44 723
-159 192 -126 271 -284 271 -541 1 -99 -4 -142 -21 -205 -69 -247 -223 -515
-420 -728 -24 -27 -42 -51 -38 -54 41 -42 274 257 397 512 32 66 71 161 86
210 26 84 28 102 28 265 0 158 -2 182 -24 248 -57 175 -193 310 -400 397 -164
69 -267 83 -676 93 -288 7 -313 10 -350 29 -142 75 -189 266 -124 502 30 108
124 336 169 411 21 36 71 101 110 145 41 47 86 111 108 155 35 70 37 79 37
170 0 111 -17 152 -86 214 -83 76 -190 106 -375 106 -144 0 -279 -18 -595 -79
-140 -27 -280 -52 -311 -56 l-58 -6 0 36 c0 67 -60 149 -149 201 -23 13 -34
30 -41 59 -16 63 -63 154 -113 219 l-46 59 72 36 c40 20 82 43 95 51 21 14 24
13 47 -17 39 -50 83 -71 160 -79 97 -9 159 -35 234 -95 56 -46 69 -63 103
-138 21 -47 44 -97 51 -111 18 -36 96 -71 172 -78 59 -4 69 -2 105 23 48 33
80 82 80 122 0 37 -46 110 -91 144 -19 15 -83 51 -143 81 -60 30 -105 57 -100
61 31 19 212 32 429 31 221 0 250 -2 370 -27 147 -31 342 -90 490 -149 147
-59 357 -168 352 -183 -3 -6 -61 -88 -129 -181 -164 -224 -183 -252 -228 -342
-125 -251 -100 -426 76 -538 96 -62 210 -91 437 -114 198 -20 326 -76 450
-198 85 -83 182 -226 201 -295 18 -64 36 -203 47 -362 l8 -120 -5 150 c-2 83
-6 177 -9 210 l-5 60 25 -70 c14 -38 34 -106 45 -150 l18 -80 1 66 c1 77 -22
162 -81 292 -21 48 -59 157 -83 243 -53 185 -116 339 -187 455 -78 128 -281
322 -335 319 -4 -1 10 -10 31 -22 58 -30 217 -192 271 -276 51 -80 115 -210
147 -300 28 -80 78 -255 74 -259 -2 -2 -22 22 -45 52 -23 31 -68 81 -99 111
-135 134 -246 179 -508 209 -227 25 -342 65 -434 151 -67 62 -82 100 -82 194
1 100 37 210 107 329 63 107 314 451 329 451 18 0 254 -157 335 -223 42 -34
117 -97 166 -140 l90 -79 -80 78 c-120 116 -236 210 -378 303 -77 51 -124 88
-120 95 4 6 22 35 40 64 104 163 99 288 -19 454 -121 168 -280 281 -544 384
-134 52 -204 58 -300 22 -51 -18 -81 -21 -224 -22 -147 -1 -173 2 -235 22 -88
29 -156 78 -191 138 -22 37 -28 62 -31 123 -4 72 -2 82 42 186 133 315 155
397 162 595 6 191 -8 267 -71 396 -148 299 -503 496 -1061 589 -320 53 -360
55 -1115 65 -1348 17 -1328 17 -1439 35 -309 49 -430 148 -431 350 0 90 20
181 52 234 45 76 65 89 207 135 353 115 683 183 1136 233 229 26 281 28 615
27 400 0 587 -12 815 -50 672 -111 1220 -368 1602 -751 175 -177 311 -366 453
-633 46 -85 142 -263 215 -395 317 -577 444 -833 587 -1190 235 -587 435
-1299 573 -2050 14 -77 30 -156 34 -175 8 -32 9 -29 10 27 2 123 -122 719
-240 1154 -222 819 -437 1343 -880 2139 -77 140 -193 352 -257 470 -63 118
-126 232 -138 252 l-24 37 33 25 c57 44 121 65 224 77 131 14 262 0 331 -35
57 -29 107 -84 116 -127 l5 -29 58 35 c105 62 202 88 343 93 118 4 127 3 160
-20 54 -36 72 -84 72 -188 l0 -88 52 15 c28 8 71 18 96 22 33 4 46 11 48 25 4
17 -2 18 -65 13 -37 -3 -77 -8 -88 -11 -19 -7 -20 -3 -17 66 4 96 -22 151 -88
186 -42 22 -53 24 -165 19 -133 -5 -239 -33 -328 -88 -26 -16 -51 -29 -56 -29
-4 0 -16 20 -25 43 -20 53 -44 77 -116 114 -54 27 -59 28 -220 28 -192 0 -251
-12 -317 -62 -33 -25 -44 -30 -38 -17 47 113 58 172 63 319 6 217 -20 313
-111 413 -43 46 -124 92 -165 92 -22 0 -20 4 23 52 55 61 114 179 151 303 24
80 27 107 27 235 0 80 -4 165 -11 190 -11 44 -11 45 26 83 72 75 216 160 326
192 45 13 88 16 194 13 134 -3 139 -4 213 -39 174 -83 233 -190 180 -329 -11
-27 -17 -50 -15 -50 2 0 32 17 67 39 120 73 218 106 349 117 68 6 127 -4 196
-32 8 -4 12 4 12 24 0 26 -5 31 -47 43 -63 18 -221 16 -300 -5 -34 -9 -91 -30
-128 -46 -37 -17 -70 -30 -75 -30 -4 0 -10 28 -12 63 -3 35 -13 78 -22 95 -42
80 -175 168 -293 192 -34 8 -106 10 -182 8 -113 -4 -135 -8 -209 -37 -92 -36
-208 -110 -261 -165 -19 -20 -38 -36 -43 -36 -4 0 -19 19 -34 41 -76 121 -250
248 -341 249 -29 0 -33 3 -38 38 -15 100 -36 146 -94 203 -43 44 -69 61 -110
73 -64 19 -155 19 -226 2z m245 -71 c78 -39 124 -113 136 -218 7 -58 16 -67
73 -67 39 0 159 -70 220 -129 121 -117 151 -198 151 -407 0 -153 -17 -238 -75
-368 -28 -64 -117 -207 -140 -226 -21 -17 -9 -30 28 -30 93 0 194 -75 240
-177 68 -151 61 -396 -15 -575 -11 -27 -23 -48 -27 -48 -3 1 -36 42 -73 93
-348 478 -905 806 -1632 961 -219 47 -343 63 -596 76 -118 6 -239 14 -269 16
l-54 6 7 68 c7 84 42 183 108 313 144 281 371 477 648 561 114 34 196 46 315
46 148 -1 207 -35 259 -152 l21 -48 44 55 c72 91 256 221 370 261 20 7 76 13
124 14 74 0 95 -4 137 -25z m-3221 -272 c31 -7 93 -32 137 -53 l81 -39 73 20
c58 17 93 20 169 17 111 -5 163 -26 206 -83 31 -39 65 -141 65 -191 0 -39 2
-40 44 -15 67 40 136 55 262 55 112 0 124 -2 178 -28 31 -15 60 -35 63 -43 3
-8 -11 -49 -30 -91 -69 -147 -89 -212 -91 -293 l-1 -76 -95 -7 c-52 -3 -134
-6 -183 -6 -48 0 -199 -11 -335 -25 -603 -62 -927 -135 -1474 -335 l-86 -31
-79 24 c-43 13 -111 32 -152 42 l-73 18 6 45 c12 91 -39 169 -142 214 l-45 20
7 52 c3 28 6 66 6 84 0 28 3 32 28 32 45 0 127 -28 147 -50 29 -32 35 -24 35
44 0 34 5 78 11 97 36 106 242 336 387 432 161 108 343 168 567 187 109 10
240 3 314 -17z m-2325 -377 c18 -8 46 -30 62 -49 l28 -35 35 18 c69 35 142 50
242 50 115 0 185 -13 254 -47 120 -59 168 -146 167 -303 0 -52 -2 -108 -4
-124 -3 -27 0 -31 34 -38 46 -9 111 -51 134 -85 9 -14 19 -52 22 -85 l5 -59
-74 8 c-137 15 -670 8 -829 -11 -377 -45 -757 -150 -1065 -295 -226 -107 -535
-303 -690 -439 -248 -217 -389 -483 -334 -629 13 -35 74 -99 114 -120 17 -9
65 -18 115 -20 116 -6 205 18 571 155 342 128 424 155 576 188 153 33 346 32
441 -1 9 -3 4 -21 -18 -64 -16 -33 -42 -95 -57 -138 -24 -69 -27 -93 -27 -214
-1 -133 -1 -136 27 -172 15 -20 41 -44 57 -52 37 -19 137 -19 183 0 l36 15 34
-43 c69 -86 118 -195 147 -325 l18 -83 -38 -19 c-53 -27 -90 -67 -126 -137
l-31 -60 -37 27 c-20 15 -63 63 -95 106 l-59 79 20 24 c22 28 18 57 -13 108
-31 50 -82 77 -133 70 -39 -6 -44 -4 -54 18 -9 18 -19 25 -41 25 -25 0 -31 6
-40 33 -26 78 -113 129 -189 110 l-40 -10 24 45 c36 67 18 141 -46 196 -26 21
-42 26 -85 26 -30 0 -65 -4 -79 -10 -23 -8 -28 -6 -41 20 -26 50 -79 64 -134
35 -28 -14 -29 -14 -35 17 -3 17 -6 48 -6 69 0 28 -8 47 -28 70 -26 29 -32 31
-73 25 -62 -9 -106 -38 -116 -77 -8 -27 -15 -34 -55 -44 -57 -14 -89 -35 -124
-79 -24 -30 -30 -33 -51 -23 -18 8 -33 7 -58 -2 -33 -12 -36 -11 -64 21 -27
30 -34 33 -103 36 -61 3 -82 0 -121 -18 -26 -12 -50 -26 -53 -31 -2 -5 19 3
48 16 108 50 238 24 238 -47 1 -28 2 -31 13 -17 31 40 88 50 109 20 13 -19 15
-18 33 16 24 45 95 94 146 100 21 3 39 3 39 0 0 -4 -9 -31 -21 -62 -18 -47
-19 -60 -8 -92 22 -72 30 -85 50 -90 30 -8 18 -25 -38 -55 l-50 -28 -27 -102
c-15 -57 -30 -131 -35 -166 l-8 -63 47 -42 47 -42 -22 -50 -22 -50 -16 38 c-9
20 -23 37 -31 37 -8 0 -32 -26 -53 -57 -39 -59 -63 -77 -63 -48 0 27 -46 65
-80 65 -25 0 -30 4 -30 23 0 36 -33 60 -74 55 -33 -4 -34 -2 -40 33 -11 72
-114 134 -180 109 -24 -9 -26 -7 -26 16 0 41 -59 94 -105 94 -34 0 -36 2 -24
16 8 10 14 40 14 73 0 109 -77 191 -179 191 -25 0 -57 -5 -72 -10 -15 -6 -28
-9 -30 -7 -3 2 10 46 28 98 32 92 34 95 85 125 116 69 244 48 304 -50 10 -17
19 -26 19 -21 0 31 -45 78 -96 102 -69 31 -141 28 -216 -11 l-49 -26 6 23 c12
38 128 258 187 352 185 297 473 611 764 832 123 94 345 236 574 369 214 125
312 202 326 257 12 49 -12 102 -65 147 l-49 41 67 63 c101 95 199 156 278 175
60 14 170 12 207 -3z m1062 -810 c66 -14 140 -32 165 -40 l44 -13 -65 -29
c-556 -244 -1093 -619 -1310 -914 -34 -47 -65 -85 -69 -85 -3 1 -33 7 -66 14
-87 20 -334 9 -445 -18 -127 -32 -276 -82 -567 -192 -338 -127 -393 -143 -513
-144 -86 0 -99 3 -142 27 -65 39 -88 80 -88 159 0 121 87 276 244 437 139 144
313 269 576 415 399 223 803 346 1335 406 44 5 238 8 430 7 338 -3 354 -4 471
-30z m379 -83 c-40 -79 -60 -190 -51 -271 20 -174 151 -281 396 -326 170 -31
342 -37 1270 -46 993 -10 1001 -10 1315 -61 159 -25 354 -71 449 -104 126 -45
307 -141 392 -209 199 -157 294 -350 294 -594 0 -173 -37 -318 -147 -584 -42
-102 -47 -123 -51 -209 -4 -82 -1 -102 18 -147 38 -88 128 -156 247 -187 89
-23 339 -21 434 5 125 33 197 24 367 -46 153 -63 237 -119 358 -239 91 -90
118 -124 148 -186 32 -65 38 -87 39 -147 1 -63 -3 -79 -36 -144 -21 -40 -47
-86 -60 -101 l-22 -29 -115 61 c-207 108 -453 199 -695 257 -101 25 -132 27
-375 31 -256 4 -350 -2 -492 -33 -25 -6 -40 7 -155 122 -220 222 -286 259
-503 286 -47 5 -86 11 -88 13 -2 2 21 39 51 82 120 171 166 302 167 463 0 248
-128 404 -372 454 -162 33 -492 17 -691 -34 l-77 -20 -53 26 c-28 15 -91 52
-139 83 -75 48 -88 60 -88 83 0 36 -36 75 -84 91 l-40 14 -1 94 c-1 106 -19
161 -80 235 -36 43 -118 104 -142 104 -30 0 -83 -151 -98 -281 -6 -47 -11 -59
-31 -68 -13 -6 -36 -28 -51 -50 -16 -22 -31 -40 -35 -41 -13 0 -29 70 -29 125
0 61 -8 66 -60 39 l-31 -15 7 53 c16 126 -44 277 -145 371 -74 69 -196 132
-318 164 -87 23 -120 26 -332 30 -257 6 -372 -5 -547 -51 -263 -68 -483 -189
-868 -476 -254 -188 -342 -240 -412 -240 -64 0 -110 25 -135 73 -18 36 -20 54
-16 156 4 96 10 132 37 211 55 165 172 342 312 475 107 101 418 323 633 451
216 129 685 349 753 353 7 1 -2 -27 -22 -66z m-5873 -400 c42 -38 12 -56 -83
-51 -65 4 -73 24 -19 50 44 22 78 23 102 1z m-2 -73 c-20 -13 -127 -13 -135 0
-4 6 22 10 72 10 54 0 73 -3 63 -10z m-83 -44 c7 -20 10 -22 21 -10 8 9 9 14
2 14 -6 0 -8 5 -5 10 3 6 20 10 36 10 26 0 29 -3 24 -20 -3 -11 1 -30 11 -44
23 -35 12 -70 -27 -86 -37 -16 -65 -3 -62 26 2 15 0 14 -9 -3 -21 -43 -51 -24
-62 38 -9 51 7 89 38 89 17 0 27 -7 33 -24z m36 -153 c10 -3 17 -13 15 -22 -4
-21 -51 -26 -67 -8 -16 20 -3 50 18 41 9 -3 24 -9 34 -11z m-63 -35 c-1 -7 -7
-24 -14 -38 l-14 -25 -13 28 c-11 24 -11 30 2 38 20 13 39 11 39 -3z m148 4
c12 -8 7 -42 -6 -42 -9 0 -42 32 -42 42 0 10 31 10 48 0z m-193 -50 c12 -22
35 -44 58 -56 47 -22 81 -11 128 42 24 27 33 32 40 21 20 -32 9 -64 -22 -61
-3 1 -9 -27 -13 -60 -3 -34 -13 -72 -21 -85 -9 -13 -13 -28 -10 -33 3 -6 2
-10 -4 -10 -5 0 -13 5 -16 11 -4 6 -19 7 -37 4 -22 -5 -39 -1 -70 20 -36 24
-40 30 -35 58 3 18 9 41 13 51 5 14 4 17 -5 12 -19 -12 -61 21 -61 49 0 29 17
75 27 75 5 0 17 -17 28 -38z m75 -2 c0 -34 -15 -47 -35 -30 -13 10 -12 16 1
41 18 35 34 30 34 -11z m82 23 c23 -21 23 -40 -1 -52 -15 -9 -20 -7 -25 12 -8
30 -8 57 1 57 3 0 15 -7 25 -17z m-36 -41 c6 -28 4 -32 -15 -32 -17 0 -21 6
-21 33 0 59 24 59 36 -1z m-129 -102 c-1 -8 -10 -16 -19 -18 -21 -4 -51 39
-42 61 5 15 9 14 35 -6 15 -12 27 -29 26 -37z m232 29 c-9 -5 -15 -4 -18 2 -2
6 3 15 10 20 9 5 15 4 18 -2 2 -6 -3 -15 -10 -20z m21 -69 c5 0 14 -9 20 -20
8 -16 7 -26 -7 -45 -10 -13 -21 -25 -25 -25 -12 0 -36 89 -31 112 10 37 28 41
31 8 2 -17 7 -30 12 -30z m-298 23 c10 -9 18 -21 18 -28 0 -6 12 -18 26 -25
20 -11 24 -19 19 -39 -9 -35 -9 -35 -42 -17 -54 30 -60 38 -55 84 5 47 8 49
34 25z m6494 -33 c285 -25 493 -139 577 -317 27 -57 32 -82 35 -156 4 -93 -5
-133 -39 -163 -17 -15 -19 -15 -19 -1 0 9 5 28 10 43 6 15 9 29 6 31 -2 2 -27
-6 -56 -18 -56 -24 -138 -111 -164 -173 -24 -59 -37 -165 -31 -260 3 -51 2
-97 -3 -105 -6 -7 -38 -16 -73 -20 -68 -7 -94 -18 -121 -48 -16 -18 -16 -22
11 -75 75 -147 231 -297 356 -340 37 -13 49 -22 47 -35 -1 -10 -5 -65 -8 -123
-7 -119 3 -173 42 -219 13 -16 33 -54 43 -83 39 -111 60 -137 62 -75 l1 32 9
-35 c24 -94 31 -111 53 -137 20 -24 24 -42 28 -123 7 -129 30 -172 61 -113 14
26 14 26 21 -29 4 -30 13 -79 21 -107 l14 -52 -44 -62 c-173 -245 -392 -402
-582 -415 -83 -5 -172 20 -329 93 l-92 43 10 53 c6 32 8 156 5 299 -5 261 -21
384 -73 580 -134 507 -560 1089 -971 1328 -140 81 -323 142 -429 142 -29 0
-55 4 -58 8 -7 11 300 242 434 327 226 142 450 239 648 280 165 33 396 43 598
25z m-6204 -97 c19 -20 28 -38 25 -47 -9 -22 -24 -20 -32 4 -7 21 -30 27 -40
10 -4 -6 -10 -8 -15 -5 -9 5 -7 34 7 95 l5 25 10 -25 c5 -14 23 -39 40 -57z
m-188 41 c19 -7 22 -44 3 -44 -19 0 -36 20 -30 36 6 16 6 16 27 8z m251 -54
c-8 -14 -18 -13 -40 4 -19 14 -19 14 0 36 l19 21 13 -26 c8 -14 11 -30 8 -35z
m-151 24 c9 -22 2 -27 -34 -27 -37 0 -47 8 -30 28 17 20 56 19 64 -1z m-103
-33 c35 -28 14 -39 -22 -12 -17 13 -33 20 -36 17 -3 -3 11 -15 31 -27 39 -23
42 -29 24 -47 -15 -15 -98 -16 -98 -2 0 6 9 29 20 50 23 45 45 50 81 21z m313
-8 c7 -18 -2 -35 -15 -28 -5 4 -9 0 -9 -7 0 -10 -2 -10 -9 1 -5 7 -14 10 -20
7 -17 -11 -13 15 5 35 17 19 39 16 48 -8z m-453 -15 c3 -30 -4 -51 -27 -85
-13 -20 -24 -40 -24 -44 0 -5 -4 -9 -9 -9 -9 0 -3 30 15 74 6 15 4 17 -7 11
-11 -7 -11 -4 2 15 8 14 19 31 23 38 4 6 11 12 17 12 5 0 10 -6 10 -12z m267
-23 c16 -34 15 -35 -8 -35 -25 0 -44 32 -28 48 17 17 23 15 36 -13z m96 0 c-9
-14 -26 -31 -38 -37 -14 -7 -10 1 13 26 41 42 48 45 25 11z m-144 -20 c0 -5
-5 -3 -10 5 -5 8 -10 20 -10 25 0 6 5 3 10 -5 5 -8 10 -19 10 -25z m90 9 c0
-9 -5 -14 -12 -12 -18 6 -21 28 -4 28 9 0 16 -7 16 -16z m-110 -15 c0 -5 -7
-9 -15 -9 -9 0 -12 6 -9 15 6 15 24 11 24 -6z m194 5 c3 -9 6 -24 6 -35 0 -19
-1 -19 -24 -2 -18 14 -22 22 -15 36 12 21 25 22 33 1z m56 2 c0 -3 -4 -8 -10
-11 -5 -3 -10 -1 -10 4 0 6 5 11 10 11 6 0 10 -2 10 -4z m-410 -53 c30 -39 58
-106 86 -208 22 -85 23 -90 7 -115 -17 -25 -17 -25 -30 55 -17 104 -57 184
-103 208 -36 18 -38 27 -14 65 19 29 28 28 54 -5z m58 -40 c35 -76 76 -217 69
-236 -6 -14 -7 -11 -37 98 -12 44 -37 108 -55 143 -20 38 -28 62 -20 62 6 0
26 -30 43 -67z m135 7 c16 -30 35 -63 42 -74 12 -16 8 -26 -38 -84 -48 -61
-51 -63 -58 -41 -32 109 -64 199 -81 227 l-20 33 62 -3 63 -3 30 -55z m117 18
c14 -26 14 -29 -12 -54 l-26 -27 -27 42 c-44 70 -43 73 6 69 35 -2 46 -8 59
-30z m30 0 c0 -6 -7 -5 -15 2 -8 7 -15 17 -15 22 0 6 7 5 15 -2 8 -7 15 -17
15 -22z m-106 -40 c15 -27 24 -48 21 -48 -8 0 -65 92 -65 104 0 15 12 -2 44
-56z m-298 -11 c61 -5 105 -93 111 -222 4 -73 2 -94 -12 -110 -15 -19 -16 -18
-10 25 8 66 -11 183 -40 240 -24 48 -51 79 -38 43 6 -16 5 -17 -11 -3 -11 8
-6 -6 13 -35 17 -27 31 -56 31 -64 0 -14 2 -14 11 -1 8 12 9 10 5 -10 -3 -14
-6 -33 -6 -42 0 -13 -8 -16 -35 -14 -57 5 -68 21 -62 91 3 33 9 68 12 78 12
30 -49 22 -74 -9 -12 -15 -21 -21 -21 -15 0 7 12 23 26 38 20 19 31 24 52 18
15 -3 37 -7 48 -8z m-69 -101 c-5 -67 -3 -87 9 -96 15 -14 20 -35 5 -25 -5 3
-12 -3 -14 -12 -2 -10 -3 -6 -1 8 2 19 -5 32 -27 48 -35 26 -37 57 -9 119 31
69 44 55 37 -42z m20 62 c-3 -8 -6 -5 -6 6 -1 11 2 17 5 13 3 -3 4 -12 1 -19z
m3645 -5 c9 -10 19 -28 22 -40 6 -19 2 -23 -21 -29 -15 -3 -34 -8 -41 -10 -8
-2 -38 -1 -68 2 -52 7 -55 8 -52 33 6 50 126 83 160 44z m3968 10 c0 -3 -12
-36 -27 -72 -22 -56 -27 -81 -27 -167 0 -72 5 -113 18 -146 16 -43 16 -49 1
-77 -20 -39 -8 -39 39 -2 21 17 53 35 73 42 42 14 123 5 167 -19 l31 -16 -68
-7 c-70 -8 -155 -41 -164 -66 -3 -7 -23 -23 -44 -34 -49 -25 -49 -32 -1 -27
48 6 111 -10 91 -23 -8 -5 -30 -9 -50 -9 -44 0 -108 -22 -158 -53 -20 -12 -49
-26 -65 -32 -48 -16 -43 -33 8 -28 33 4 56 0 90 -17 25 -12 46 -25 46 -28 0
-4 -42 -5 -92 -4 -111 4 -191 -20 -233 -70 l-26 -31 -37 20 c-20 11 -67 30
-104 42 -71 24 -83 37 -107 126 -25 92 -5 237 42 313 24 37 105 117 113 110 2
-2 -3 -26 -11 -53 -21 -68 -19 -138 5 -185 32 -62 42 -60 34 8 -6 54 -4 65 22
113 16 29 49 73 74 98 38 39 45 43 47 26 11 -75 27 -124 48 -150 l25 -30 18
24 c9 13 33 41 53 64 l36 40 12 -64 c12 -61 25 -89 41 -89 4 0 4 19 -1 43 -12
60 -11 173 2 243 16 90 51 194 66 194 7 0 13 -3 13 -7z m-7525 -34 c9 -17 15
-33 13 -35 -3 -2 -12 12 -21 31 -21 43 -13 47 8 4z m7595 -26 c59 -67 84 -137
85 -233 l0 -85 -53 -6 c-29 -4 -64 -14 -78 -24 -14 -9 -27 -15 -29 -13 -10 11
-25 120 -25 181 0 85 36 217 59 217 5 0 24 -17 41 -37z m-4037 -50 c-23 -18
-163 -18 -163 0 0 9 24 12 90 12 75 0 87 -2 73 -12z m-3520 -153 c-9 -86 -22
-104 -18 -25 2 39 1 58 -1 43 -6 -29 -11 -33 -31 -20 -9 6 -6 15 12 34 25 27
33 44 17 34 -5 -3 -22 -1 -38 3 l-29 8 38 8 c31 6 37 11 38 34 1 17 4 10 10
-19 4 -25 5 -70 2 -100z m-185 118 c7 -7 12 -15 12 -20 0 -12 -28 2 -34 18 -7
17 6 18 22 2z m3576 2 c24 -9 26 -15 28 -72 1 -45 2 -52 5 -23 2 22 11 46 20
53 16 11 16 12 0 12 -9 0 -17 7 -17 15 0 10 10 15 29 15 16 0 37 3 46 6 13 5
15 0 12 -30 -2 -20 -1 -36 3 -36 4 0 12 -17 18 -37 14 -46 -1 -82 -41 -101
-44 -21 -77 -8 -78 31 -1 22 -3 25 -6 10 -2 -12 -11 -27 -20 -34 -13 -11 -19
-9 -40 15 -16 19 -23 36 -19 50 3 12 1 27 -3 35 -10 15 15 101 29 101 5 0 20
-4 34 -10z m156 -18 c0 -10 7 -27 15 -39 12 -17 13 -31 7 -55 -8 -31 -8 -31
-21 28 -7 32 -15 67 -18 78 -3 12 -1 16 6 12 6 -4 11 -15 11 -24z m159 -14
c12 -12 23 -30 27 -40 4 -13 11 -17 22 -13 9 3 44 9 77 12 56 5 63 3 93 -22
72 -61 81 -143 23 -215 -17 -21 -31 -41 -31 -43 0 -3 25 4 55 16 49 18 61 18
97 8 55 -17 95 -58 109 -115 8 -34 15 -44 22 -37 21 21 48 12 60 -19 9 -25 15
-28 36 -23 14 3 38 6 53 6 75 0 146 -111 105 -166 -11 -16 -14 -16 -52 3 -53
27 -126 26 -214 -4 -134 -45 -205 -106 -258 -223 -23 -50 -27 -70 -26 -142 l2
-84 -21 20 c-18 19 -19 25 -8 58 24 74 -10 141 -94 186 -52 27 -58 44 -21 61
44 20 22 108 -26 108 -14 0 -25 12 -35 38 -8 20 -26 60 -39 87 -17 38 -24 73
-28 146 -5 123 -26 164 -89 176 -49 10 -60 29 -24 42 38 15 59 56 61 119 2 41
7 59 20 69 29 20 81 16 104 -9z m-3875 -36 c7 -26 6 -36 -7 -49 -21 -21 -24
-18 -29 40 -4 40 -2 47 11 45 8 -2 20 -18 25 -36z m72 -28 c-4 -9 -9 -15 -11
-12 -3 3 -3 13 1 22 4 9 9 15 11 12 3 -3 3 -13 -1 -22z m47 19 c-7 -2 -19 -2
-25 0 -7 3 -2 5 12 5 14 0 19 -2 13 -5z m-73 -13 c0 -5 -5 -10 -11 -10 -5 0
-7 5 -4 10 3 6 8 10 11 10 2 0 4 -4 4 -10z m-40 -45 c-7 -9 -15 -13 -17 -11
-7 7 7 26 19 26 6 0 6 -6 -2 -15z m50 -51 c12 -36 24 -63 26 -61 2 2 -5 29
-16 61 -10 31 -15 54 -10 51 6 -4 10 -1 10 4 0 16 27 13 55 -5 34 -22 21 -37
-16 -18 -17 8 -33 13 -36 10 -3 -2 4 -29 16 -59 18 -48 18 -56 5 -61 -31 -12
-53 -6 -73 21 -34 42 -37 71 -10 99 12 13 24 24 25 24 1 0 12 -30 24 -66z m78
1 c1 -1 -3 -15 -9 -31 l-11 -29 -14 30 c-20 47 -18 58 9 44 12 -6 23 -13 25
-14z m2481 -5 c11 -5 33 -26 48 -46 39 -51 46 -152 13 -196 l-22 -29 44 6 c39
6 48 3 77 -21 29 -24 32 -32 29 -70 l-3 -42 27 14 c38 20 97 17 134 -5 36 -22
68 -83 61 -117 -5 -28 -6 -27 27 -13 56 26 104 -18 72 -66 l-15 -24 53 6 c50
5 55 4 72 -22 17 -27 17 -28 -1 -41 -25 -18 -187 -71 -277 -89 -137 -29 -323
-14 -416 34 -50 26 -107 87 -131 141 -18 40 -21 66 -21 216 0 158 7 235 31
326 8 30 15 38 47 47 42 11 122 7 151 -9z m2433 -16 c86 -31 175 -73 240 -116
l48 -30 -60 -30 c-33 -16 -72 -45 -88 -64 l-28 -34 -25 37 c-16 25 -33 39 -50
41 -23 3 -29 -4 -52 -56 -15 -33 -27 -68 -28 -78 0 -15 -3 -14 -11 6 -47 109
-102 212 -132 247 -36 42 -36 42 -15 54 12 6 45 19 73 29 28 10 52 19 53 19 1
1 35 -11 75 -25z m-5007 -74 c40 -20 39 -19 32 -26 -14 -14 -51 11 -78 54 -16
25 -29 51 -29 56 0 6 10 -7 23 -29 12 -22 36 -46 52 -55z m5176 60 c103 -34
190 -77 274 -133 84 -57 175 -127 175 -135 0 -6 -109 -52 -123 -52 -13 0 -37
59 -27 65 16 10 2 24 -37 40 -34 14 -35 16 -18 29 18 13 17 14 -13 30 -17 9
-37 16 -44 16 -6 0 -38 18 -71 41 -32 23 -97 61 -145 85 -102 51 -94 55 29 14z
m-1598 -10 c39 -15 45 -28 25 -48 -16 -16 -50 -15 -72 1 -13 9 -16 20 -11 40
4 15 10 27 14 25 3 -2 23 -10 44 -18z m-67 -44 c3 -8 -2 -29 -12 -47 -16 -31
-17 -32 -30 -14 -19 26 -18 52 4 64 23 14 32 13 38 -3z m191 -16 c2 -8 -1 -22
-7 -30 -8 -13 -15 -10 -42 18 l-33 33 40 -3 c26 -2 41 -8 42 -18z m-249 -43
c26 -59 74 -97 120 -97 59 1 95 30 135 105 l15 30 11 -28 c15 -40 14 -72 -5
-88 -12 -10 -17 -10 -23 0 -5 7 -11 -25 -14 -71 -5 -78 -23 -148 -38 -148 -3
0 -5 -12 -3 -27 2 -16 1 -22 -2 -15 -11 23 -41 33 -68 21 -22 -10 -31 -7 -74
25 -57 42 -65 55 -52 93 22 70 21 79 -7 78 -16 0 -33 10 -46 27 -20 27 -20 29
-3 83 9 30 21 55 26 55 5 0 18 -19 28 -43z m197 13 l29 -30 -24 -25 c-27 -29
-31 -25 -44 48 -8 45 1 47 39 7z m-105 -30 c0 -53 -15 -65 -40 -35 -11 13 -10
22 3 50 23 49 37 43 37 -15z m58 -2 c11 -52 8 -58 -25 -58 -24 0 -25 2 -19 38
3 20 6 43 6 50 0 6 6 12 14 12 9 0 18 -16 24 -42z m4150 -28 c-20 -11 -40 -24
-43 -30 -3 -5 -13 -10 -21 -10 -8 0 -12 5 -9 10 9 14 77 49 95 49 8 0 -2 -9
-22 -19z m148 -14 c82 -70 262 -174 329 -190 l30 -8 -25 -18 c-59 -45 -59 -45
-160 14 -95 56 -247 122 -258 112 -3 -3 30 -22 74 -42 86 -39 264 -136 264
-144 0 -3 -4 -11 -8 -18 -7 -10 -29 -2 -93 32 -124 66 -229 104 -325 120 -46
7 -88 17 -92 21 -4 4 35 5 86 2 50 -3 92 -2 92 3 0 11 -68 70 -80 70 -6 0 -10
5 -10 11 0 8 111 67 131 69 3 0 23 -15 45 -34z m-2526 5 c0 -5 -9 -13 -20 -16
-34 -11 -80 -56 -80 -78 0 -20 0 -20 24 2 26 24 81 37 121 27 l26 -7 -30 -35
c-43 -48 -41 -64 10 -64 l41 0 -32 -36 c-17 -20 -29 -38 -27 -41 3 -2 29 14
58 36 53 41 144 82 177 80 9 0 -2 -6 -25 -14 -56 -17 -127 -59 -150 -89 -11
-13 -28 -26 -39 -28 -15 -3 -11 -8 22 -25 38 -21 64 -56 64 -90 0 -11 -7 -7
-22 12 -19 24 -94 65 -120 65 -6 0 -4 -8 5 -18 10 -10 17 -24 17 -32 0 -7 -9
-1 -20 13 -18 22 -99 77 -115 77 -3 0 1 -13 10 -30 8 -16 15 -37 15 -47 -1
-11 -8 -5 -20 18 -23 44 -74 89 -101 89 -14 0 -19 7 -19 28 0 15 -3 43 -6 63
-5 32 -2 40 30 72 20 20 53 46 74 56 38 21 132 29 132 12z m-1931 -91 c15 0
14 -22 -3 -45 -13 -18 -14 -18 -40 8 -18 19 -26 36 -26 63 l0 36 29 -31 c16
-17 34 -31 40 -31z m302 38 c-9 -24 -41 -38 -41 -17 0 12 28 38 42 39 4 0 4
-10 -1 -22z m1278 -15 c-10 -21 -25 -69 -33 -108 -15 -65 -16 -66 -11 -17 6
57 41 162 54 162 5 0 0 -17 -10 -37z m91 -82 c11 -35 20 -69 20 -77 0 -8 12
-20 28 -26 l27 -11 -44 -8 c-105 -20 -167 -84 -248 -256 -26 -57 -51 -103 -54
-103 -3 0 -18 19 -33 42 l-28 43 42 37 c39 35 41 38 19 38 l-24 1 21 17 c12 9
30 23 40 30 17 11 16 12 -11 7 -29 -6 -29 -6 -11 14 10 11 43 34 72 51 30 17
54 37 54 44 0 8 13 17 29 21 16 3 35 13 42 21 6 8 18 14 25 14 8 0 14 7 14 15
0 17 -16 20 -25 6 -3 -6 -19 -16 -35 -25 l-30 -14 0 42 c0 43 25 144 39 159
10 10 49 -80 61 -136 l8 -42 1 40 c1 25 -10 64 -29 105 -22 48 -25 58 -10 40
11 -14 29 -54 40 -89z m-1369 12 c-2 -23 1 -33 8 -29 6 4 18 -8 27 -28 16 -33
16 -35 -7 -65 -13 -16 -27 -30 -30 -30 -14 -2 -39 88 -39 136 0 41 4 52 18 55
24 6 27 2 23 -39z m-321 -39 c0 -3 -4 -2 -10 1 -5 3 -10 3 -10 -2 1 -4 15 -17
33 -29 26 -16 32 -26 30 -53 0 -18 -3 -35 -6 -38 -10 -9 -48 9 -82 39 -32 28
-34 33 -29 76 9 73 10 74 44 41 16 -17 30 -33 30 -35z m5533 51 c150 -26 274
-109 324 -216 47 -100 54 -265 17 -390 -27 -92 -82 -190 -173 -311 l-35 -48
-76 0 -75 0 -30 58 c-44 83 -134 218 -192 286 l-51 59 21 36 c12 20 31 50 44
67 79 106 66 271 -25 307 -20 8 -52 18 -69 22 -19 4 -33 13 -33 21 0 20 -59
54 -92 54 -16 0 -37 -9 -49 -21 -17 -17 -28 -20 -57 -14 -59 10 -133 36 -127
45 5 8 135 36 230 49 99 14 363 12 448 -4z m-3505 -13 c2 -7 -6 -12 -17 -12
-21 0 -27 11 -14 24 9 9 26 2 31 -12z m2116 -26 c-12 -20 -22 -25 -38 -20 -23
7 -31 13 -25 17 13 9 75 34 77 32 2 -2 -4 -15 -14 -29z m-1904 4 c0 -34 -59
-116 -105 -146 -24 -16 -26 -15 -60 14 l-34 31 41 35 c23 20 64 45 92 55 60
23 66 24 66 11z m2053 -4 c88 -17 173 -50 311 -118 87 -44 97 -52 92 -71 -18
-62 -27 -128 -24 -178 3 -52 1 -58 -29 -83 -45 -38 -104 -56 -218 -66 -234
-22 -394 -5 -459 46 l-34 27 15 51 c17 57 107 239 130 262 11 11 27 13 64 8
44 -6 49 -5 49 13 0 11 -10 32 -21 47 -19 24 -20 30 -9 52 16 28 30 29 133 10z
m-1918 -103 c371 -412 575 -849 626 -1338 12 -118 9 -528 -4 -541 -10 -11 -84
30 -152 83 -51 40 -54 45 -44 70 14 38 59 104 87 126 28 23 28 36 -1 79 -15
21 -26 57 -31 94 -22 191 -192 317 -586 437 -94 29 -115 39 -114 54 1 10 14
63 29 118 49 182 46 472 -6 679 l-20 79 34 36 c37 38 67 90 67 116 0 8 4 15 9
15 5 0 53 -48 106 -107z m-2045 -56 c32 -37 32 -38 15 -64 l-17 -26 -14 31
c-13 31 -37 42 -49 22 -24 -39 -34 42 -14 114 l11 39 18 -40 c9 -21 32 -56 50
-76z m4806 92 l19 -21 -40 7 c-48 9 -57 14 -50 26 11 16 51 10 71 -12z m-308
-33 c-67 -62 -113 -194 -97 -281 4 -22 6 -41 5 -42 -1 -1 -12 0 -24 4 -19 5
-22 12 -22 59 0 154 74 293 155 294 17 0 14 -6 -17 -34z m172 13 c47 -11 123
-24 169 -29 96 -10 120 -26 146 -95 16 -40 16 -44 -10 -108 -30 -75 -66 -111
-126 -127 -43 -12 -79 -41 -79 -65 0 -20 10 -19 35 5 25 23 85 44 85 29 0 -5
-21 -23 -47 -40 -45 -28 -53 -30 -128 -27 -65 3 -93 9 -149 36 -37 17 -78 32
-91 32 -40 0 -58 42 -53 129 6 102 38 182 95 238 25 24 50 43 56 43 7 0 50 -9
97 -21z m-4896 -18 c23 -25 12 -49 -20 -43 -19 3 -24 11 -24 33 0 34 19 38 44
10z m295 -63 c-13 -24 -21 -23 -49 7 l-23 25 23 25 24 26 17 -33 c12 -23 14
-38 8 -50z m3151 72 c0 -5 -2 -10 -4 -10 -3 0 -8 5 -11 10 -3 6 -1 10 4 10 6
0 11 -4 11 -10z m-3338 -36 c10 -20 9 -27 -2 -34 -8 -5 -18 -6 -22 -4 -4 3 -9
-3 -9 -13 -1 -17 -2 -17 -6 0 -2 9 -13 17 -23 17 -29 0 -33 17 -10 40 28 28
58 26 72 -6z m1588 1 c7 -9 11 -17 9 -18 -3 -3 -119 -24 -158 -30 -8 -1 -16 3
-18 9 -4 11 56 41 97 47 48 8 58 7 70 -8z m2250 12 c0 -2 -20 -38 -44 -81 -24
-42 -56 -115 -71 -161 -27 -83 -48 -107 -76 -89 -21 13 -3 135 30 208 49 109
65 126 117 126 24 0 44 -1 44 -3z m-2992 -17 c13 0 44 -20 74 -47 l50 -48 -60
-55 c-69 -64 -169 -126 -262 -163 -74 -29 -179 -50 -204 -41 -20 8 -21 72 -2
125 18 51 92 136 145 167 54 32 188 73 216 67 11 -3 30 -5 43 -5z m2655 -39
l99 -29 45 34 c25 19 47 33 48 32 2 -2 -13 -37 -33 -78 -34 -70 -37 -84 -43
-200 -6 -111 -5 -129 12 -160 10 -19 40 -84 67 -145 54 -124 130 -250 226
-377 l64 -86 -10 -73 c-5 -41 -11 -165 -12 -276 0 -111 -4 -204 -7 -208 -15
-14 -34 65 -34 137 1 81 -5 87 -32 35 l-16 -32 -9 30 c-5 17 -11 79 -15 139
l-6 109 -23 -26 c-13 -15 -26 -44 -30 -64 -6 -31 -8 -34 -15 -18 -16 41 -9
134 16 212 14 43 25 82 25 87 0 19 -35 -22 -53 -63 -10 -24 -22 -39 -27 -35
-23 26 -75 244 -65 281 4 18 2 24 -7 21 -13 -5 -30 -33 -44 -73 -12 -35 -26
52 -20 123 3 34 2 62 -3 62 -9 0 -31 -68 -31 -99 0 -40 -17 -12 -30 49 -12 58
-11 124 6 268 6 52 6 53 -13 42 -17 -11 -28 -7 -84 30 -35 24 -89 63 -120 87
-80 62 -226 244 -212 266 29 47 225 46 386 -2z m-3633 3 c42 -28 51 -44 23
-44 -19 0 -83 47 -83 61 0 15 19 10 60 -17z m1820 16 c0 -5 -2 -10 -4 -10 -3
0 -8 5 -11 10 -3 6 -1 10 4 10 6 0 11 -4 11 -10z m-1451 -10 c26 -14 33 -39
16 -56 -12 -12 -15 -12 -16 -2 0 7 -4 4 -9 -7 -7 -17 -9 -17 -9 -2 -1 20 -17
23 -24 5 -3 -7 -6 1 -6 18 -1 16 4 35 11 42 14 14 15 14 37 2z m-402 -34 l36
-34 -51 -3 c-29 -2 -52 -2 -52 0 0 9 24 71 28 71 2 0 20 -15 39 -34z m1783 16
c0 -5 6 -17 14 -27 14 -19 15 -19 27 8 7 15 18 27 25 27 25 0 54 -97 70 -232
5 -51 4 -59 -12 -64 -11 -4 -39 -16 -64 -27 -25 -11 -52 -19 -60 -18 -56 9
-179 203 -180 283 0 35 2 37 43 46 53 12 137 15 137 4z m322 -67 c31 -122 41
-231 35 -414 -4 -146 -9 -192 -31 -274 -14 -54 -26 -100 -26 -102 0 -22 -205
35 -264 73 -28 18 -58 32 -68 32 -16 0 -18 11 -18 108 0 101 14 186 38 228 10
18 11 17 21 -9 6 -16 11 -43 11 -60 1 -49 35 -114 72 -137 25 -15 50 -20 106
-20 71 0 75 1 109 35 30 30 34 39 27 63 -4 15 -7 41 -6 57 3 46 -6 73 -28 80
-27 8 -40 60 -47 188 -6 103 -5 109 17 132 18 19 22 31 17 60 -10 64 16 34 35
-40z m-2232 51 c0 -6 -60 -66 -66 -66 -2 0 6 16 18 35 13 19 29 35 36 35 6 0
12 -2 12 -4z m1701 -11 c-1 -15 -24 -12 -29 3 -3 9 2 13 12 10 10 -1 17 -7 17
-13z m-1387 -11 c8 -22 5 -24 -22 -17 -18 4 -20 8 -11 19 15 18 25 18 33 -2z
m131 -15 c-9 -17 -19 -29 -22 -26 -5 5 25 57 33 57 3 0 -3 -14 -11 -31z m1605
-15 c0 -7 5 -14 11 -16 7 -2 14 -42 17 -102 4 -73 2 -97 -7 -92 -6 4 -11 34
-11 71 0 35 -9 92 -20 127 -14 46 -15 58 -5 44 8 -11 15 -25 15 -32z m66 32
c17 -13 19 -27 19 -140 0 -69 -2 -126 -5 -126 -20 1 -28 26 -33 100 -4 47 -10
106 -13 133 -7 50 -1 56 32 33z m-1746 -16 c0 -5 -7 -10 -16 -10 -8 0 -12 5
-9 10 3 6 10 10 16 10 5 0 9 -4 9 -10z m-381 -21 c-16 -10 -23 -4 -14 10 3 6
11 8 17 5 6 -4 5 -9 -3 -15z m491 -11 c0 -5 -7 -8 -15 -8 -15 0 -20 21 -8 33
7 7 23 -11 23 -25z m1194 16 c9 -8 16 -20 16 -26 0 -21 84 -175 118 -217 l36
-45 -32 20 c-18 10 -47 40 -64 66 -16 27 -32 48 -34 48 -12 0 0 -32 27 -73 22
-33 46 -54 85 -73 30 -14 54 -27 54 -28 0 0 -9 -25 -21 -55 -14 -38 -22 -89
-26 -173 l-6 -118 -42 0 c-62 0 -141 -27 -228 -77 -69 -40 -107 -49 -107 -26
0 4 17 19 37 33 50 34 120 131 138 193 8 28 15 77 15 109 0 56 -1 59 -60 124
-33 36 -60 72 -60 78 0 19 120 256 130 256 5 0 16 -7 24 -16z m-374 -44 c0 -3
-35 -40 -77 -82 -135 -133 -258 -190 -414 -192 -48 -1 -90 2 -94 5 -3 4 -3 18
0 32 6 23 11 25 83 29 133 7 334 106 429 212 38 42 38 43 55 22 10 -12 18 -23
18 -26z m428 -7 c23 -61 105 -187 135 -208 12 -8 16 -15 10 -15 -32 0 -173
218 -173 267 0 24 6 14 28 -44z m-376 -40 c16 -10 43 -40 60 -68 40 -65 111
-158 167 -218 l45 -48 -22 -75 c-13 -41 -33 -92 -46 -112 -33 -53 -113 -138
-121 -130 -4 4 4 32 19 63 40 88 41 112 11 196 -15 41 -47 132 -71 203 -24 71
-53 145 -64 163 -29 50 -26 54 22 26z m4 -135 c6 -26 4 -28 -22 -28 -16 0 -44
9 -61 20 -25 15 -33 16 -33 6 0 -23 30 -40 78 -46 25 -3 49 -12 53 -20 5 -8
29 -69 54 -135 53 -137 53 -153 3 -248 -63 -118 -138 -154 -262 -126 l-61 14
-20 80 c-12 44 -37 123 -57 175 -35 92 -66 207 -57 213 2 2 39 20 81 41 56 27
101 59 160 116 l83 79 27 -57 c15 -31 30 -69 34 -84z m3458 14 c3 -5 -4 -19
-16 -31 -18 -20 -22 -21 -36 -8 -8 9 -12 23 -9 31 7 17 52 22 61 8z m-800 -25
c15 -11 16 -18 8 -34 -19 -35 -40 -47 -57 -33 -20 17 -19 57 3 69 22 14 25 13
46 -2z m-1888 -13 c18 -14 18 -15 -6 -8 -43 12 -102 5 -138 -16 -19 -12 -37
-18 -40 -15 -9 9 11 23 53 39 53 19 107 20 131 0z m2589 -15 c0 -30 -242 -71
-252 -43 -2 7 21 13 64 17 38 3 91 15 118 26 54 22 70 22 70 0z m240 -19 c112
-63 226 -74 309 -29 l37 19 42 -46 c23 -25 59 -69 80 -97 41 -55 137 -212 137
-225 0 -5 -21 -13 -47 -19 -27 -6 -62 -16 -79 -24 -30 -12 -36 -10 -131 44
-227 129 -360 231 -439 338 -61 83 -19 100 91 39z m-2827 7 c17 -8 34 -39 58
-102 40 -106 40 -114 14 -143 -30 -32 -95 -30 -141 4 -20 15 -43 23 -56 21
-18 -3 -25 3 -36 32 -8 20 -18 62 -21 93 -7 57 -7 57 26 74 67 35 118 42 156
21z m2107 -17 c115 -13 135 -30 35 -30 -76 0 -198 14 -207 24 -3 3 -3 12 0 20
5 11 14 12 44 5 21 -5 78 -14 128 -19z m-2315 -10 c0 -5 -4 -10 -10 -10 -5 0
-10 5 -10 10 0 6 5 10 10 10 6 0 10 -4 10 -10z m2529 -49 c45 -89 54 -165 48
-395 -11 -375 -73 -686 -177 -890 -56 -109 -158 -263 -246 -372 -220 -273
-495 -449 -763 -489 -76 -12 -95 -11 -215 10 -347 61 -608 131 -762 204 -99
47 -321 182 -372 226 l-27 23 26 12 c24 11 37 4 175 -81 82 -51 181 -107 219
-125 174 -79 472 -158 665 -176 117 -11 133 -10 235 11 121 25 248 73 328 125
28 18 88 55 132 82 187 114 465 440 571 670 87 190 146 529 147 844 0 185 -13
269 -53 337 l-19 32 27 4 c15 2 28 5 29 6 2 0 16 -25 32 -58z m251 28 c-19
-16 -54 -39 -78 -50 -49 -24 -122 -37 -122 -21 0 6 -3 17 -6 25 -4 12 10 18
63 27 37 6 88 20 113 30 64 26 70 23 30 -11z m137 -17 c80 -117 181 -198 440
-351 123 -72 239 -159 250 -188 9 -23 -22 -74 -80 -133 -94 -96 -116 -105
-362 -137 -22 -3 -52 -14 -66 -24 -41 -29 -70 -37 -191 -53 -142 -19 -196 -35
-282 -86 -38 -22 -71 -38 -73 -36 -3 2 4 62 16 133 42 267 51 408 41 652 l-5
124 55 14 c64 16 142 64 171 104 28 40 49 36 86 -19z m-575 -8 c89 -6 97 -9
107 -31 9 -21 8 -25 -12 -32 -22 -9 -22 -9 5 -19 24 -10 27 -18 34 -79 20
-186 -22 -599 -83 -816 -33 -118 -43 3 -22 268 l12 144 -65 98 c-103 156 -131
201 -190 313 -73 137 -76 147 -45 159 14 6 28 14 31 19 3 5 32 3 68 -4 35 -7
106 -16 160 -20z m-3312 16 c1 -35 35 -152 60 -206 42 -94 60 -185 60 -312 0
-138 -2 -141 -77 -118 -64 20 -137 55 -195 94 -31 20 -38 31 -38 57 0 17 -9
81 -20 141 -12 60 -24 163 -27 229 l-6 120 122 0 c66 0 121 -2 121 -5z m-320
-24 c0 -8 -7 -16 -15 -20 -15 -5 -21 14 -8 27 11 12 23 8 23 -7z m1590 -21 c0
-8 -2 -15 -4 -15 -2 0 -6 7 -10 15 -3 8 -1 15 4 15 6 0 10 -7 10 -15z m-1554
-12 c-10 -11 -96 -31 -90 -22 5 9 58 27 83 28 8 1 11 -2 7 -6z m-26 -49 c0 -8
-5 -25 -12 -37 -11 -22 -12 -22 -19 7 -5 16 -6 33 -3 38 9 14 34 9 34 -8z
m-50 -25 c0 -6 -4 -7 -10 -4 -5 3 -10 11 -10 16 0 6 5 7 10 4 6 -3 10 -11 10
-16z m90 -47 l0 -46 -22 21 c-19 19 -20 25 -8 52 17 42 30 30 30 -27z m-109
22 c13 -14 45 -42 72 -61 46 -34 66 -64 29 -44 -28 15 -148 130 -136 131 6 0
21 -12 35 -26z m-11 -66 c0 -21 -5 -28 -20 -28 -26 0 -70 -20 -97 -43 -11 -10
-30 -17 -42 -15 -18 3 -13 13 45 81 l66 78 24 -22 c14 -13 24 -34 24 -51z
m1480 27 c16 -19 1 -19 -24 0 -16 12 -17 15 -4 15 8 0 21 -7 28 -15z m-1453
-57 c-3 -7 -5 -2 -5 12 0 14 2 19 5 13 2 -7 2 -19 0 -25z m80 -35 c28 -22 34
-36 58 -141 15 -64 34 -125 43 -135 14 -16 7 -15 -53 7 -47 17 -79 36 -99 58
-24 28 -27 30 -21 10 6 -22 5 -23 -17 -17 -12 4 -41 15 -63 25 l-41 17 -34
-28 c-39 -33 -55 -36 -64 -13 -10 27 -7 44 9 44 14 0 37 22 82 79 l19 24 42
-24 c50 -28 56 -23 66 52 12 87 12 87 73 42z m-104 9 c12 -13 15 -28 10 -55
-6 -41 -13 -44 -49 -21 -19 13 -37 15 -80 10 -31 -3 -65 -11 -76 -17 -23 -13
-31 -8 -22 15 4 10 18 16 38 16 17 0 42 7 55 17 25 17 92 52 102 53 3 0 13 -8
22 -18z m-108 -92 c-3 -5 -25 -10 -48 -10 -31 0 -38 3 -27 10 20 13 83 13 75
0z m1347 -58 c-6 -85 -15 -107 -43 -105 -13 1 -79 5 -146 9 -151 9 -159 20
-55 82 87 52 146 72 202 69 l45 -2 -3 -53z m4019 43 c195 -18 242 -33 320 -95
34 -28 70 -50 80 -50 9 0 60 -48 113 -109 93 -106 121 -131 218 -191 26 -16
51 -37 57 -48 9 -18 7 -19 -37 -14 -37 3 -53 0 -72 -16 l-24 -19 -65 55 c-82
70 -153 102 -248 113 -101 11 -106 13 -147 64 -42 51 -70 63 -94 42 -22 -20
-158 -87 -175 -87 -19 0 -57 44 -110 125 -59 90 -59 90 -139 158 -42 34 -63
59 -56 63 42 26 168 29 379 9z m-3930 -6 c43 -15 61 -30 116 -101 42 -55 43
-59 29 -85 -8 -16 -33 -50 -57 -77 l-43 -48 -28 33 c-42 51 -34 27 26 -79 78
-138 107 -231 113 -368 l6 -111 -37 -28 c-41 -31 -41 -47 0 -21 14 10 27 16
29 14 7 -8 63 -126 70 -148 7 -24 6 -23 -22 7 -35 38 -70 53 -120 53 -54 0
-97 -26 -170 -103 l-67 -71 -120 -14 c-67 -8 -172 -16 -234 -19 l-113 -5 -22
28 c-19 24 -23 45 -28 144 -3 63 -12 129 -19 145 l-14 30 -4 -30 c-5 -36 -10
-40 -82 -61 -36 -11 -81 -15 -135 -12 -68 2 -88 7 -122 30 -46 30 -49 42 -59
203 l-7 100 48 53 47 52 43 -38 c54 -51 152 -97 238 -113 204 -38 448 83 579
285 46 72 88 199 88 269 0 64 9 97 25 97 6 0 27 -5 46 -11z m-1500 -31 c10
-19 9 -19 -21 -13 -67 15 -105 -42 -62 -94 16 -20 21 -21 72 -11 53 10 55 10
77 -19 34 -43 74 -56 111 -37 17 9 37 25 45 36 14 20 14 20 55 0 23 -11 67
-26 99 -34 32 -7 76 -22 98 -33 22 -11 71 -30 108 -43 56 -18 66 -25 55 -35
-7 -6 -66 -60 -131 -120 -64 -59 -123 -117 -129 -128 -18 -35 -11 -160 27
-459 41 -319 57 -402 92 -472 l24 -48 47 7 c26 5 106 9 177 10 90 1 143 7 174
18 l43 15 -5 -36 c-4 -20 -11 -100 -17 -177 -6 -77 -13 -152 -16 -167 l-5 -26
-96 64 c-104 69 -134 77 -176 44 -21 -16 -44 -21 -114 -24 -48 -2 -97 -7 -108
-10 -20 -7 -21 -4 -17 64 6 100 -12 155 -68 211 -44 44 -102 69 -159 69 l-21
0 20 33 c40 65 19 172 -49 250 -40 45 -88 61 -156 53 l-52 -6 -7 48 c-9 69
-56 161 -106 206 -23 21 -75 54 -116 73 -71 34 -77 35 -173 31 -99 -3 -100 -3
-160 -46 -34 -23 -61 -40 -61 -37 0 12 123 221 188 320 80 121 227 316 334
445 77 92 81 95 124 97 35 1 46 -3 55 -19z m1066 -73 c15 -11 15 -15 -6 -48
-33 -54 -115 -123 -168 -141 -53 -18 -129 -21 -167 -6 -29 11 -31 28 -20 151
l7 66 45 -13 c96 -29 191 -13 243 42 l23 24 13 -31 c7 -18 21 -37 30 -44z
m-1097 11 c0 -47 -23 -64 -44 -34 -9 12 -16 27 -16 33 0 17 22 35 42 35 14 0
18 -8 18 -34z m1845 -15 c351 -92 544 -182 636 -296 41 -52 59 -95 59 -145 0
-37 -2 -40 -19 -30 -40 21 -118 7 -174 -32 -37 -26 -73 -14 -203 68 -124 78
-187 107 -235 107 -35 0 -38 2 -55 46 -29 78 -74 162 -130 244 -29 42 -48 77
-41 77 7 0 80 -18 162 -39z m-1705 -1 c0 -5 -7 -7 -15 -4 -8 4 -15 8 -15 10 0
2 7 4 15 4 8 0 15 -4 15 -10z m16 -21 c26 11 32 3 12 -17 -11 -11 -68 -18 -68
-8 0 2 -3 12 -7 21 -5 15 -3 16 17 5 17 -9 29 -9 46 -1z m94 -6 c0 -20 -46
-53 -74 -52 -29 0 -30 1 -9 11 13 6 25 19 28 29 6 18 55 28 55 12z m1048 -24
c92 -10 112 -15 112 -28 0 -39 -99 -211 -120 -211 -5 0 -50 42 -100 93 l-91
92 12 37 c11 33 15 36 43 33 17 -3 82 -10 144 -16z m445 -71 l27 -42 -27 -35
c-35 -47 -85 -101 -95 -101 -10 0 -58 71 -58 86 0 6 11 16 25 22 13 6 39 34
57 61 18 28 35 51 38 51 3 0 18 -19 33 -42z m3507 -43 c16 -32 30 -65 30 -72
0 -29 -50 -111 -89 -146 -56 -51 -86 -64 -187 -82 -49 -9 -107 -20 -129 -25
-43 -10 -55 -6 -37 12 7 7 12 26 12 44 0 24 -9 40 -35 63 -19 17 -35 32 -35
34 0 3 42 6 94 9 77 4 102 10 138 31 54 32 142 119 170 169 12 21 25 35 30 30
4 -4 21 -34 38 -67z m-4072 -56 l92 -97 -44 -39 c-61 -54 -165 -109 -171 -91
-53 146 -85 253 -76 256 5 2 29 19 53 37 24 19 46 33 49 32 3 -1 47 -45 97
-98z m-415 15 c18 -9 33 -18 35 -19 4 -4 -38 -258 -44 -264 -2 -2 -33 8 -68
23 -60 26 -146 88 -146 106 0 7 180 169 188 170 2 0 17 -7 35 -16z m1073 -124
c22 -77 36 -91 42 -44 3 25 6 26 44 20 46 -7 133 -49 166 -79 l22 -21 -24 -25
c-42 -43 -69 -118 -62 -168 3 -23 2 -43 -3 -43 -14 0 -116 37 -149 54 -17 9
-60 40 -95 70 -61 52 -66 59 -91 139 -14 47 -26 89 -26 93 0 5 15 19 34 32 19
13 47 41 62 63 l28 40 15 -28 c8 -15 25 -62 37 -103z m-850 -10 c23 -69 40
-128 38 -132 -14 -24 -234 -39 -234 -15 0 33 34 243 41 251 8 9 84 25 104 22
6 -1 29 -58 51 -126z m4403 24 c76 -86 155 -223 139 -240 -3 -3 -32 8 -64 24
-71 35 -124 49 -226 58 -43 4 -78 8 -78 10 0 2 22 24 50 50 27 25 63 68 81 95
17 27 37 49 44 49 7 0 32 -21 54 -46z m-599 -74 c20 -20 25 -47 12 -66 -31
-45 -125 -61 -137 -23 -9 26 2 69 22 92 22 23 78 22 103 -3z m1559 -12 c84
-47 130 -93 146 -148 5 -19 -4 -13 -39 27 -26 29 -73 68 -105 88 -33 19 -62
42 -65 50 -8 21 -1 19 63 -17z m-1737 -55 c3 -27 8 -55 12 -64 5 -13 -8 -17
-85 -28 -272 -39 -403 -117 -489 -294 -34 -71 -39 -77 -49 -59 -16 30 -14 54
11 108 12 27 36 87 53 134 30 83 32 86 99 132 111 76 167 91 433 117 6 1 13
-19 15 -46z m1648 26 c61 -13 153 -78 194 -137 29 -42 29 -43 10 -63 -35 -40
-77 -51 -148 -38 -94 16 -112 31 -151 128 -19 47 -31 89 -28 94 6 9 42 25 60
26 7 1 35 -4 63 -10z m-4071 -70 c28 -16 66 -33 86 -36 28 -4 35 -9 30 -22 -4
-9 -11 -36 -17 -61 -6 -25 -12 -51 -14 -57 -2 -10 -34 -13 -113 -13 -110 0
-111 0 -117 25 -4 14 -1 46 6 71 13 47 63 124 80 124 5 0 32 -14 59 -31z m323
10 c37 -18 89 -84 82 -103 -6 -15 -9 -15 -29 4 -14 13 -25 17 -29 11 -4 -5 -2
-12 4 -16 13 -8 13 -48 -1 -62 -8 -8 -17 -4 -34 15 -29 34 -42 24 -21 -16 12
-24 13 -72 0 -72 -2 0 -19 17 -38 37 -30 33 -36 36 -51 23 -14 -11 -16 -24
-12 -62 4 -28 2 -48 -3 -48 -15 0 -47 35 -66 71 -15 30 -15 36 1 95 20 74 45
101 111 119 63 17 59 17 86 4z m2663 -19 c181 -26 373 -99 463 -176 70 -59 82
-88 88 -210 5 -99 2 -125 -29 -274 -19 -91 -43 -183 -54 -203 l-19 -38 -42 61
c-24 33 -47 60 -52 60 -6 0 -10 13 -10 29 0 16 -14 67 -32 112 -30 79 -31 86
-19 140 7 34 26 79 47 110 19 28 33 54 30 56 -2 3 -29 -15 -59 -40 -67 -55
-177 -116 -282 -156 -88 -34 -112 -47 -104 -56 8 -8 162 38 233 70 32 14 60
24 63 22 6 -7 -41 -127 -91 -229 -66 -138 -164 -296 -239 -386 -164 -196 -458
-442 -558 -467 -25 -6 -27 -4 -34 42 l-7 48 -34 -122 c-60 -219 -125 -346
-255 -499 -122 -143 -174 -182 -264 -193 -57 -7 -63 -24 -10 -29 19 -2 35 -8
35 -14 0 -37 -208 -288 -249 -300 -11 -3 -11 -21 -2 -106 16 -146 14 -209 -6
-243 -10 -16 -25 -32 -35 -35 -18 -5 -88 22 -122 49 -19 14 -19 15 2 51 35 59
31 95 -42 340 -32 108 -31 110 79 192 62 45 105 94 105 117 0 3 -35 40 -78 83
-220 223 -310 366 -347 553 -49 239 20 417 268 691 115 127 186 187 267 224
64 29 140 48 140 35 0 -26 27 2 96 99 63 89 73 108 57 110 -32 7 -35 19 -19
74 31 109 148 241 252 284 60 25 231 55 329 58 71 3 103 9 152 30 42 17 97 30
165 37 57 6 105 13 107 15 3 2 12 2 20 0 9 -3 52 -10 96 -16z m-3322 -163 c45
-22 163 -44 275 -52 l93 -7 -7 -37 c-7 -39 -38 -127 -54 -151 -8 -12 -12 -11
-32 7 -33 30 -105 73 -122 73 -28 0 -72 -48 -101 -111 -16 -35 -30 -65 -31
-67 -1 -2 -16 4 -32 12 -24 12 -34 28 -47 73 -9 31 -31 86 -49 122 -32 63 -33
70 -28 153 l4 88 49 -44 c26 -24 63 -50 82 -59z m1987 37 c0 -36 -111 -193
-200 -285 -96 -98 -179 -151 -299 -190 -177 -58 -303 -38 -548 87 -157 79
-259 144 -316 199 -46 44 -83 113 -69 127 7 7 16 -1 27 -22 48 -93 159 -175
375 -279 253 -121 393 -121 605 -1 96 55 249 197 325 304 30 42 60 76 67 76 7
0 13 5 13 11 0 5 5 7 10 4 6 -3 10 -18 10 -31z m30 -62 c0 -17 -83 -148 -152
-240 -148 -197 -418 -445 -418 -384 0 5 -16 34 -35 66 -19 32 -35 60 -35 61 0
2 15 6 33 10 53 12 195 82 265 132 90 64 186 163 263 273 58 82 79 104 79 82z
m-1592 -69 c-13 -89 -36 -171 -65 -235 -20 -45 -36 -64 -73 -88 -26 -16 -50
-30 -53 -30 -3 0 16 35 42 78 58 93 111 227 111 280 0 43 5 52 30 52 15 0 16
-7 8 -57z m111 -39 c23 -5 39 -18 56 -44 27 -43 46 -57 164 -124 207 -118 392
-196 506 -212 61 -8 69 -14 117 -88 43 -67 46 -86 19 -103 -17 -10 -33 -6
-103 26 -46 21 -103 56 -128 78 -206 180 -411 279 -596 290 -86 5 -93 4 -133
-21 -24 -15 -45 -26 -47 -23 -2 2 4 24 15 48 11 24 25 73 31 109 7 36 14 76
17 89 l4 24 22 -22 c13 -11 38 -24 56 -27z m-1761 -44 c54 0 88 6 134 25 34
14 64 22 67 19 13 -13 3 -176 -11 -190 -8 -8 -49 -22 -91 -30 -88 -18 -163 -8
-218 29 -36 24 -42 41 -53 134 l-7 63 53 -25 c41 -19 70 -25 126 -25z m1079
-64 c44 -48 45 -119 1 -79 -23 21 -33 11 -18 -17 6 -12 9 -33 5 -47 l-6 -26
-29 28 c-37 35 -47 28 -21 -15 19 -32 19 -60 -2 -60 -5 0 -25 11 -43 25 -53
41 -76 29 -29 -15 14 -13 25 -30 25 -39 0 -10 -8 -7 -29 13 -36 34 -58 36 -98
7 -40 -30 -59 -22 -68 27 -8 51 7 82 77 153 99 100 172 114 235 45z m364 6
c53 -34 74 -58 60 -66 -6 -4 -29 7 -52 24 -23 16 -50 30 -59 30 -20 0 -85 -68
-95 -99 -6 -19 -25 -30 -25 -15 0 4 19 40 42 80 48 85 60 89 129 46z m1926
-54 l32 -61 -47 -72 c-46 -71 -48 -72 -97 -78 -27 -3 -69 -12 -92 -20 -24 -8
-43 -13 -43 -11 0 2 26 39 58 82 32 43 78 110 102 150 25 40 47 72 50 72 3 0
19 -28 37 -62z m-1932 -21 c42 -36 42 -51 3 -100 l-23 -28 -52 27 c-29 15 -53
32 -53 37 0 15 64 96 76 97 6 0 28 -15 49 -33z m-310 -59 c-50 -80 -78 -118
-87 -118 -5 0 1 14 14 31 13 17 27 38 33 48 31 52 59 91 62 87 3 -2 -8 -24
-22 -48z m-1225 2 c69 -35 117 -36 263 -4 24 6 27 4 27 -20 0 -20 -9 -30 -47
-50 -61 -32 -46 -32 73 -1 60 16 124 25 169 25 l74 0 -6 -33 c-3 -19 3 -56 16
-92 24 -71 26 -67 -84 -120 -92 -43 -154 -55 -256 -49 -61 4 -98 1 -134 -10
-72 -22 -77 -14 -114 178 -31 160 -36 196 -26 196 3 0 24 -9 45 -20z m1338
-15 c37 -19 89 -44 116 -55 l49 -21 -24 -25 c-13 -14 -56 -46 -96 -71 l-72
-45 -71 47 c-39 25 -70 49 -68 53 9 20 91 152 94 152 3 0 35 -16 72 -35z m683
5 c174 -58 324 -151 479 -299 l95 -89 -45 -21 c-58 -27 -60 -27 -106 10 -170
137 -487 315 -679 383 -19 7 -19 8 5 26 40 31 142 27 251 -10z m-1681 -16 c0
-8 -4 -14 -10 -14 -5 0 -10 9 -10 21 0 11 5 17 10 14 6 -3 10 -13 10 -21z
m493 -41 c4 -39 2 -62 -6 -69 -13 -13 -188 -84 -206 -84 -6 0 -11 2 -11 5 0 2
-7 30 -15 62 -18 69 -12 109 18 119 12 4 58 10 102 14 44 4 87 8 96 9 13 1 18
-12 22 -56z m4092 -58 c20 -49 37 -105 36 -123 0 -19 -17 -81 -37 -140 -47
-138 -45 -194 9 -276 49 -74 136 -117 193 -96 20 8 23 6 28 -28 26 -172 36
-706 16 -866 -25 -199 -71 -410 -131 -598 -41 -130 -45 -134 -92 -114 -51 21
-72 72 -87 211 -45 430 -84 562 -196 665 -53 48 -158 100 -264 129 -40 11 -74
22 -76 24 -2 2 5 71 16 153 11 82 25 203 31 269 l10 119 72 76 c40 41 93 100
118 130 108 128 235 357 303 544 3 10 8 17 10 15 2 -2 21 -44 41 -94z m-3010
-5 c227 -113 513 -297 507 -325 -4 -17 -53 -26 -182 -32 -113 -4 -139 -2 -275
26 -201 42 -399 102 -518 158 -79 38 -95 49 -85 59 7 7 85 56 173 109 134 80
165 95 190 90 17 -3 102 -41 190 -85z m-972 -10 c-26 -24 -121 -61 -150 -60
-15 1 82 48 115 55 18 3 37 16 43 27 6 11 14 17 17 13 4 -4 -7 -19 -25 -35z
m77 12 c0 -4 -7 -18 -16 -31 -17 -24 -19 -68 -6 -136 12 -62 -3 -125 -39 -160
-26 -24 -30 -26 -26 -10 3 11 13 45 21 75 11 38 14 78 10 130 -5 64 -2 80 15
108 19 29 41 43 41 24z m11 -95 c-15 -15 -24 -2 -16 24 7 20 8 21 17 5 7 -12
7 -21 -1 -29z m-102 -43 c1 -18 -12 -26 -81 -49 -71 -24 -104 -29 -220 -33
-94 -3 -138 -1 -138 6 0 13 78 68 125 87 18 8 77 20 130 25 52 6 112 17 133
24 36 13 37 13 43 -13 4 -14 7 -36 8 -47z m192 -5 c68 -46 71 -36 -31 -101
l-55 -35 0 76 c0 68 7 101 21 101 3 0 32 -18 65 -41z m3953 -127 c33 -47 50
-137 41 -216 -9 -84 -13 -96 -36 -96 -48 0 -102 46 -138 117 -28 55 -27 75 9
181 17 50 30 98 30 108 1 15 8 10 34 -19 19 -21 46 -55 60 -75z m-4159 -9
c-19 -57 -38 -97 -55 -113 -30 -28 -363 -258 -387 -267 -14 -5 -15 2 -9 58 4
35 11 131 15 212 5 82 11 150 13 153 3 2 44 -1 91 -7 100 -13 190 -2 292 35
33 12 62 21 64 19 2 -1 -9 -42 -24 -90z m379 27 c191 -116 341 -168 741 -256
148 -33 187 -38 300 -38 94 0 148 5 195 18 l64 18 28 -34 c15 -18 39 -49 53
-68 l24 -35 -18 -72 c-16 -60 -28 -82 -70 -130 -55 -61 -123 -189 -142 -265
-10 -44 -17 -51 -103 -110 -50 -34 -181 -125 -290 -201 l-200 -140 -15 24 c-9
13 -49 69 -90 124 -296 400 -680 714 -1007 824 l-85 29 173 119 c210 146 348
233 365 233 7 0 42 -18 77 -40z m1352 2 c-4 -3 -14 2 -24 12 -16 18 -16 18 6
6 13 -6 21 -14 18 -18z m2515 -49 c25 -58 59 -180 59 -210 0 -15 -11 -30 -32
-43 -18 -11 -35 -20 -38 -20 -3 0 -3 42 -2 94 3 66 -1 111 -12 149 -19 65 -20
77 -6 77 6 0 20 -21 31 -47z m-2358 -146 c-3 -4 -11 -3 -19 4 -11 9 -12 15 -2
26 10 13 13 12 19 -4 3 -10 4 -22 2 -26z m-53 -31 l23 -25 -27 -45 c-15 -26
-29 -46 -31 -46 -6 0 -78 101 -74 104 11 9 65 35 75 36 6 0 21 -11 34 -24z
m-2491 -93 c79 -45 161 -105 156 -114 -3 -4 -42 12 -88 36 -45 25 -90 45 -99
45 -25 0 -83 -110 -110 -210 -28 -107 -32 -325 -6 -403 16 -46 15 -48 -5 -62
-12 -8 -24 -15 -28 -15 -14 0 -29 130 -29 247 0 182 48 410 101 477 26 33 50
33 108 -1z m475 -58 c354 -133 738 -455 1029 -864 37 -51 67 -97 67 -101 0 -4
-12 -16 -27 -25 -26 -18 -27 -18 -42 6 -88 135 -363 429 -516 552 -263 212
-550 357 -704 357 -23 0 -41 3 -41 8 1 14 124 92 146 92 12 0 51 -11 88 -25z
m-475 -79 c52 -75 53 -84 20 -179 -20 -57 -33 -123 -40 -199 -12 -119 -16
-131 -60 -153 -26 -14 -27 -13 -33 16 -14 73 -18 219 -6 294 14 91 66 265 80
265 5 0 23 -20 39 -44z m75 11 c25 -20 27 -26 17 -45 -16 -30 -28 -28 -36 8
-4 16 -11 32 -16 35 -11 7 -12 25 -1 25 4 0 20 -10 36 -23z m4004 -117 c-12
-139 -44 -380 -51 -386 -3 -3 -61 1 -129 9 -68 9 -156 19 -195 22 -40 4 -73
10 -73 14 1 3 13 48 28 99 l27 94 57 23 c69 28 145 78 257 167 47 38 85 67 87
65 1 -1 -2 -49 -8 -107z m-3715 60 c147 -37 435 -203 616 -355 153 -127 501
-510 501 -550 0 -18 -256 -191 -263 -177 -2 4 -12 32 -22 62 -25 78 -98 222
-158 310 -64 94 -215 244 -288 288 -83 48 -219 101 -305 117 -115 22 -168 13
-306 -57 l-118 -58 0 50 c0 126 64 316 123 366 36 31 111 32 220 4z m2047
-143 c0 -33 -8 -48 -55 -100 -61 -67 -97 -132 -119 -217 -11 -42 -15 -48 -15
-25 -2 82 58 240 129 345 46 68 60 67 60 -3z m10 -94 c-1 -16 -80 -82 -80 -67
0 11 62 84 71 84 5 0 9 -8 9 -17z m30 -119 c19 -55 20 -68 9 -78 -15 -13 -160
-131 -193 -156 -19 -15 -19 -13 -13 50 11 116 29 152 105 204 36 25 67 46 68
46 1 0 12 -30 24 -66z m-1958 11 c83 -21 234 -97 301 -150 78 -62 209 -223
273 -336 184 -320 263 -747 181 -971 -54 -150 -120 -232 -229 -288 l-83 -42
37 35 c52 49 122 161 143 227 28 91 31 284 6 406 -24 118 -100 361 -142 452
-51 113 -156 262 -255 359 -80 80 -106 99 -196 142 -128 62 -238 93 -339 95
-43 0 -76 2 -74 4 1 1 38 20 81 42 71 35 87 39 159 39 45 1 106 -6 137 -14z
m-157 -120 c33 -9 107 -38 164 -66 91 -45 115 -62 196 -144 148 -149 253 -325
325 -545 97 -293 104 -539 21 -715 -58 -125 -127 -172 -310 -211 -72 -15 -95
-16 -174 -6 -228 29 -402 99 -509 204 -115 114 -171 216 -272 494 -93 258
-126 381 -126 473 0 96 40 247 82 314 51 80 189 170 308 201 73 20 221 20 295
1z m1851 -11 c-3 -9 -6 -53 -6 -99 l0 -83 -232 -156 -232 -156 -38 60 c-38 60
-46 80 -29 80 5 0 54 33 108 73 131 98 416 296 427 297 4 0 5 -7 2 -16z m343
-48 c11 -13 11 -16 -1 -16 -18 0 -68 38 -68 51 0 12 52 -14 69 -35z m-53 -21
c25 -19 53 -35 63 -35 9 0 43 -26 75 -59 l57 -58 -43 -12 c-37 -10 -51 -9
-102 9 -59 20 -131 58 -174 91 l-22 17 47 41 c27 22 49 40 50 41 2 0 23 -16
49 -35z m-259 -72 c-2 -21 -4 -6 -4 32 0 39 2 55 4 38 2 -18 2 -50 0 -70z
m121 -99 c66 -57 68 -85 15 -164 -33 -49 -37 -61 -35 -112 1 -55 0 -58 -23
-58 -33 0 -76 18 -91 38 -9 12 -13 54 -14 133 l0 116 35 47 c20 25 41 46 48
46 7 0 36 -21 65 -46z m432 -86 c46 -42 71 -72 67 -81 -3 -8 -29 -28 -59 -44
-65 -37 -138 -114 -138 -146 0 -13 -13 -48 -29 -78 -16 -30 -43 -89 -60 -132
-27 -66 -31 -91 -31 -167 l0 -90 -70 0 c-51 0 -72 4 -76 14 -11 29 19 101 61
148 59 66 75 118 75 247 1 119 18 232 48 306 18 45 25 52 73 72 30 12 57 21
60 20 3 -1 39 -32 79 -69z m-1133 -134 l37 -56 -23 -19 c-13 -11 -27 -19 -32
-19 -5 0 -25 26 -45 57 l-36 56 24 18 c12 10 26 19 30 19 4 0 25 -25 45 -56z
m-92 -56 c19 -29 35 -56 35 -60 0 -11 -302 -190 -309 -183 -3 4 -13 29 -22 56
l-16 48 128 87 c71 47 131 90 135 95 9 14 12 12 49 -43z m2196 -106 c83 -35
151 -87 174 -133 9 -16 15 -55 15 -92 0 -64 0 -65 -49 -110 -76 -71 -295 -166
-465 -201 -41 -9 -110 -16 -152 -16 -65 0 -75 2 -65 14 21 25 -17 35 -153 42
-69 4 -126 10 -126 13 1 24 18 28 75 19 33 -5 107 -8 165 -5 89 4 121 10 210
42 58 21 109 41 115 46 16 15 -18 10 -81 -11 -78 -27 -230 -44 -333 -36 -139
10 -128 -1 -137 138 l-9 121 92 93 92 93 68 9 c37 6 163 9 278 8 l210 -1 76
-33z m-1100 -79 c-12 -20 -14 -14 -5 12 4 9 9 14 11 11 3 -2 0 -13 -6 -23z
m50 -159 c-1 -47 3 -66 19 -87 l21 -26 -21 -40 c-36 -72 -92 -89 -139 -42 -35
35 -35 85 0 199 21 64 39 106 49 109 8 2 22 8 30 12 22 12 42 -50 41 -125z
m-227 -246 c33 1 63 -1 68 -4 12 -8 -19 -42 -54 -60 -63 -32 -137 -2 -124 50
6 23 10 26 29 20 12 -4 49 -7 81 -6z m269 -23 c22 -19 58 -40 79 -46 36 -9 38
-12 38 -49 0 -47 -15 -89 -38 -106 -9 -8 -43 -14 -75 -14 -48 0 -62 4 -82 25
-28 27 -31 56 -14 137 10 46 32 88 46 88 3 0 23 -16 46 -35z m476 -226 c23
-41 8 -74 -44 -99 -124 -60 -305 -22 -305 65 0 48 58 64 220 62 112 -2 115 -3
129 -28z"/>
<path d="M4800 7880 c-53 -11 -90 -48 -90 -90 0 -25 6 -32 36 -45 116 -48 284
48 206 118 -23 21 -93 29 -152 17z m134 -36 c36 -35 -32 -84 -118 -84 -63 0
-76 7 -76 42 0 23 6 32 33 43 45 20 141 19 161 -1z"/>
<path d="M4686 7651 c-11 -73 28 -123 101 -125 74 -2 70 62 -8 124 -66 52 -85
52 -93 1z m119 -64 c22 -31 19 -37 -19 -37 -57 0 -83 35 -78 103 2 16 7 14 42
-13 22 -17 47 -41 55 -53z"/>
<path d="M5040 5477 c0 -71 53 -117 80 -68 15 29 13 37 -21 76 -42 48 -59 46
-59 -8z m42 -4 c19 -17 25 -63 9 -63 -12 0 -20 13 -31 50 -10 34 -5 37 22 13z"/>
<path d="M4968 5453 c-26 -30 -38 -60 -38 -96 0 -66 60 -74 86 -11 33 79 -3
159 -48 107z m22 -94 c-7 -16 -16 -29 -20 -29 -24 0 -16 74 12 108 11 13 13
11 16 -18 2 -18 -2 -45 -8 -61z"/>
<path d="M6308 7129 c-42 -24 -10 -69 49 -69 41 0 66 21 61 51 -3 21 -9 24
-48 26 -25 2 -53 -2 -62 -8z m92 -19 c0 -12 -34 -30 -58 -30 -23 0 -37 26 -19
34 22 8 77 6 77 -4z"/>
<path d="M6099 6957 c-65 -35 -109 -97 -109 -155 0 -93 63 -150 153 -138 64 9
102 28 155 79 51 50 68 99 52 157 -15 57 -55 80 -141 80 -50 0 -77 -6 -110
-23z m180 -8 c39 -14 51 -35 51 -93 0 -39 -6 -52 -37 -87 -62 -68 -155 -101
-216 -75 -36 15 -67 66 -67 111 0 53 53 117 120 144 34 13 110 13 149 0z"/>
<path d="M8517 6369 c-55 -13 -107 -42 -150 -85 -56 -55 -71 -90 -71 -159 1
-117 84 -215 183 -215 127 0 271 152 271 287 0 92 -43 158 -109 169 -74 12
-87 12 -124 3z m153 -48 c36 -26 50 -59 50 -116 0 -91 -60 -182 -154 -236
-108 -61 -203 -19 -237 105 -18 68 -4 122 49 178 50 54 88 77 142 89 50 11
121 2 150 -20z"/>
<path d="M8297 5842 c-56 -38 -70 -78 -41 -120 31 -45 136 -12 159 51 23 67
-54 112 -118 69z m81 -11 c21 -13 10 -62 -18 -83 -14 -10 -39 -20 -55 -21 -26
-2 -30 2 -33 27 -4 32 27 72 62 79 11 2 23 5 26 5 3 1 11 -2 18 -7z"/>
<path d="M10695 4269 c-250 -20 -447 -62 -550 -117 -27 -15 -51 -35 -53 -45
-3 -15 1 -14 22 6 45 42 233 95 414 117 238 28 809 37 1007 15 22 -2 6 3 -35
11 -90 18 -634 27 -805 13z"/>
<path d="M11598 4233 c7 -3 16 -2 19 1 4 3 -2 6 -13 5 -11 0 -14 -3 -6 -6z"/>
<path d="M11678 4223 c7 -3 16 -2 19 1 4 3 -2 6 -13 5 -11 0 -14 -3 -6 -6z"/>
<path d="M11728 4213 c6 -2 18 -2 25 0 6 3 1 5 -13 5 -14 0 -19 -2 -12 -5z"/>
<path d="M595 6590 c-4 -6 5 -10 19 -10 14 0 26 5 26 10 0 6 -9 10 -19 10 -11
0 -23 -4 -26 -10z"/>
<path d="M573 6275 c-8 -19 -8 -25 1 -25 6 0 13 11 14 25 2 31 0 31 -15 0z"/>
<path d="M370 6125 c-20 -24 -6 -28 15 -5 10 11 13 20 8 20 -6 0 -16 -7 -23
-15z"/>
<path d="M3957 5691 c-4 -17 -3 -21 5 -13 5 5 8 16 6 23 -3 8 -7 3 -11 -10z"/>
<path d="M3895 5651 c-7 -13 17 -24 40 -19 9 1 16 8 16 13 0 14 -48 19 -56 6z
m48 -8 c-7 -2 -19 -2 -25 0 -7 3 -2 5 12 5 14 0 19 -2 13 -5z"/>
<path d="M3895 5550 c-3 -5 -1 -10 4 -10 6 0 11 5 11 10 0 6 -2 10 -4 10 -3 0
-8 -4 -11 -10z"/>
<path d="M3880 5233 c0 -16 -5 -34 -12 -41 -9 -9 -6 -12 16 -12 19 0 25 4 19
13 -4 6 -6 22 -5 34 2 11 -2 24 -7 28 -7 4 -11 -5 -11 -22z"/>
<path d="M7985 5101 c-41 -17 -60 -51 -59 -102 0 -27 6 -59 13 -72 14 -26 69
-57 102 -57 88 0 140 121 86 201 -20 30 -28 34 -72 36 -28 1 -59 -2 -70 -6z
m107 -38 c13 -11 18 -30 18 -65 0 -84 -64 -124 -124 -77 -22 18 -26 28 -26 75
0 52 2 56 33 69 43 19 77 18 99 -2z"/>
<path d="M8057 5053 c-15 -15 -7 -43 13 -43 15 0 20 7 20 25 0 24 -18 34 -33
18z"/>
<path d="M8639 4962 c-31 -28 -42 -73 -24 -102 12 -19 33 -11 28 10 -16 59 27
101 77 75 28 -15 30 -14 30 3 0 18 -37 42 -65 42 -8 0 -29 -13 -46 -28z"/>
<path d="M8687 4913 c-4 -3 -7 -15 -7 -26 0 -20 0 -20 19 -1 10 10 17 22 14
27 -5 9 -17 9 -26 0z"/>
<path d="M7128 5094 c-27 -8 -22 -27 27 -92 87 -115 224 -229 297 -246 31 -7
45 8 28 29 -10 12 -10 15 0 15 6 0 10 6 7 13 -2 6 3 17 10 22 11 8 12 17 4 38
-14 36 -14 80 -1 72 6 -3 10 1 10 9 0 10 -9 16 -21 16 -20 0 -21 -4 -16 -42 2
-24 8 -52 12 -63 7 -16 6 -18 -6 -7 -20 19 -42 16 -31 -5 5 -10 7 -24 5 -31
-3 -7 3 -24 12 -38 16 -25 16 -25 -7 -13 -95 50 -231 171 -297 264 l-35 48
100 -6 c54 -4 133 -16 174 -26 41 -11 76 -18 79 -16 4 5 4 5 -84 36 -59 20
-228 35 -267 23z"/>
<path d="M7500 5010 c0 -5 5 -10 11 -10 5 0 7 5 4 10 -3 6 -8 10 -11 10 -2 0
-4 -4 -4 -10z"/>
<path d="M5500 4952 c0 -50 44 -70 68 -31 16 25 16 24 -31 44 l-37 15 0 -28z"/>
<path d="M4991 4686 c-9 -11 -10 -20 -1 -35 15 -29 40 -27 40 3 0 32 -23 51
-39 32z"/>
<path d="M4759 4663 c-6 -16 -19 -38 -30 -49 -30 -32 -5 -41 26 -10 16 16 25
36 25 56 0 37 -7 38 -21 3z"/>
<path d="M4920 4636 c0 -3 22 -34 50 -68 l50 -62 -26 -27 c-16 -17 -22 -29
-15 -34 14 -8 71 32 71 50 0 21 -93 139 -113 143 -9 2 -17 1 -17 -2z"/>
<path d="M4770 4547 c0 -31 28 -57 40 -37 11 18 -3 54 -24 58 -11 3 -16 -4
-16 -21z"/>
<path d="M4934 4400 c-52 -21 -87 -94 -68 -144 10 -27 24 -18 18 12 -8 39 11
79 48 102 42 25 63 25 89 -1 16 -16 20 -30 17 -61 -3 -34 -2 -37 9 -22 23 31
11 95 -21 116 -15 10 -66 9 -92 -2z"/>
<path d="M5667 4663 c-4 -3 -7 -12 -7 -20 0 -10 4 -11 19 -1 22 14 51 -3 51
-30 0 -12 3 -13 11 -5 18 18 -15 63 -45 63 -12 0 -26 -3 -29 -7z"/>
<path d="M5680 4620 c0 -5 7 -10 15 -10 8 0 15 5 15 10 0 6 -7 10 -15 10 -8 0
-15 -4 -15 -10z"/>
<path d="M5300 3421 c0 -7 7 -25 15 -40 8 -16 19 -48 24 -72 10 -42 9 -45 -25
-80 -49 -50 -26 -64 24 -16 21 20 55 40 80 47 52 13 58 35 6 26 -19 -4 -42
-10 -49 -12 -10 -4 -12 0 -8 16 7 26 -22 102 -47 125 -13 11 -20 14 -20 6z"/>
<path d="M4988 4143 c-3 -4 -2 -21 1 -37 5 -26 7 -27 19 -13 8 9 12 24 10 33
-3 19 -24 30 -30 17z"/>
<path d="M4900 1726 c-58 -15 -193 -90 -240 -132 -67 -61 -122 -195 -136 -329
-9 -83 15 -201 77 -382 87 -254 175 -412 305 -545 113 -115 220 -161 418 -179
140 -13 212 -8 289 21 76 29 142 102 182 201 26 67 29 88 33 211 5 159 -12
255 -78 468 -65 206 -148 348 -284 484 -117 116 -303 197 -452 195 -38 0 -89
-6 -114 -13z m244 -32 c33 -9 100 -36 149 -61 72 -37 102 -61 172 -135 47 -50
85 -94 85 -97 0 -4 -24 -31 -54 -60 -48 -47 -59 -53 -100 -55 -59 -2 -96 -30
-114 -87 -8 -24 -22 -48 -31 -54 -9 -5 -52 -10 -96 -10 -44 0 -87 -4 -96 -8
-13 -7 -30 23 -92 165 -70 161 -100 257 -109 358 -3 34 -2 35 42 47 65 17 173
15 244 -3z m-319 -166 c71 -171 164 -378 190 -426 20 -35 22 -44 10 -49 -8 -3
-21 -3 -29 0 -8 3 -63 106 -124 229 -60 123 -121 243 -136 266 -14 23 -26 45
-26 49 0 8 49 42 62 43 3 0 27 -51 53 -112z m-100 -15 c16 -38 74 -162 129
-278 l101 -210 -17 -35 c-10 -19 -18 -50 -18 -69 0 -33 0 -34 -37 -27 -21 4
-86 9 -145 13 l-107 6 -14 36 c-65 163 -77 306 -38 446 22 79 82 185 105 185
6 0 25 -30 41 -67z m890 -215 c15 -26 14 -27 -48 -71 -34 -25 -102 -79 -152
-121 l-90 -75 -17 22 c-10 12 -18 26 -18 31 0 5 62 73 138 150 l137 141 18
-25 c10 -14 24 -37 32 -52z m-228 -55 c-9 -10 -30 -26 -47 -37 -32 -18 -32
-18 -21 2 13 25 50 52 70 52 12 0 11 -3 -2 -17z m277 -40 c13 -27 35 -81 50
-121 l26 -73 -62 -28 c-91 -41 -277 -103 -289 -96 -14 9 -11 41 5 54 9 8 28
10 49 6 45 -9 91 15 113 57 12 23 15 51 12 110 l-3 79 35 29 c19 16 36 30 37
30 2 0 13 -21 27 -47z m-119 -84 c6 -26 -13 -46 -162 -161 -8 -7 -17 0 -27 21
l-16 30 91 76 c50 42 95 73 100 68 4 -4 10 -20 14 -34z m-255 6 c-13 -14 -28
-25 -34 -25 -11 1 40 50 51 50 4 0 -4 -11 -17 -25z m-85 -37 c31 -14 31 -20 3
-53 l-23 -25 -60 24 c-61 25 -81 50 -48 59 35 9 103 7 128 -5z m79 -57 c16
-18 15 -20 -15 -45 -30 -26 -32 -26 -50 -10 -19 17 -19 18 8 46 32 33 35 34
57 9z m245 -8 c-20 -28 -41 -43 -58 -43 -9 0 -2 12 19 30 39 33 60 39 39 13z
m-394 -37 c52 -28 96 -92 102 -148 11 -92 -54 -176 -114 -149 -25 11 -31 31
-10 31 27 0 57 40 57 76 0 45 -31 106 -64 123 -34 19 -106 8 -127 -18 -21 -26
-29 -17 -29 30 0 30 6 42 28 57 52 37 86 37 157 -2z m200 -26 c31 -59 7 -190
-36 -198 -13 -2 -17 10 -22 62 -3 36 -11 76 -18 88 -10 19 -8 25 22 49 19 16
35 29 36 29 1 0 9 -13 18 -30z m430 -49 c10 -38 10 -53 1 -60 -20 -17 -165
-73 -276 -107 -97 -30 -107 -31 -133 -17 -27 14 -28 15 -12 33 9 10 24 33 33
50 15 28 31 36 147 75 72 24 150 52 175 63 25 11 46 18 48 17 2 -2 9 -26 17
-54z m-662 -29 c28 -30 38 -69 21 -82 -7 -7 -14 -21 -14 -31 0 -15 -8 -19 -39
-19 -22 0 -48 8 -61 18 -19 16 -21 24 -15 60 11 64 71 95 108 54z m-299 -13
c149 -13 172 -26 84 -49 -29 -7 -84 -26 -122 -42 -38 -15 -73 -25 -77 -21 -10
10 -49 110 -49 124 0 6 6 9 14 6 7 -3 75 -11 150 -18z m151 -75 c2 -29 20 -57
44 -67 15 -7 42 -25 60 -40 28 -24 33 -33 28 -60 -6 -36 -103 -267 -118 -282
-31 -29 -274 320 -256 367 3 8 34 25 69 37 34 12 83 31 108 41 46 19 65 20 65
4z m839 -143 c1 -76 -2 -142 -6 -147 -4 -4 -45 15 -90 42 -46 26 -120 68 -166
92 -46 24 -82 46 -80 48 2 2 56 21 119 43 62 22 134 48 159 59 25 11 49 16 54
11 5 -5 10 -71 10 -148z m-388 20 c71 -35 170 -87 219 -116 50 -28 105 -58
123 -65 37 -14 39 -28 12 -88 l-19 -43 -43 27 c-55 35 -172 116 -325 226 -100
73 -120 91 -116 108 3 12 9 20 12 18 4 -2 65 -32 137 -67z m-25 -99 c117 -88
233 -168 296 -203 24 -13 43 -29 43 -36 0 -26 -94 -93 -158 -113 -92 -28 -276
-28 -383 1 -121 32 -117 18 -54 213 30 93 55 174 55 181 0 21 24 35 60 35 30
0 55 -14 141 -78z m-221 55 c0 -38 -115 -347 -130 -347 -4 0 -15 9 -25 20 -17
19 -17 21 7 72 14 29 42 101 64 160 34 93 42 108 62 108 12 0 22 -6 22 -13z"/>
<path d="M8195 1093 c-33 -2 -64 -8 -69 -14 -6 -5 72 -9 210 -8 134 0 211 4
198 9 -26 10 -255 19 -339 13z"/>
<path d="M7840 932 c0 -67 73 -103 206 -101 l79 1 -90 14 c-108 17 -154 39
-177 85 l-17 34 -1 -33z"/>
<path d="M8616 931 c-9 -16 -33 -47 -54 -67 l-37 -38 35 20 c33 19 89 99 77
111 -3 2 -13 -9 -21 -26z"/>
<path d="M1497 7480 c-65 -51 -75 -190 -21 -297 55 -109 107 -117 141 -21 21
64 24 229 4 268 -37 69 -78 86 -124 50z m72 -29 c11 -11 23 -41 27 -67 7 -49
0 -201 -12 -242 -22 -78 -114 79 -114 194 0 51 12 86 40 114 25 25 35 25 59 1z"/>
<path d="M1726 7249 c-30 -36 -39 -63 -34 -110 2 -26 8 -35 24 -37 31 -4 82
43 94 88 22 83 -32 121 -84 59z m54 -49 c-10 -34 -46 -80 -63 -80 -20 0 1 82
29 111 34 35 49 21 34 -31z"/>
<path d="M1264 7122 c-6 -4 -16 -16 -22 -28 -24 -46 45 -95 137 -96 95 -1 128
33 77 81 -40 37 -160 65 -192 43z m154 -42 c24 -11 42 -25 40 -32 -6 -18 -58
-29 -106 -23 -46 7 -100 45 -88 63 11 19 106 14 154 -8z"/>
<path d="M6655 6965 c-47 -46 -19 -115 46 -115 37 0 89 50 89 85 0 57 -89 77
-135 30z m103 -26 c2 -19 -4 -33 -24 -48 -32 -25 -47 -26 -68 -5 -21 21 -20
40 5 65 14 14 30 19 52 17 26 -2 33 -8 35 -29z"/>
<path d="M2338 6606 c-94 -34 -366 -208 -538 -344 -414 -329 -1008 -1159
-1425 -1992 -146 -292 -332 -702 -365 -803 -23 -73 -4 -57 29 25 137 339 415
906 611 1243 299 517 660 1017 950 1319 167 174 455 388 686 511 59 31 74 35
142 35 133 -1 202 -49 202 -141 0 -62 -20 -111 -115 -284 -246 -447 -450 -825
-501 -926 -53 -108 -60 -118 -94 -128 -63 -19 -129 -70 -160 -125 -49 -84 -38
-183 23 -229 16 -11 16 -18 -7 -97 -50 -174 -61 -246 -61 -420 l0 -165 33 -68
c67 -135 175 -187 386 -187 181 1 275 21 494 109 125 50 217 96 432 214 147
82 170 92 225 95 50 3 65 0 88 -18 22 -18 27 -29 27 -68 0 -97 -77 -216 -313
-485 -86 -98 -176 -204 -200 -235 -163 -212 -326 -548 -392 -807 -45 -177 -55
-411 -23 -545 18 -77 76 -186 129 -244 88 -97 197 -136 380 -136 134 0 213 17
384 82 103 39 117 42 213 42 91 1 105 -1 118 -18 44 -61 -19 -150 -218 -303
-192 -148 -298 -289 -461 -611 -161 -317 -222 -495 -232 -676 -7 -118 10 -219
37 -224 15 -3 15 1 1 49 -21 72 -13 256 16 362 50 183 208 524 341 735 97 154
169 233 334 366 165 133 216 194 216 255 0 27 -7 44 -26 62 -24 22 -33 24
-127 23 -98 0 -108 -3 -239 -52 -152 -57 -223 -72 -348 -72 -163 0 -264 35
-355 121 -100 95 -145 209 -152 390 -12 281 41 493 208 835 86 178 186 326
328 488 194 221 254 295 306 371 113 168 126 279 37 321 -67 31 -112 17 -402
-129 -258 -130 -451 -210 -588 -244 -48 -12 -112 -17 -227 -17 -143 -1 -166 2
-215 22 -67 26 -135 90 -164 152 -16 35 -21 71 -24 163 -5 150 9 272 50 420
l33 119 63 3 c215 14 342 230 203 348 -17 14 -47 29 -66 33 -19 3 -35 10 -35
15 0 5 19 46 41 92 39 77 89 170 420 778 184 337 199 372 199 441 0 52 -3 62
-35 97 -59 65 -183 90 -277 57z m-270 -1533 c36 -27 56 -82 47 -130 -9 -50
-93 -133 -151 -151 -49 -14 -148 -16 -173 -2 -47 24 -52 129 -10 197 25 41 76
80 126 99 50 19 127 12 161 -13z"/>
<path d="M64 5849 c14 -11 26 -29 26 -40 0 -15 5 -18 24 -13 30 7 64 -10 76
-39 7 -17 9 -18 9 -4 1 25 -35 57 -65 57 -16 0 -35 11 -51 30 -13 17 -29 30
-35 30 -6 0 1 -9 16 -21z"/>
<path d="M22 5590 c-32 -13 -28 -16 17 -12 46 5 81 -23 81 -63 0 -19 4 -23 17
-18 11 4 12 8 5 11 -7 2 -12 12 -12 21 0 21 -36 56 -65 64 -11 3 -30 2 -43 -3z"/>
<path d="M237 5513 c-4 -3 -24 -6 -44 -5 -37 1 -37 1 -13 -11 21 -11 29 -11
46 0 16 10 28 11 50 3 16 -6 25 -7 19 -2 -14 14 -50 23 -58 15z"/>
<path d="M10942 5339 c-80 -39 -102 -71 -102 -142 0 -45 6 -63 33 -103 43 -64
76 -86 135 -92 96 -9 218 52 257 129 21 39 19 117 -4 159 -32 62 -71 80 -171
80 -77 0 -94 -4 -148 -31z m250 -15 c56 -29 77 -130 39 -188 -43 -64 -162
-116 -236 -102 -90 17 -159 140 -121 214 42 81 223 124 318 76z"/>
<path d="M11571 5277 c-57 -29 -51 -81 14 -111 68 -32 165 5 150 57 -12 39
-52 67 -98 67 -23 0 -53 -6 -66 -13z m117 -23 c12 -8 22 -24 22 -34 0 -24 -37
-50 -72 -50 -33 0 -95 51 -84 69 20 31 98 40 134 15z"/>
<path d="M1645 4676 c-16 -8 -46 -30 -65 -50 -27 -29 -35 -45 -35 -75 0 -55
18 -71 76 -71 39 0 55 5 81 29 29 25 32 34 32 86 1 48 -3 60 -23 76 -27 22
-27 22 -66 5z m59 -32 c23 -59 -16 -136 -75 -149 -39 -9 -59 9 -59 52 0 66
114 149 134 97z"/>
<path d="M1349 4331 c-42 -35 -86 -112 -95 -168 -13 -81 47 -152 102 -122 32
17 80 84 99 140 18 50 20 150 3 167 -21 21 -71 14 -109 -17z m89 -55 c3 -50
-2 -70 -27 -121 -17 -33 -42 -72 -56 -85 l-27 -25 -24 28 c-48 55 -15 172 67
241 48 41 63 32 67 -38z"/>
<path d="M1552 3823 c-80 -109 -156 -231 -206 -331 -143 -286 -365 -871 -490
-1292 -107 -361 -216 -897 -231 -1135 -4 -73 1 -53 25 103 82 537 198 995 372
1477 216 597 336 863 497 1104 90 134 94 141 88 141 -3 0 -28 -30 -55 -67z"/>
<path d="M1781 3555 c-208 -473 -348 -979 -416 -1510 -8 -65 -14 -133 -14
-150 1 -16 6 -1 11 35 88 614 198 1042 395 1529 79 196 94 254 24 96z"/>
<path d="M12500 3107 c0 -2 15 -16 33 -33 l32 -29 -29 33 c-28 30 -36 37 -36
29z"/>
<path d="M442 2702 c-63 -23 -116 -64 -157 -121 -27 -38 -30 -51 -30 -114 0
-80 29 -155 83 -214 62 -67 182 -54 265 29 69 69 101 143 105 243 3 90 -12
133 -61 169 -39 29 -136 32 -205 8z m177 -36 c37 -20 51 -55 51 -134 0 -86
-37 -169 -103 -229 -125 -115 -277 -26 -277 162 0 53 4 68 29 102 53 73 127
111 219 112 29 1 65 -5 81 -13z"/>
<path d="M2900 2131 c-103 -32 -168 -112 -155 -192 9 -51 45 -83 91 -81 90 3
211 62 253 121 43 60 39 121 -9 146 -31 16 -135 19 -180 6z m170 -39 c28 -23
23 -55 -16 -101 -54 -65 -232 -125 -262 -88 -37 44 -16 124 43 163 70 46 194
59 235 26z"/>
<path d="M181 2060 c-35 -8 -51 -24 -51 -51 0 -44 64 -48 115 -8 30 24 32 45
6 59 -22 11 -22 11 -70 0z m49 -35 c-13 -16 -70 -21 -70 -6 0 11 23 18 59 20
20 1 21 -1 11 -14z"/>
<path d="M390 1880 c-60 -20 -120 -76 -120 -110 0 -12 11 -32 25 -46 23 -22
31 -25 68 -19 91 16 167 78 167 139 0 60 -41 71 -140 36z m103 -40 c-6 -51
-111 -110 -169 -96 -78 20 54 130 146 123 20 -2 25 -7 23 -27z"/>
<path d="M1342 1830 c0 -19 2 -27 5 -17 2 9 2 25 0 35 -3 9 -5 1 -5 -18z"/>
<path d="M2868 1829 c-21 -12 -24 -49 -6 -67 17 -17 79 -15 106 4 27 19 29 50
3 64 -25 13 -81 13 -103 -1z m102 -28 c0 -22 -19 -31 -65 -31 -35 0 -51 20
-32 39 6 6 30 11 54 11 36 0 43 -3 43 -19z"/>
<path d="M8452 1577 c-10 -11 -9 -17 2 -26 23 -19 61 -10 61 14 0 25 -46 33
-63 12z"/>
<path d="M2866 1438 c-184 -168 -359 -395 -524 -679 -188 -325 -395 -739 -378
-756 3 -3 18 23 33 58 51 119 155 323 261 514 231 415 345 575 591 828 58 59
103 107 100 107 -2 0 -39 -33 -83 -72z"/>
<path d="M8216 1474 c-9 -22 17 -49 39 -40 10 3 15 15 13 28 -4 29 -42 37 -52
12z"/>
<path d="M11615 1270 c32 -249 31 -555 -4 -721 -28 -129 -81 -303 -134 -435
-25 -60 -42 -111 -40 -114 10 -11 34 37 77 156 94 255 134 433 143 634 6 150
-9 375 -32 460 -8 31 -13 40 -10 20z"/>
<path d="M2901 1008 c-135 -280 -258 -611 -332 -886 -34 -126 -33 -167 1 -50
105 362 208 646 321 885 79 167 99 213 93 213 -3 0 -41 -73 -83 -162z"/>
<path d="M9278 1048 c-9 -16 -13 -67 -13 -163 0 -153 5 -170 67 -240 35 -41
87 -70 141 -80 48 -9 209 4 201 16 -3 5 -49 9 -102 9 -111 0 -178 23 -224 78
-51 61 -61 107 -56 262 2 77 3 140 2 140 -2 0 -9 -10 -16 -22z"/>
<path d="M611 934 c0 -11 3 -14 6 -6 3 7 2 16 -1 19 -3 4 -6 -2 -5 -13z"/>
<path d="M6916 594 c-10 -26 -7 -34 12 -34 24 0 42 19 35 36 -7 19 -39 18 -47
-2z"/>
<path d="M8902 581 c-30 -4 -57 -13 -62 -21 -26 -41 4 -103 56 -116 65 -16
215 20 234 57 14 24 12 63 -2 77 -13 13 -131 14 -226 3z m217 -25 c30 -36 -19
-64 -129 -73 -75 -6 -79 -5 -105 21 -14 15 -25 32 -22 39 7 24 237 36 256 13z"/>
<path d="M4404 545 c-3 -8 -3 -19 1 -25 9 -15 65 -13 65 3 0 33 -55 51 -66 22z"/>
<path d="M6471 500 c-16 -9 -6 -30 15 -30 15 0 20 25 6 34 -4 2 -14 1 -21 -4z"/>
<path d="M7272 398 c-29 -29 -2 -72 40 -66 42 6 32 78 -11 78 -9 0 -22 -5 -29
-12z"/>
<path d="M3524 385 c-9 -21 6 -67 24 -73 18 -6 16 63 -3 78 -12 10 -16 9 -21
-5z"/>
<path d="M6724 355 c-8 -21 4 -35 31 -35 29 0 41 16 25 35 -16 19 -49 19 -56
0z"/>
<path d="M10369 335 c43 -49 61 -120 61 -237 0 -103 14 -131 26 -52 8 53 -1
161 -18 218 -13 41 -66 106 -88 106 -7 0 2 -16 19 -35z"/>
<path d="M8688 324 c-11 -10 3 -34 19 -34 8 0 13 7 11 17 -3 18 -20 27 -30 17z"/>
<path d="M3905 300 c-3 -6 1 -13 10 -16 19 -8 30 0 20 15 -8 14 -22 14 -30 1z"/>
<path d="M4743 274 c-7 -19 11 -39 26 -30 16 10 13 33 -4 40 -9 3 -18 -1 -22
-10z"/>
<path d="M8412 258 c5 -15 37 -18 41 -3 1 6 -9 12 -22 13 -16 3 -22 -1 -19
-10z"/>
<path d="M10195 162 c-4 -31 -16 -79 -26 -107 -23 -60 -22 -55 -4 -55 21 0 45
65 52 141 7 84 -12 103 -22 21z"/>
<path d="M3780 136 c0 -17 27 -29 35 -16 4 6 3 15 0 20 -9 15 -35 12 -35 -4z"/>
<path d="M8195 130 c-3 -5 1 -10 9 -10 9 0 16 5 16 10 0 6 -4 10 -9 10 -6 0
-13 -4 -16 -10z"/>
<path d="M8577 114 c-14 -14 -6 -24 19 -24 16 0 24 5 22 13 -5 14 -31 21 -41
11z"/>
<path d="M3525 100 c3 -5 8 -10 11 -10 2 0 4 5 4 10 0 6 -5 10 -11 10 -5 0 -7
-4 -4 -10z"/>
</g>
</svg>
