<?xml version="1.0" standalone="no"?>
<!DOCTYPE svg PUBLIC "-//W3C//DTD SVG 20010904//EN"
 "http://www.w3.org/TR/2001/REC-SVG-20010904/DTD/svg10.dtd">
<svg version="1.0" xmlns="http://www.w3.org/2000/svg"
 width="1280.000000pt" height="890.000000pt" viewBox="0 0 1280.000000 890.000000"
 preserveAspectRatio="xMidYMid meet">
<metadata>
Created by potrace 1.15, written by Peter Selinger 2001-2017
</metadata>
<g transform="translate(0.000000,890.000000) scale(0.100000,-0.100000)"
fill="#000000" stroke="none">
<path d="M6505 8894 c-174 -17 -258 -28 -380 -49 -108 -18 -194 -25 -375 -30
-257 -7 -498 -25 -715 -55 -77 -11 -261 -36 -409 -55 -551 -72 -1031 -166
-1511 -296 -114 -31 -128 -32 -300 -32 -220 -1 -269 7 -610 93 -446 113 -662
161 -780 170 -142 12 -987 12 -1131 1 -111 -10 -270 -43 -288 -61 -21 -21 6
-21 86 -1 46 12 115 24 153 26 l70 5 -60 -14 c-63 -15 -210 -66 -241 -85 -35
-19 6 -11 69 14 123 51 212 67 353 67 123 -1 136 -3 235 -37 340 -119 475
-156 820 -226 344 -69 451 -79 839 -79 288 0 354 7 627 70 98 23 295 65 438
95 143 30 364 77 492 105 292 63 372 70 865 70 l397 0 143 30 c79 17 253 59
388 94 l245 64 125 -9 c69 -4 206 -17 305 -28 169 -20 273 -27 950 -66 437
-26 429 -24 995 -165 225 -56 351 -82 470 -94 192 -21 694 -29 1810 -31 1466
-1 1300 11 1988 -145 122 -27 225 -50 227 -50 3 0 5 7 5 15 0 8 -3 15 -6 15
-4 0 -125 27 -270 60 -635 144 -634 144 -1809 135 -1199 -9 -1838 7 -2100 51
-49 8 -169 35 -265 60 -96 25 -231 59 -300 75 l-125 29 185 -6 c102 -3 325
-11 495 -19 171 -8 438 -17 595 -20 348 -8 448 -16 755 -60 385 -55 436 -59
790 -59 299 1 360 4 640 33 361 37 588 65 1030 126 176 24 333 45 350 47 19 2
31 9 33 21 5 25 -24 23 -385 -28 -678 -95 -1105 -141 -1468 -156 -332 -15
-572 -2 -946 50 -388 55 -441 59 -779 66 -162 3 -383 10 -490 15 -107 6 -321
15 -475 20 -514 19 -544 22 -745 86 -176 56 -286 84 -480 124 -82 17 -147 23
-295 25 -104 2 -208 1 -230 -1z m584 -63 c146 -31 435 -112 449 -126 4 -4 -20
-4 -53 -1 -33 3 -229 15 -435 26 -360 20 -884 65 -925 80 -13 5 20 13 95 24
219 32 256 34 485 32 215 -3 240 -5 384 -35z m-1320 -61 c-24 -14 -301 -85
-464 -119 -139 -29 -143 -29 -575 -35 -280 -3 -424 -2 -405 4 30 10 780 110
970 131 55 5 170 14 255 18 230 12 238 12 219 1z m-4246 -175 c48 -9 275 -63
504 -120 447 -112 545 -131 723 -143 l115 -8 -90 -17 c-158 -31 -397 -41 -690
-29 -274 12 -326 19 -762 108 -155 31 -440 112 -563 159 -52 20 -117 43 -145
50 -79 22 784 21 908 0z"/>
<path d="M5885 8380 c-416 -17 -593 -30 -800 -60 -115 -16 -298 -34 -405 -40
-235 -13 -309 -21 -506 -60 -175 -35 -652 -152 -834 -205 -301 -87 -300 -87
-585 -92 -269 -5 -740 10 -880 28 -129 16 -198 37 -416 125 -234 94 -302 114
-502 146 -191 30 -624 32 -812 4 -108 -16 -179 -35 -135 -35 8 -1 53 6 100 14
119 21 534 31 683 16 160 -16 338 -47 417 -73 36 -11 139 -52 230 -90 326
-137 391 -147 1045 -155 537 -6 526 -7 825 79 328 94 822 211 1020 243 58 9
209 23 337 30 128 8 328 28 445 44 160 23 296 34 547 46 481 22 621 20 852
-11 257 -34 706 -43 1096 -23 148 8 426 14 618 14 401 0 393 1 738 -96 200
-57 390 -107 488 -128 26 -6 122 -20 215 -31 106 -13 256 -41 401 -76 466
-110 945 -135 1512 -79 330 32 587 44 944 45 251 0 277 2 277 17 0 15 -31 16
-402 10 -416 -7 -516 -13 -872 -48 -179 -18 -257 -20 -535 -16 -445 6 -603 24
-979 116 -90 22 -240 49 -335 61 -237 29 -310 46 -712 160 -313 89 -338 93
-630 98 -171 3 -370 -2 -580 -13 -443 -24 -1012 -17 -1235 13 -192 27 -364 33
-635 22z"/>
<path d="M6971 8149 c-46 -5 -177 -23 -290 -40 -349 -51 -354 -51 -851 -43
-256 4 -622 7 -815 7 -332 1 -359 0 -525 -26 -96 -15 -260 -36 -365 -47 -227
-25 -335 -46 -515 -100 -234 -71 -291 -84 -775 -174 -171 -32 -208 -36 -360
-36 -179 0 -216 3 -575 51 -254 34 -273 38 -535 120 -233 72 -341 96 -511 111
-222 19 -672 -13 -805 -57 -24 -8 -33 -13 -19 -10 269 47 352 55 620 55 307 0
405 -17 743 -126 209 -68 249 -76 572 -120 199 -27 308 -37 465 -41 l205 -5
280 51 c360 67 473 93 674 152 206 62 315 84 511 105 85 9 247 29 360 46 184
27 238 31 520 35 200 3 355 1 425 -6 176 -18 659 -25 852 -12 95 6 277 27 405
45 304 45 426 56 639 56 233 0 363 -23 818 -145 247 -66 290 -73 606 -103 259
-23 332 -26 675 -25 274 0 436 6 560 17 236 23 267 18 480 -64 450 -175 619
-227 800 -250 135 -16 588 -13 695 6 139 24 315 68 563 140 125 36 244 71 265
76 20 6 37 16 37 23 0 9 -64 -6 -202 -46 -255 -75 -515 -142 -638 -166 -135
-26 -647 -25 -795 1 -122 21 -310 83 -657 217 l-263 101 -140 -5 c-77 -4 -196
-11 -265 -17 -69 -6 -271 -12 -450 -13 -279 -1 -369 3 -639 26 -347 31 -367
34 -661 112 -113 30 -277 71 -365 91 -160 37 -160 37 -415 40 -140 1 -293 -2
-339 -7z"/>
<path d="M3407 6945 c-124 -24 -264 -85 -517 -226 -428 -238 -608 -320 -837
-379 -129 -33 -143 -32 -169 14 -12 21 -33 52 -47 67 -51 58 -137 30 -242 -79
l-50 -52 -185 0 c-205 0 -286 10 -530 66 -214 49 -412 104 -634 175 -103 33
-190 58 -193 55 -13 -13 530 -173 797 -234 245 -56 339 -70 543 -78 97 -3 177
-8 177 -10 0 -3 -22 -35 -50 -73 -132 -181 -246 -439 -284 -641 -21 -111 -22
-469 -1 -597 38 -235 127 -413 272 -542 30 -27 50 -51 45 -54 -17 -11 -248
-66 -342 -81 -163 -27 -360 -46 -481 -46 l-116 0 -7 46 c-12 88 -7 327 8 385
8 30 38 102 66 160 51 103 52 105 47 180 -7 105 -42 169 -93 169 -45 0 -121
-48 -148 -94 -70 -119 -126 -353 -126 -525 0 -59 -3 -156 -7 -216 l-6 -108
-76 7 c-42 3 -107 13 -145 21 -38 8 -72 13 -74 11 -7 -8 78 -27 184 -41 57 -7
107 -16 112 -19 5 -3 12 -38 15 -78 3 -40 19 -158 36 -263 16 -104 35 -245 41
-312 7 -81 23 -164 45 -245 30 -106 93 -483 83 -493 -4 -5 -194 79 -372 164
-71 34 -131 59 -134 56 -6 -6 278 -143 416 -201 l92 -39 0 -262 c0 -244 2
-269 26 -380 38 -171 36 -260 -10 -451 -59 -248 -66 -315 -77 -712 l-9 -365
-34 -105 c-47 -145 -66 -253 -66 -380 0 -119 4 -140 29 -140 14 0 16 13 13
113 -4 136 12 238 61 397 l36 115 10 365 c11 397 19 473 76 708 46 190 47 286
5 472 -32 141 -36 232 -21 497 l6 111 80 -32 80 -32 7 -186 c7 -214 17 -289
54 -414 42 -143 46 -169 47 -374 2 -202 -7 -285 -54 -495 -40 -175 -50 -252
-56 -405 -5 -145 -3 -170 30 -375 19 -121 40 -260 47 -310 19 -153 19 -155 40
-155 16 0 19 5 15 28 -3 15 -12 83 -21 152 -8 69 -28 203 -45 298 -45 267 -38
479 25 757 48 211 59 321 53 545 -3 150 -9 220 -21 260 -62 208 -67 239 -73
448 -5 169 -4 202 8 202 8 0 75 -22 149 -49 l135 -48 6 -329 c6 -331 9 -365
53 -639 41 -251 50 -360 51 -610 l0 -240 -38 -120 c-21 -66 -50 -156 -64 -200
-23 -71 -27 -100 -31 -267 -2 -118 0 -188 6 -188 5 0 12 72 15 173 5 185 8
198 88 443 45 138 58 224 59 378 0 207 -15 357 -86 836 -22 148 -32 752 -13
746 102 -32 245 -79 250 -82 4 -2 0 -41 -7 -86 -17 -102 -18 -469 -3 -659 6
-73 26 -226 45 -338 28 -171 34 -230 34 -357 0 -133 -4 -168 -29 -276 -48
-205 -81 -415 -81 -518 0 -146 37 -287 66 -257 3 3 -1 40 -10 82 -33 159 -11
394 66 706 20 82 23 117 22 274 -1 150 -6 204 -28 321 -46 242 -56 350 -63
637 -4 208 -3 300 7 363 7 47 16 87 20 89 4 2 29 -3 56 -11 214 -66 273 -76
480 -81 377 -10 496 16 1267 280 307 105 451 146 523 148 33 1 57 -10 149 -72
172 -116 759 -406 1035 -512 626 -241 1385 -434 1960 -501 292 -34 474 -40
786 -28 411 16 428 18 1524 178 203 29 347 55 570 104 124 26 261 53 305 59
320 46 538 141 725 317 69 65 246 272 257 301 4 10 46 13 177 15 l171 1 -153
7 c-84 4 -155 10 -158 12 -2 3 19 43 48 89 98 158 117 234 138 559 6 85 17
209 25 275 17 140 20 493 5 670 -13 143 -42 331 -74 473 l-23 102 26 1 c26 1
26 1 -3 8 -26 5 -30 14 -53 91 -84 296 -148 431 -331 706 -108 162 -158 227
-219 284 -185 178 -428 296 -758 371 -86 19 -444 74 -663 100 -56 7 -99 16
-95 19 5 4 33 12 63 19 30 7 177 46 325 86 652 177 640 175 1023 175 257 0
376 -8 505 -36 l29 -6 -21 -22 c-25 -26 -27 -73 -5 -104 11 -16 25 -22 53 -22
47 0 81 33 81 78 0 25 4 32 19 32 26 0 221 -68 371 -130 429 -177 630 -249
823 -295 103 -25 289 -46 382 -44 l50 2 -55 7 c-30 5 -88 8 -128 9 -41 1 -120
10 -175 22 -203 41 -348 90 -782 264 -182 73 -368 145 -415 159 -47 15 -94 33
-104 41 -11 8 -39 15 -62 15 -24 0 -76 7 -116 15 -176 38 -653 42 -848 9 -100
-18 -291 -65 -560 -139 -107 -30 -265 -72 -350 -93 l-155 -40 -115 14 c-142
17 -1296 19 -1705 4 -148 -6 -403 -14 -565 -20 l-295 -9 -147 46 c-82 26 -146
49 -143 51 3 3 30 14 61 24 73 25 155 77 173 112 14 25 13 28 -28 70 -25 26
-74 58 -115 78 -66 31 -80 33 -189 36 l-119 4 -160 -52 -160 -52 -111 5 c-72
4 -163 17 -252 37 -573 129 -819 159 -1330 165 -290 4 -375 2 -438 -10z m873
-15 c307 -30 740 -108 1010 -180 l35 -9 0 -103 0 -103 34 -3 c22 -2 50 5 81
22 72 39 135 42 285 13 72 -14 167 -28 213 -31 64 -4 121 -18 240 -58 l157
-52 -131 -22 c-277 -46 -466 -109 -744 -249 -297 -149 -480 -273 -716 -486
-485 -438 -741 -649 -917 -756 l-60 -36 -91 12 c-286 38 -353 44 -586 45 -274
1 -331 -7 -513 -71 -55 -19 -103 -33 -107 -31 -18 6 -190 281 -210 335 -11 30
-43 130 -70 222 -56 190 -95 310 -140 431 -17 47 -43 137 -56 200 -30 137 -52
215 -70 252 -14 27 -14 27 23 34 246 42 506 153 958 409 233 132 353 185 495
216 77 17 118 19 430 14 190 -2 392 -9 450 -15z m1733 -117 c36 -5 38 -8 33
-32 -14 -59 -18 -151 -8 -180 l11 -31 -52 0 c-36 0 -107 18 -227 56 -96 31
-193 61 -214 68 l-40 12 65 18 c35 10 116 36 179 57 115 38 173 46 253 32z
m162 -47 c122 -58 131 -90 43 -142 -75 -45 -125 -61 -140 -46 -28 28 -15 222
16 222 6 0 43 -15 81 -34z m-550 -107 c300 -90 330 -108 107 -64 -155 31 -229
27 -311 -16 -29 -16 -57 -26 -62 -23 -10 6 -12 72 -3 127 l7 37 51 -6 c28 -4
123 -28 211 -55z m5480 1 c23 -9 26 -14 23 -52 -2 -36 -8 -45 -31 -56 -24 -12
-31 -11 -53 2 -32 22 -34 78 -2 100 26 19 29 19 63 6z m-2306 -236 c61 -4 99
-10 90 -14 -26 -15 -523 -109 -684 -130 -222 -29 -516 -40 -805 -30 -273 10
-470 38 -754 108 l-151 37 185 8 c102 4 302 14 445 21 258 13 1431 13 1674 0z
m-7001 -20 c19 -13 62 -82 62 -99 0 -3 -16 -5 -35 -5 -23 0 -33 4 -31 13 3 6
7 26 11 42 9 41 -9 21 -25 -27 l-12 -38 -86 0 -87 1 49 45 c42 38 108 82 126
84 3 0 16 -7 28 -16z m7461 -34 c552 -76 695 -106 905 -192 149 -61 223 -102
325 -179 112 -84 165 -146 312 -366 152 -228 211 -345 278 -548 72 -221 71
-205 14 -207 l-48 -1 50 -6 50 -6 18 -70 c70 -277 99 -553 101 -935 1 -288 0
-296 -22 -337 -12 -24 -32 -49 -45 -57 -66 -42 -358 -71 -637 -64 l-189 5
-101 48 c-79 38 -113 61 -156 107 -31 33 -59 57 -61 54 -14 -14 14 -66 57
-108 59 -57 195 -125 276 -138 77 -13 369 -13 514 0 123 11 245 34 298 56 l32
13 0 -45 c0 -80 -30 -338 -46 -393 -19 -68 -62 -153 -120 -241 -44 -66 -46
-67 -97 -74 -29 -3 -95 -7 -147 -8 -88 -2 -84 -3 43 -8 l137 -5 -72 -90 c-144
-180 -305 -314 -459 -384 -106 -48 -215 -78 -440 -121 -118 -23 -275 -54 -349
-70 -304 -65 -1330 -211 -1720 -245 -356 -31 -870 -18 -1215 30 -510 71 -1202
251 -1750 455 -328 122 -769 331 -945 447 -58 38 -126 82 -152 97 -27 15 -48
32 -48 38 0 14 313 1 445 -18 206 -29 431 -100 1075 -339 700 -259 1018 -364
1435 -473 379 -100 433 -107 790 -106 257 0 320 3 440 22 218 34 454 97 785
210 941 321 1218 411 1395 455 193 48 393 86 468 89 l42 1 -37 4 c-53 6 -260
-31 -470 -83 -196 -48 -465 -135 -1078 -346 -465 -161 -575 -196 -755 -244
-449 -119 -947 -137 -1340 -49 -388 87 -882 241 -1509 472 -626 231 -680 250
-806 291 -295 96 -445 122 -715 128 l-210 4 -100 62 c-391 241 -800 545 -991
735 -68 68 -75 73 -116 73 -34 0 -60 -11 -128 -51 -198 -120 -331 -174 -490
-198 -176 -27 -196 -24 -68 8 100 26 294 102 386 152 81 43 161 102 237 174
63 59 40 48 -50 -25 -38 -31 -90 -70 -115 -87 -115 -78 -364 -180 -506 -207
-161 -30 -168 -30 -289 19 -60 24 -103 44 -95 44 58 3 302 35 380 51 127 26
298 83 390 131 41 21 129 80 194 129 136 103 133 100 119 100 -5 0 -61 -38
-124 -85 -63 -47 -152 -105 -199 -129 -148 -76 -352 -131 -600 -161 -191 -23
-222 -21 -309 24 l-74 38 169 7 c192 8 230 15 477 91 200 62 315 114 467 210
178 113 158 111 -35 -3 -180 -107 -255 -137 -530 -217 -171 -50 -271 -63 -486
-64 l-106 -1 -48 48 c-53 52 -84 110 -85 159 0 27 7 37 46 64 113 78 309 146
556 193 69 14 152 35 185 49 163 67 193 81 193 89 0 15 -37 8 -125 -21 l-87
-30 -56 25 c-32 14 -92 48 -135 76 -61 40 -75 53 -63 60 11 6 32 -2 73 -30 83
-55 154 -95 159 -89 3 3 -38 33 -92 68 l-97 63 49 23 c27 12 55 22 62 22 6 1
52 -31 101 -69 119 -95 136 -89 21 7 l-92 77 43 22 44 22 55 -51 c61 -56 128
-103 135 -95 3 3 -18 24 -47 46 -29 22 -68 56 -86 75 l-33 34 36 23 37 23 60
-67 c77 -85 96 -86 24 0 -31 36 -56 68 -56 72 0 8 80 56 84 50 2 -2 22 -29 46
-60 23 -32 45 -58 47 -58 5 0 -8 21 -54 90 l-23 35 22 17 c43 33 58 32 90 -4
l30 -33 -23 39 c-24 41 -24 40 34 72 l28 15 25 -56 c32 -70 40 -71 14 -2 -11
28 -20 55 -20 59 0 4 19 18 42 32 34 20 45 23 57 13 12 -9 13 -9 8 0 -6 10 19
33 36 33 3 0 26 -29 52 -65 44 -63 60 -75 67 -56 2 5 63 -8 136 -30 73 -21
183 -48 244 -61 100 -20 118 -21 201 -10 51 6 128 23 172 38 91 30 282 118
414 193 50 28 99 51 109 51 54 0 556 -107 802 -172 154 -40 564 -156 650 -183
l45 -15 0 -287 c1 -266 3 -300 27 -440 63 -357 114 -529 218 -738 83 -167 128
-223 253 -306 200 -134 396 -208 707 -268 180 -35 514 -71 655 -71 250 0 677
65 900 137 164 53 366 196 483 342 85 108 95 124 138 223 l34 80 0 191 c0 216
-2 228 -81 485 -28 92 -58 190 -65 217 -18 66 -63 400 -66 494 l-3 75 63 24
c34 14 60 27 58 29 -2 2 -27 -5 -55 -17 -28 -11 -57 -20 -64 -20 -9 0 -17 34
-25 108 -15 135 -63 317 -102 391 -81 152 -326 442 -444 526 -155 109 -366
188 -589 220 -426 61 -939 -64 -1357 -329 -135 -85 -237 -189 -377 -385 -147
-204 -245 -401 -285 -571 -12 -55 -26 -90 -33 -90 -7 0 -80 20 -162 44 -421
126 -839 231 -1138 286 -204 38 -194 27 -90 97 198 133 264 189 954 806 186
166 561 386 871 510 185 74 517 147 668 147 31 0 79 -7 106 -15 68 -21 349
-81 492 -105 189 -32 510 -45 812 -31 327 14 565 48 957 135 83 18 156 34 164
35 7 0 147 -17 310 -39z m-7371 -117 c21 -43 52 -156 77 -283 10 -47 31 -119
48 -160 20 -49 31 -94 32 -130 3 -128 18 -259 36 -315 10 -33 21 -91 25 -130
5 -57 95 -357 149 -496 8 -21 -61 -67 -76 -52 -15 15 -139 337 -160 417 -11
41 -25 154 -34 275 -9 113 -22 268 -30 345 -8 76 -15 175 -16 220 -1 73 -2 77
-11 43 -7 -27 -5 -86 6 -210 9 -94 23 -262 32 -372 8 -110 21 -232 30 -272 8
-40 49 -158 90 -262 41 -105 74 -195 74 -199 0 -5 -18 -18 -39 -30 l-39 -22
-66 118 c-190 347 -222 509 -233 1176 -6 393 -9 376 54 376 28 0 35 -6 51 -37z
m-122 -306 c1 -226 6 -387 17 -505 31 -323 63 -429 211 -700 37 -68 64 -127
61 -132 -10 -16 -66 -42 -80 -37 -19 8 -133 163 -164 226 -16 31 -41 92 -56
136 -48 143 -142 537 -159 665 -9 69 -26 181 -36 250 -11 69 -20 178 -21 243
-1 106 1 122 20 147 22 31 41 36 146 38 l60 2 1 -333z m-234 -63 c4 -6 19 -98
33 -205 39 -295 143 -704 219 -864 36 -75 73 -130 167 -251 6 -7 -6 -19 -32
-33 l-41 -23 -40 38 c-99 97 -268 403 -308 560 -21 86 -103 488 -131 649 -15
90 -17 95 -18 48 -1 -52 90 -541 129 -698 23 -89 138 -335 202 -429 22 -34 62
-87 89 -118 27 -31 49 -58 49 -61 0 -2 -18 -12 -40 -22 -35 -16 -44 -16 -65
-5 -38 20 -205 197 -252 265 -111 165 -188 384 -234 670 l-19 120 6 -95 c10
-182 70 -406 154 -575 62 -125 123 -206 239 -318 50 -48 91 -90 91 -93 0 -7
-89 -44 -105 -44 -21 0 -161 114 -239 194 -77 79 -106 134 -136 252 -42 170
-54 510 -25 680 30 171 131 421 229 568 l61 91 5 -145 c3 -80 9 -150 12 -156z
m5963 -78 c182 -45 211 -56 330 -123 130 -74 261 -200 401 -385 109 -145 135
-188 165 -277 27 -79 58 -253 61 -345 l3 -80 -63 -24 c-34 -14 -60 -27 -58
-29 2 -2 27 5 55 17 74 29 81 27 81 -18 0 -47 46 -406 61 -470 5 -26 42 -150
80 -277 56 -184 72 -252 80 -340 25 -254 -23 -422 -180 -630 -42 -56 -183
-155 -310 -219 -74 -38 -287 -106 -411 -132 -215 -45 -620 -67 -825 -45 -139
15 -510 75 -635 103 -274 60 -482 176 -596 330 -126 171 -214 390 -278 692
-61 284 -76 413 -76 674 0 128 4 232 9 232 5 0 74 -16 154 -35 80 -19 151 -35
159 -34 7 0 -61 20 -152 43 l-165 42 3 35 c5 50 29 144 59 224 81 223 318 573
474 701 139 114 207 152 404 227 66 25 147 57 180 71 82 33 227 74 344 97 81
16 129 18 301 14 192 -4 214 -7 345 -39z m-5417 -176 c51 -181 150 -486 178
-548 29 -63 87 -218 110 -292 4 -11 -9 -23 -40 -37 -55 -27 -48 -35 -101 127
-20 63 -48 144 -62 180 -13 36 -30 112 -38 170 -8 58 -20 123 -28 145 -8 22
-17 80 -21 130 -4 49 -11 109 -16 133 -9 50 3 44 18 -8z m-1475 -498 c27 -29
39 -74 39 -142 0 -59 -5 -76 -55 -177 -72 -146 -82 -204 -74 -426 l7 -168 -88
3 -87 3 1 240 c0 237 0 241 32 359 43 162 88 256 143 295 49 36 60 38 82 13z
m1827 -323 c0 -11 -38 -22 -50 -14 -9 6 -60 156 -60 178 0 7 25 -26 55 -72 30
-46 55 -87 55 -92z m1017 95 c83 -8 184 -21 225 -28 l73 -12 -55 -32 c-119
-70 -324 -164 -439 -202 -159 -52 -215 -53 -406 -4 -337 87 -307 76 -337 120
-45 64 -42 67 95 112 220 73 448 85 844 46z m-1899 -479 c44 -29 53 -45 26
-45 -24 0 -105 71 -166 147 -83 102 -80 105 13 11 46 -46 103 -97 127 -113z
m44 -114 c35 -21 100 -54 146 -72 45 -18 79 -36 75 -40 -5 -4 -60 -17 -123
-29 -194 -35 -337 -78 -465 -139 -131 -63 -195 -110 -195 -145 0 -12 7 -46 15
-74 13 -43 30 -66 90 -126 81 -80 131 -109 306 -184 208 -89 239 -97 374 -96
228 3 424 63 638 198 69 43 123 70 148 73 39 6 40 5 182 -133 221 -216 374
-334 765 -588 100 -65 181 -121 178 -123 -2 -2 -50 -15 -107 -28 -106 -24
-278 -79 -699 -224 -467 -160 -594 -186 -925 -185 l-240 0 -158 42 c-200 53
-200 53 -193 100 23 158 27 225 16 274 -16 77 -51 169 -67 175 -27 10 -67 -9
-120 -60 -79 -74 -109 -123 -138 -223 -14 -48 -27 -89 -29 -92 -2 -2 -57 16
-123 39 -65 23 -130 46 -144 51 l-26 9 -6 197 c-6 225 -16 282 -87 505 -31
100 -55 195 -64 268 -21 156 -46 411 -46 473 l0 52 183 12 c267 18 554 64 717
116 25 8 48 14 52 15 4 1 35 -16 70 -38z m-1058 -198 c12 -164 46 -464 62
-542 9 -41 27 -104 40 -140 14 -36 39 -118 56 -181 28 -105 31 -132 36 -317 2
-112 2 -203 -1 -203 -6 0 -160 60 -164 64 -1 1 -15 96 -32 211 -17 118 -44
256 -61 315 -20 68 -36 156 -46 250 -8 80 -28 226 -45 325 -16 99 -32 210 -36
248 l-6 67 95 0 96 0 6 -97z m822 -1190 c41 -98 47 -152 30 -283 -9 -68 -18
-125 -20 -128 -6 -6 -254 77 -261 88 -3 4 7 48 21 96 19 66 36 103 68 144 42
54 118 120 137 120 6 0 17 -16 25 -37z"/>
<path d="M3595 6270 c-36 -14 -48 -36 -34 -62 29 -57 64 -72 102 -44 21 16 22
64 1 94 -16 23 -35 26 -69 12z m53 -22 c20 -20 15 -66 -8 -73 -23 -7 -50 10
-50 30 0 8 -6 16 -12 19 -9 3 -7 9 6 20 24 19 48 20 64 4z"/>
<path d="M3316 6010 c-55 -21 -100 -60 -123 -104 -21 -41 -13 -176 15 -239 26
-59 66 -77 167 -77 82 0 115 16 169 83 29 36 31 45 34 130 3 80 0 98 -20 137
-43 82 -139 110 -242 70z m163 -31 c53 -29 64 -53 69 -145 5 -96 -11 -140 -66
-182 -41 -32 -126 -45 -191 -29 -61 14 -80 59 -81 181 l0 89 43 42 c68 65 158
83 226 44z"/>
<path d="M6141 6717 c-13 -17 -6 -43 15 -51 16 -6 27 14 22 40 -4 23 -22 28
-37 11z"/>
<path d="M9898 4913 c100 -2 264 -2 365 0 100 1 18 2 -183 2 -201 0 -283 -1
-182 -2z"/>
<path d="M9578 4903 c18 -2 45 -2 60 0 15 2 0 4 -33 4 -33 0 -45 -2 -27 -4z"/>
<path d="M10588 4903 c23 -2 59 -2 80 0 20 2 1 4 -43 4 -44 0 -61 -2 -37 -4z"/>
<path d="M9483 4893 c9 -2 25 -2 35 0 9 3 1 5 -18 5 -19 0 -27 -2 -17 -5z"/>
<path d="M10767 4893 c18 -2 50 -2 70 0 21 2 7 4 -32 4 -38 0 -55 -2 -38 -4z"/>
<path d="M9413 4883 c9 -2 23 -2 30 0 6 3 -1 5 -18 5 -16 0 -22 -2 -12 -5z"/>
<path d="M10938 4883 c18 -2 45 -2 60 0 15 2 0 4 -33 4 -33 0 -45 -2 -27 -4z"/>
<path d="M9358 4873 c6 -2 18 -2 25 0 6 3 1 5 -13 5 -14 0 -19 -2 -12 -5z"/>
<path d="M9308 4863 c6 -2 18 -2 25 0 6 3 1 5 -13 5 -14 0 -19 -2 -12 -5z"/>
<path d="M9258 4853 c6 -2 18 -2 25 0 6 3 1 5 -13 5 -14 0 -19 -2 -12 -5z"/>
<path d="M9180 4840 c-20 -6 -21 -8 -5 -8 11 0 31 4 45 8 20 6 21 8 5 8 -11 0
-31 -4 -45 -8z"/>
<path d="M9128 4823 c7 -3 16 -2 19 1 4 3 -2 6 -13 5 -11 0 -14 -3 -6 -6z"/>
<path d="M9065 4810 c-13 -5 -14 -9 -5 -9 8 0 24 4 35 9 13 5 14 9 5 9 -8 0
-24 -4 -35 -9z"/>
<path d="M8995 4790 c-13 -5 -14 -9 -5 -9 8 0 24 4 35 9 13 5 14 9 5 9 -8 0
-24 -4 -35 -9z"/>
<path d="M9855 4774 c-56 -31 -116 -86 -150 -138 -65 -97 -84 -253 -45 -363
25 -71 25 -76 -1 -63 -11 6 -25 10 -30 8 -12 -4 140 -127 191 -154 28 -15 56
-19 132 -19 91 0 99 2 140 30 23 17 57 55 75 83 42 71 88 180 79 189 -4 4 -11
1 -16 -7 -6 -10 -10 23 -10 95 0 95 -3 117 -24 162 -35 74 -63 108 -122 149
-45 31 -63 37 -121 41 -50 2 -76 -1 -98 -13z m139 -20 c12 -5 9 -11 -16 -32
-61 -52 -108 -193 -108 -325 0 -106 21 -173 70 -221 35 -36 47 -41 98 -46 l57
-5 -30 -20 c-23 -16 -46 -20 -115 -20 -72 0 -92 4 -128 25 -49 28 -92 87 -123
169 -17 46 -20 72 -17 147 3 78 8 101 36 157 34 68 94 131 154 161 33 16 93
21 122 10z"/>
<path d="M8842 4743 c-57 -19 -102 -37 -99 -39 2 -2 55 14 118 35 63 22 107
39 99 39 -8 0 -61 -15 -118 -35z"/>
<path d="M8685 4685 c-25 -12 -26 -14 -5 -9 28 7 60 23 45 23 -5 0 -23 -6 -40
-14z"/>
<path d="M2180 4169 c-166 -62 -414 -134 -524 -153 -44 -8 -139 -20 -211 -26
-149 -13 -248 -32 -125 -24 276 18 427 45 648 116 121 38 351 124 361 133 11
11 -22 1 -149 -46z"/>
<path d="M2341 4110 c-188 -99 -326 -149 -588 -210 -202 -46 -304 -60 -465
-60 -83 0 -118 -3 -118 -12 0 -15 286 -4 402 17 133 23 444 104 527 137 83 32
277 127 313 152 40 28 5 16 -71 -24z"/>
<path d="M7160 5215 c-31 -18 -57 -19 -63 -2 -3 9 -16 6 -47 -11 -39 -20 -45
-21 -60 -7 -24 22 -40 18 -40 -10 0 -24 -3 -25 -56 -25 -71 0 -150 -41 -98
-52 10 -2 -10 -21 -54 -51 -71 -48 -92 -75 -71 -88 8 -5 2 -21 -20 -53 -40
-58 -70 -124 -71 -153 0 -26 3 -27 31 -13 10 6 19 9 19 6 0 -8 -30 -150 -36
-168 -3 -12 0 -18 9 -18 14 0 27 -58 27 -121 0 -36 17 -38 32 -4 15 33 22 32
54 -12 16 -21 35 -44 43 -51 18 -15 16 -17 -62 -67 -35 -23 -49 -25 -165 -27
l-127 -2 105 -3 c58 -2 115 -5 127 -8 l21 -5 -19 -51 c-33 -87 -47 -165 -74
-414 -31 -293 -56 -452 -78 -485 -35 -55 -50 -186 -26 -231 14 -27 -11 -25
-47 4 -37 29 -172 39 -193 14 -13 -16 -81 -275 -81 -309 0 -11 13 -33 30 -49
27 -27 35 -30 87 -27 50 3 59 6 72 30 14 24 14 28 -3 47 -18 19 -17 21 4 51
24 34 29 34 109 -1 l44 -19 -6 -57 c-10 -96 -3 -110 61 -129 115 -33 209 -46
322 -45 155 1 170 5 170 43 0 25 3 29 18 23 51 -20 154 -36 292 -47 l156 -12
44 25 c53 29 90 80 90 124 0 49 -35 154 -71 210 -17 28 -91 122 -164 210 -72
88 -134 165 -138 171 -4 7 0 25 8 40 8 16 15 45 15 65 0 33 4 38 37 52 33 13
40 13 77 -4 23 -10 49 -19 59 -19 10 0 45 25 77 56 48 46 71 80 126 189 52
104 65 139 60 160 -5 20 0 34 20 58 33 39 72 124 80 176 5 34 3 41 -19 56 -24
15 -28 15 -59 -1 -18 -9 -43 -25 -54 -36 l-21 -19 1 38 c1 23 -4 38 -10 38 -7
0 -33 -27 -58 -59 -25 -33 -54 -60 -64 -61 -10 -1 -58 -25 -107 -54 -49 -29
-93 -53 -98 -54 -8 -2 -117 168 -117 183 0 5 7 10 15 14 9 3 15 0 15 -9 0 -19
3 -19 49 4 21 11 48 17 60 14 18 -5 21 -1 21 26 0 31 1 32 36 25 36 -7 37 -6
32 20 -6 30 -6 31 31 11 34 -17 97 -23 110 -10 5 6 11 26 13 45 3 30 8 36 33
42 30 7 30 7 -4 5 -34 -2 -35 -1 -49 53 -12 46 -12 64 -1 105 7 28 17 91 24
140 l11 90 17 -32 c10 -18 22 -33 28 -33 9 0 8 17 -8 105 -4 24 -3 28 8 18 7
-7 17 -13 21 -13 16 0 7 27 -26 83 l-34 56 34 7 c39 7 44 21 12 33 -13 5 -36
14 -52 20 l-29 12 22 22 c11 13 21 26 21 30 0 4 -24 7 -53 7 -30 0 -56 3 -60
6 -3 3 -1 18 4 32 13 34 -1 42 -72 42 -31 0 -71 3 -88 6 l-32 7 21 19 c36 33
25 39 -62 32 -69 -5 -81 -4 -70 7 32 34 0 51 -48 24z m-21 -26 c49 14 49 14
47 -6 -1 -15 9 -19 56 -21 42 -2 56 -6 52 -16 -9 -24 25 -38 105 -45 89 -7
104 -14 75 -35 -26 -19 -13 -29 54 -42 46 -9 53 -13 35 -19 -34 -11 -28 -21
25 -47 44 -22 45 -23 20 -26 -16 -2 -28 -5 -28 -8 0 -3 16 -28 35 -56 34 -51
39 -72 12 -50 -22 18 -27 3 -11 -33 23 -55 17 -67 -15 -34 -40 39 -55 38 -48
-5 3 -19 3 -37 0 -40 -3 -3 -22 10 -42 29 -32 31 -36 33 -39 15 -4 -26 -7 -26
-64 11 l-49 32 -16 -22 c-14 -21 -16 -22 -35 -5 -19 18 -20 17 -45 -15 -25
-32 -27 -33 -40 -15 -13 18 -15 18 -24 2 -9 -16 -13 -17 -39 -3 -39 20 -50 19
-50 -5 0 -24 -8 -25 -31 -4 -19 17 -39 11 -39 -12 0 -19 -10 -18 -25 2 -10 14
-14 13 -38 -16 -25 -30 -28 -30 -49 -16 -37 26 -72 20 -107 -19 -39 -44 -43
-107 -10 -149 15 -19 19 -34 14 -54 l-7 -27 -16 28 c-22 36 -42 35 -42 -3 0
-16 -2 -30 -5 -30 -3 0 -20 16 -37 36 -19 21 -38 34 -48 31 -13 -3 -18 10 -28
72 -8 51 -8 89 -2 116 5 22 10 57 10 78 0 34 -2 38 -20 32 -18 -6 -19 -4 -10
21 6 15 31 58 55 95 25 37 45 69 45 73 0 3 -8 6 -17 6 -24 0 25 40 94 77 48
25 70 53 42 53 -5 0 -7 5 -4 10 3 6 35 10 71 10 57 0 64 2 64 20 0 22 10 26
27 9 9 -9 20 -7 45 9 24 15 36 18 46 10 9 -8 23 -8 51 1z m309 -471 c19 -10
25 -9 32 2 7 12 15 9 39 -14 34 -32 51 -28 51 15 0 16 4 29 9 29 11 0 3 -88
-17 -185 -21 -103 -20 -186 3 -277 6 -25 5 -28 -19 -28 -14 0 -44 8 -68 17
-35 14 -38 18 -22 24 14 6 10 8 -17 8 -25 1 -53 13 -93 41 -59 42 -81 49 -89
28 -3 -10 -8 -10 -21 1 -14 12 -22 12 -36 3 -12 -7 -29 -8 -49 -2 -26 7 -33 5
-41 -10 -6 -11 -17 -17 -25 -14 -8 3 -21 -1 -29 -9 -8 -8 -33 -17 -56 -21 -31
-5 -40 -10 -36 -21 12 -31 -38 -14 -75 25 -45 48 -55 77 -42 128 9 34 7 42
-13 68 -34 41 -32 88 5 125 16 16 36 29 45 29 22 0 46 -28 53 -61 8 -40 23
-37 23 4 0 22 8 41 21 53 20 18 21 18 36 -1 9 -12 17 -15 20 -9 2 6 10 20 17
30 14 18 15 18 35 0 23 -21 23 -21 37 12 9 23 10 23 34 4 35 -27 60 -24 98 12
l33 31 17 -22 17 -23 20 30 20 29 30 -20 c16 -11 40 -25 53 -31z m-666 -320
c-6 -6 -7 0 -4 19 5 21 7 23 10 9 2 -10 0 -22 -6 -28z m44 -27 c-11 -18 -39
-13 -32 5 3 9 6 21 6 27 0 6 7 4 16 -5 9 -9 13 -21 10 -27z m383 -12 c7 10 14
10 34 -4 23 -15 26 -15 34 0 8 13 15 11 52 -17 l42 -33 -53 -6 -53 -6 66 -1
c63 -2 89 -13 89 -39 0 -9 -9 -11 -30 -6 -27 5 -30 3 -30 -21 0 -23 -3 -26
-20 -21 -11 3 -20 3 -20 -2 0 -5 -13 -17 -30 -26 -28 -17 -30 -17 -30 -1 0 12
-5 15 -22 9 -43 -14 -137 0 -145 21 -3 8 -11 14 -19 14 -8 0 -14 7 -14 15 0 8
-11 17 -25 21 -53 13 -21 24 73 24 65 -1 105 -5 122 -15 27 -15 60 -20 60 -7
0 4 -21 17 -47 30 -32 17 -49 20 -56 13 -13 -13 -173 -15 -181 -2 -8 12 77 43
97 36 10 -4 17 1 21 13 6 18 10 19 42 9 28 -8 37 -8 43 2z m-333 -49 c15 -22
33 -40 41 -40 15 0 73 -58 73 -74 0 -5 -12 2 -27 16 -66 59 -87 68 -165 67
l-73 -2 55 -7 c30 -4 71 -14 90 -22 53 -23 203 -169 292 -285 79 -102 111
-136 88 -93 -6 12 -10 23 -8 25 2 3 30 -16 62 -41 34 -27 53 -37 47 -26 -6 11
-27 33 -48 50 l-37 30 40 20 c22 11 78 43 125 71 46 28 92 51 101 51 23 0 93
-95 107 -145 23 -83 17 -97 -61 -171 -166 -154 -272 -224 -339 -224 -78 0
-203 78 -364 230 -113 107 -127 106 -26 -2 19 -21 32 -40 30 -43 -3 -2 -36 13
-74 35 -37 22 -70 39 -72 36 -8 -8 117 -85 149 -91 70 -15 68 -4 68 -345 0
-312 9 -424 46 -602 9 -42 14 -84 11 -92 -5 -13 -27 -16 -131 -16 -124 0 -238
16 -327 45 l-47 16 0 177 c0 139 -3 186 -16 221 -9 24 -16 61 -16 82 l0 39 50
-54 c55 -62 76 -98 89 -153 8 -33 9 -34 10 -10 1 41 -24 94 -73 151 -75 89
-79 104 -42 181 28 57 46 165 76 460 11 110 29 240 39 290 22 109 62 211 80
207 8 -2 11 3 8 12 -8 19 12 35 65 51 66 21 76 18 104 -25z m164 -82 c0 -22
46 -58 73 -58 49 0 80 -28 134 -117 29 -48 53 -93 53 -99 0 -6 -11 -16 -25
-22 -33 -15 -63 -1 -95 45 -14 20 -55 70 -93 111 -55 61 -97 125 -97 148 0 2
11 4 25 4 14 0 25 -6 25 -12z m596 -108 c-9 -22 -13 -40 -10 -40 3 0 31 18 61
40 69 49 84 51 49 5 -36 -47 -16 -45 23 2 41 50 52 34 11 -17 -17 -22 -25 -37
-17 -34 9 3 18 12 21 20 3 8 11 14 17 14 7 0 3 -10 -9 -23 -12 -13 -22 -30
-22 -39 0 -8 -23 -37 -52 -64 -47 -44 -52 -46 -62 -30 -6 11 -26 39 -43 63
-18 24 -33 46 -33 48 0 10 74 104 78 100 3 -2 -3 -22 -12 -45z m97 -151 c-22
-37 -41 -54 -50 -45 -6 5 54 76 65 76 2 0 -5 -14 -15 -31z m-33 -103 c0 -12
-4 -27 -9 -35 -10 -15 -13 -7 -27 59 l-6 35 21 -19 c11 -11 21 -29 21 -40z
m-77 -168 c-21 -39 -62 -98 -92 -130 -46 -50 -58 -58 -90 -58 -42 0 -71 15
-56 28 6 4 35 28 65 53 30 24 88 74 129 112 41 37 76 67 78 67 3 0 -13 -32
-34 -72z m-607 -191 c-6 -63 -31 -146 -40 -136 -3 2 -2 57 1 122 6 116 6 117
26 100 17 -16 19 -26 13 -86z m54 -10 c-1 -67 -31 -137 -60 -137 -24 0 -24 -1
-5 42 8 20 17 65 21 101 6 61 8 65 25 56 15 -8 19 -21 19 -62z m45 -26 c-7
-45 -31 -91 -52 -98 -7 -3 -6 11 3 39 8 24 16 60 19 80 4 28 10 36 21 31 12
-4 13 -16 9 -52z m47 27 c14 -11 14 -19 3 -61 -14 -57 -43 -91 -68 -81 -14 5
-10 11 20 36 24 20 30 28 17 24 -20 -6 -20 -4 -10 44 11 54 14 57 38 38z m34
-49 c-9 -54 -33 -99 -53 -99 -14 0 -13 3 5 23 11 12 26 43 32 70 15 58 25 62
16 6z m41 2 c-10 -47 -35 -101 -48 -101 -7 0 -8 7 -4 18 5 9 13 38 18 65 7 29
16 47 25 47 11 0 13 -8 9 -29z m13 -58 c-10 -16 -11 -15 -6 7 3 14 7 39 8 55
1 26 2 25 5 -7 2 -21 -1 -46 -7 -55z m-142 -58 c3 -3 -24 -5 -61 -5 -36 0 -68
4 -71 9 -6 9 123 5 132 -4z m273 -170 c164 -205 182 -231 209 -311 33 -94 28
-127 -26 -180 -51 -51 -64 -52 -38 -3 21 41 15 141 -14 216 -20 52 -132 236
-229 374 -29 42 -53 80 -53 84 0 10 -17 30 151 -180z m-117 110 c50 -70 190
-294 217 -347 28 -54 49 -132 49 -181 0 -39 -26 -107 -40 -107 -5 0 -16 -3
-25 -7 -15 -5 -16 -3 -6 15 6 11 11 58 11 104 0 71 -5 95 -34 166 -34 84 -111
218 -153 269 -13 15 -5 -1 18 -37 22 -36 66 -116 97 -179 53 -108 56 -119 60
-203 6 -125 -3 -137 -100 -131 -40 2 -89 6 -108 9 l-35 6 46 23 c67 35 78 66
56 169 -18 89 -55 170 -146 321 -65 106 -69 120 -47 128 10 4 23 -8 39 -36 14
-23 54 -91 91 -152 36 -60 85 -157 108 -215 34 -87 42 -117 42 -177 1 -39 4
-69 9 -66 4 2 7 27 7 54 0 88 -81 294 -168 429 -20 30 -51 80 -69 110 l-33 54
32 18 c18 9 36 16 40 15 3 -1 22 -24 42 -52z m-161 38 c-23 -2 -64 -2 -90 0
-26 2 -7 3 42 3 50 0 71 -1 48 -3z m13 -66 c11 -23 50 -95 87 -160 70 -125 90
-177 107 -269 14 -74 -2 -107 -64 -137 -52 -24 -74 -25 -144 -10 -65 13 -81
27 -92 73 -8 36 -7 38 13 31 86 -28 141 -38 156 -28 25 16 42 91 39 168 -3 59
-10 84 -46 155 -48 97 -48 91 2 -30 38 -92 46 -166 25 -231 -20 -59 -27 -62
-102 -43 -84 21 -96 30 -103 79 -4 30 -3 36 5 25 16 -22 13 -3 -4 30 -9 17
-12 30 -9 30 4 0 43 -23 86 -51 44 -28 82 -49 84 -46 3 2 -22 22 -55 43 -55
36 -58 39 -37 49 38 19 34 159 -11 298 -25 81 -24 47 2 -57 27 -107 33 -207
13 -223 -17 -13 -78 7 -92 30 -8 12 -7 22 2 35 30 42 42 84 41 149 -1 37 -4
79 -9 93 -4 14 -5 -13 -2 -60 3 -67 1 -93 -13 -125 l-18 -40 -10 48 c-6 31 -6
61 1 87 6 23 6 42 1 46 -5 3 -9 22 -9 43 l0 38 68 1 67 1 21 -42z m-863 -185
c-25 -43 -73 -204 -73 -243 0 -14 9 -34 20 -44 11 -10 20 -13 20 -7 0 6 -4 14
-10 17 -13 8 -13 65 0 65 22 0 90 -41 100 -61 19 -35 5 -49 -47 -49 -100 0
-110 32 -68 218 30 134 32 140 53 145 26 5 27 -1 5 -41z m127 28 c17 -9 17
-14 4 -82 -20 -106 -19 -104 -57 -71 -18 15 -44 35 -57 44 -23 15 -24 18 -12
45 27 59 42 74 73 74 17 0 39 -4 49 -10z m34 -104 c-8 -38 -13 -74 -11 -80 5
-14 37 91 37 121 0 26 25 31 34 7 9 -23 7 -176 -2 -172 -4 2 -28 11 -53 21
l-46 19 13 36 c7 20 13 48 14 62 1 39 12 72 21 63 4 -4 1 -39 -7 -77z m-110
-52 c59 -44 53 -56 -9 -19 -58 34 -72 26 -16 -9 37 -24 53 -46 34 -46 -13 0
-93 45 -93 52 0 16 20 58 28 58 5 0 30 -16 56 -36z m-35 -75 c49 -30 32 -34
-20 -4 -24 13 -37 25 -29 25 8 0 30 -9 49 -21z"/>
<path d="M6860 4644 c0 -6 7 -17 15 -24 8 -7 15 -17 15 -22 0 -6 -7 -8 -15 -4
-8 3 -15 2 -15 -3 0 -5 8 -11 18 -15 9 -3 23 -9 30 -12 7 -3 12 1 12 10 0 18
-59 87 -60 70z"/>
<path d="M7315 4632 c6 -6 38 -22 72 -35 74 -30 97 -17 26 14 -58 25 -113 37
-98 21z"/>
<path d="M7280 4535 c0 -17 50 -45 80 -45 32 0 23 25 -15 43 -44 21 -65 22
-65 2z"/>
<path d="M7493 4313 c9 -2 25 -2 35 0 9 3 1 5 -18 5 -19 0 -27 -2 -17 -5z"/>
<path d="M6537 3225 c12 -16 31 -39 43 -50 l23 -20 -11 20 c-6 11 -25 34 -43
50 l-32 30 20 -30z"/>
<path d="M7116 3177 c3 -10 9 -15 12 -12 3 3 0 11 -7 18 -10 9 -11 8 -5 -6z"/>
<path d="M8222 4508 c-45 -17 -81 -33 -79 -35 5 -4 177 57 177 63 0 7 -12 3
-98 -28z"/>
<path d="M8080 4455 c-19 -7 -28 -14 -20 -14 8 0 29 6 45 14 39 17 21 18 -25
0z"/>
<path d="M7965 4420 c-13 -5 -14 -9 -5 -9 8 0 24 4 35 9 13 5 14 9 5 9 -8 0
-24 -4 -35 -9z"/>
<path d="M7895 4400 c-13 -5 -14 -9 -5 -9 8 0 24 4 35 9 13 5 14 9 5 9 -8 0
-24 -4 -35 -9z"/>
<path d="M5740 4380 c14 -4 36 -8 50 -8 22 0 22 1 -5 8 -16 4 -39 8 -50 8 -16
0 -15 -2 5 -8z"/>
<path d="M7848 4383 c7 -3 16 -2 19 1 4 3 -2 6 -13 5 -11 0 -14 -3 -6 -6z"/>
<path d="M7808 4373 c7 -3 16 -2 19 1 4 3 -2 6 -13 5 -11 0 -14 -3 -6 -6z"/>
<path d="M5845 4360 c17 -4 41 -8 55 -8 22 0 22 1 -5 8 -16 4 -41 8 -55 8 -22
0 -22 -1 5 -8z"/>
<path d="M7768 4363 c7 -3 16 -2 19 1 4 3 -2 6 -13 5 -11 0 -14 -3 -6 -6z"/>
<path d="M7718 4353 c6 -2 18 -2 25 0 6 3 1 5 -13 5 -14 0 -19 -2 -12 -5z"/>
<path d="M5943 4343 c9 -2 23 -2 30 0 6 3 -1 5 -18 5 -16 0 -22 -2 -12 -5z"/>
<path d="M7668 4343 c6 -2 18 -2 25 0 6 3 1 5 -13 5 -14 0 -19 -2 -12 -5z"/>
<path d="M6060 4324 c41 -7 89 -12 105 -12 17 0 -6 6 -50 13 -44 8 -91 13
-105 13 -14 0 9 -6 50 -14z"/>
<path d="M6218 4303 c12 -2 32 -2 45 0 12 2 2 4 -23 4 -25 0 -35 -2 -22 -4z"/>
<path d="M6313 4293 c15 -2 37 -2 50 0 12 2 0 4 -28 4 -27 0 -38 -2 -22 -4z"/>
<path d="M2095 2766 c-11 -17 -15 -42 -13 -82 3 -53 6 -60 34 -76 17 -10 53
-20 80 -23 l49 -5 -55 13 c-93 22 -100 29 -100 95 0 73 13 90 70 95 l45 4 -47
1 c-40 2 -50 -2 -63 -22z"/>
<path d="M2235 2773 c11 -3 29 -12 40 -22 20 -16 20 -16 1 7 -11 12 -29 21
-40 21 -20 -1 -20 -2 -1 -6z"/>
<path d="M2289 2682 c-3 -20 -2 -29 4 -23 5 5 7 19 5 32 -3 20 -5 19 -9 -9z"/>
<path d="M2259 2603 c-13 -16 -12 -17 4 -4 9 7 17 15 17 17 0 8 -8 3 -21 -13z"/>
<path d="M2237 6886 c-36 -36 -49 -154 -22 -206 21 -42 53 -60 103 -60 36 0
49 5 73 31 16 18 27 34 25 37 -3 2 -17 -10 -31 -27 -22 -26 -34 -31 -69 -31
-34 0 -48 6 -72 31 -27 28 -29 36 -29 103 0 53 5 79 18 100 18 27 21 28 94 24
67 -3 78 -6 99 -31 13 -16 24 -24 24 -19 0 5 -12 19 -26 33 -21 19 -38 24 -98
27 -57 3 -76 1 -89 -12z"/>
<path d="M9005 6875 c-38 -8 -110 -25 -160 -39 -49 -14 -102 -26 -117 -26 -15
0 -77 14 -138 30 -61 17 -117 30 -125 30 -28 0 -30 -84 -4 -163 31 -93 46
-100 154 -68 134 40 175 39 311 -7 148 -51 228 -65 343 -61 83 4 95 7 185 53
100 51 122 72 112 111 -16 62 -89 114 -198 140 -78 18 -267 18 -363 0z m222
-133 c-1 -80 2 -113 12 -125 12 -15 10 -17 -27 -17 -63 0 -177 25 -296 65
-100 34 -115 36 -179 30 -39 -4 -95 -16 -126 -26 -83 -29 -96 -26 -116 24 -9
23 -19 66 -23 96 -5 50 -4 54 14 47 10 -4 66 -20 123 -36 117 -33 111 -33 341
25 64 16 125 24 187 24 l93 1 -3 -108z m204 77 c51 -22 113 -82 106 -102 -6
-19 -121 -83 -184 -102 l-56 -18 -19 23 c-14 17 -18 39 -18 95 0 40 3 87 6
105 l7 32 55 -6 c30 -4 76 -16 103 -27z"/>
<path d="M9384 6766 c-9 -24 4 -48 23 -44 12 2 18 12 18 28 0 29 -32 41 -41
16z"/>
<path d="M639 6713 c-13 -16 -12 -17 4 -4 9 7 17 15 17 17 0 8 -8 3 -21 -13z"/>
<path d="M773 6703 c29 -31 36 -80 15 -101 -8 -8 -8 -12 -1 -12 23 0 31 66 13
100 -6 11 -20 25 -33 31 -19 10 -19 8 6 -18z"/>
<path d="M613 6615 c0 -27 2 -38 4 -22 2 15 2 37 0 50 -2 12 -4 0 -4 -28z"/>
<path d="M652 6528 c16 -16 36 -28 46 -27 12 0 9 3 -8 10 -14 6 -34 18 -45 27
-12 9 -8 5 7 -10z"/>
<path d="M11269 6331 c-94 -14 -135 -74 -106 -154 9 -23 21 -61 27 -84 33
-127 160 -159 258 -63 54 52 74 93 74 151 -1 61 -24 110 -61 132 -34 20 -125
29 -192 18z m180 -37 c29 -21 51 -72 51 -122 0 -48 -42 -110 -100 -148 -34
-22 -48 -26 -87 -21 -56 6 -87 36 -103 100 -6 23 -17 57 -25 75 -19 42 -19 62
1 90 23 34 48 41 149 41 68 1 96 -3 114 -15z"/>
<path d="M988 6063 c12 -2 32 -2 45 0 12 2 2 4 -23 4 -25 0 -35 -2 -22 -4z"/>
<path d="M929 6033 c-13 -16 -12 -17 4 -4 16 13 21 21 13 21 -2 0 -10 -8 -17
-17z"/>
<path d="M919 5848 c18 -20 33 -28 55 -27 l31 2 -30 4 c-16 3 -41 14 -55 26
l-25 22 24 -27z"/>
<path d="M1038 5823 c7 -3 16 -2 19 1 4 3 -2 6 -13 5 -11 0 -14 -3 -6 -6z"/>
<path d="M11273 4853 c9 -2 23 -2 30 0 6 3 -1 5 -18 5 -16 0 -22 -2 -12 -5z"/>
<path d="M11358 4843 c6 -2 18 -2 25 0 6 3 1 5 -13 5 -14 0 -19 -2 -12 -5z"/>
<path d="M11423 4833 c9 -2 23 -2 30 0 6 3 -1 5 -18 5 -16 0 -22 -2 -12 -5z"/>
<path d="M11498 4823 c6 -2 18 -2 25 0 6 3 1 5 -13 5 -14 0 -19 -2 -12 -5z"/>
<path d="M11558 4813 c6 -2 18 -2 25 0 6 3 1 5 -13 5 -14 0 -19 -2 -12 -5z"/>
<path d="M11618 4803 c6 -2 18 -2 25 0 6 3 1 5 -13 5 -14 0 -19 -2 -12 -5z"/>
<path d="M11668 4793 c7 -3 16 -2 19 1 4 3 -2 6 -13 5 -11 0 -14 -3 -6 -6z"/>
<path d="M11718 4783 c7 -3 16 -2 19 1 4 3 -2 6 -13 5 -11 0 -14 -3 -6 -6z"/>
<path d="M11758 4773 c7 -3 16 -2 19 1 4 3 -2 6 -13 5 -11 0 -14 -3 -6 -6z"/>
<path d="M11808 4763 c7 -3 16 -2 19 1 4 3 -2 6 -13 5 -11 0 -14 -3 -6 -6z"/>
<path d="M12068 4693 c7 -3 16 -2 19 1 4 3 -2 6 -13 5 -11 0 -14 -3 -6 -6z"/>
<path d="M11730 4464 c-139 -79 -167 -175 -181 -609 -5 -154 -13 -302 -18
-330 -24 -122 -14 -240 38 -471 46 -203 79 -368 80 -404 4 -109 57 -531 81
-650 31 -152 32 -158 25 -345 -8 -238 -29 -463 -50 -546 -9 -35 -50 -134 -91
-220 -103 -220 -124 -288 -131 -429 -8 -175 29 -460 59 -460 6 0 8 12 4 27
-29 138 -38 235 -34 391 6 194 10 210 126 458 111 236 124 301 143 709 l12
260 -31 162 c-31 157 -78 602 -68 629 3 7 1 16 -3 18 -5 3 -11 29 -15 58 -4
29 -31 164 -61 299 -50 223 -55 258 -55 365 0 66 5 148 11 183 5 35 14 186 19
335 8 278 22 373 64 455 19 35 67 74 119 96 55 23 75 19 98 -17 19 -31 20 -44
16 -208 -6 -200 -14 -238 -106 -522 -87 -269 -86 -263 -86 -588 0 -239 3 -299
18 -372 11 -48 16 -91 13 -97 -3 -5 -2 -11 3 -13 5 -1 29 -82 52 -178 l43
-175 4 -340 c4 -333 -3 -492 -34 -825 -8 -88 -14 -268 -14 -416 l0 -262 42
-133 c34 -110 42 -149 42 -216 1 -72 3 -83 19 -83 15 0 17 11 17 84 0 69 -7
106 -40 214 l-40 129 0 261 c0 143 6 341 14 439 35 434 38 497 34 813 l-5 325
-42 175 c-67 283 -69 292 -80 354 -14 78 -14 555 0 632 6 32 33 129 60 214
106 326 111 352 116 575 5 197 4 200 -19 235 -21 31 -29 35 -73 38 -39 2 -60
-4 -95 -24z"/>
<path d="M12330 2938 c-11 -18 -20 -37 -20 -43 1 -5 8 4 16 20 9 17 23 36 32
43 10 7 11 12 4 12 -7 0 -21 -15 -32 -32z"/>
<path d="M12434 2957 c10 -7 27 -24 38 -38 11 -13 16 -17 12 -9 -11 24 -46 60
-58 60 -5 0 -2 -6 8 -13z"/>
<path d="M12302 2860 c0 -14 2 -19 5 -12 2 6 2 18 0 25 -3 6 -5 1 -5 -13z"/>
<path d="M12506 2845 c8 -37 14 -45 14 -19 0 10 -5 26 -10 34 -8 11 -9 7 -4
-15z"/>
<path d="M12292 2800 c0 -14 2 -19 5 -12 2 6 2 18 0 25 -3 6 -5 1 -5 -13z"/>
<path d="M12516 2765 c-3 -8 -20 -24 -38 -35 -19 -11 -26 -20 -17 -20 18 0 69
44 69 60 0 15 -7 12 -14 -5z"/>
<path d="M12307 2739 c7 -7 15 -10 18 -7 3 3 -2 9 -12 12 -14 6 -15 5 -6 -5z"/>
<path d="M12355 2720 c19 -8 73 -14 64 -6 -2 2 -22 6 -44 9 -28 5 -34 4 -20
-3z"/>
<path d="M11417 2663 c18 -2 50 -2 70 0 21 2 7 4 -32 4 -38 0 -55 -2 -38 -4z"/>
<path d="M11563 2653 c9 -2 25 -2 35 0 9 3 1 5 -18 5 -19 0 -27 -2 -17 -5z"/>
<path d="M11813 2623 c9 -2 23 -2 30 0 6 3 -1 5 -18 5 -16 0 -22 -2 -12 -5z"/>
<path d="M12018 2593 c7 -3 16 -2 19 1 4 3 -2 6 -13 5 -11 0 -14 -3 -6 -6z"/>
<path d="M12088 2583 c7 -3 16 -2 19 1 4 3 -2 6 -13 5 -11 0 -14 -3 -6 -6z"/>
<path d="M12198 2563 c7 -3 16 -2 19 1 4 3 -2 6 -13 5 -11 0 -14 -3 -6 -6z"/>
<path d="M12298 2543 c7 -3 16 -2 19 1 4 3 -2 6 -13 5 -11 0 -14 -3 -6 -6z"/>
<path d="M3281 2480 c-30 -42 -58 -117 -47 -127 3 -3 8 8 11 23 11 50 25 79
51 107 20 22 34 27 70 27 52 0 107 -21 124 -47 6 -10 9 -12 7 -4 -8 31 -56 55
-121 59 l-64 4 -31 -42z"/>
<path d="M12287 2460 c-33 -26 -44 -78 -57 -277 -6 -87 -17 -207 -26 -268 -25
-172 -14 -353 33 -504 19 -64 39 -132 44 -151 21 -88 2 -266 -58 -524 -35
-150 -38 -171 -37 -311 1 -82 7 -179 13 -215 19 -102 53 -210 67 -210 9 0 6
23 -11 86 -56 200 -58 425 -7 634 50 204 65 306 65 435 1 112 -2 128 -37 235
-56 172 -70 372 -37 546 5 27 15 130 22 229 6 99 17 200 23 225 10 40 14 45
43 48 40 4 56 -18 79 -113 15 -59 17 -106 14 -295 -2 -124 -4 -344 -4 -490 1
-260 1 -267 28 -355 15 -49 47 -136 72 -192 50 -115 70 -192 79 -308 6 -69 3
-98 -23 -210 -33 -138 -47 -232 -57 -382 -6 -90 -6 -93 14 -93 19 0 21 6 21
53 0 91 28 298 56 407 23 92 26 118 21 215 -6 126 -25 204 -89 355 -91 215
-90 207 -86 754 3 510 0 558 -44 637 -19 35 -53 59 -82 59 -7 0 -25 -9 -39
-20z"/>
<path d="M3255 2320 c35 -44 69 -69 95 -69 24 1 24 1 -4 9 -16 5 -48 26 -70
47 -22 21 -32 27 -21 13z"/>
<path d="M3447 2275 c-15 -14 -24 -25 -19 -25 5 0 19 11 32 25 30 32 23 32
-13 0z"/>
<path d="M10906 1987 c-23 -23 -57 -72 -76 -107 l-35 -65 0 -135 c1 -114 5
-151 28 -237 63 -238 77 -324 77 -482 0 -104 -6 -183 -20 -262 -22 -126 -27
-410 -10 -529 14 -95 38 -170 55 -170 19 0 19 -4 -6 83 -17 59 -22 111 -26
282 -5 190 -3 220 16 317 17 83 22 146 23 275 2 178 -8 246 -78 515 -19 74
-25 123 -26 208 0 104 2 115 30 173 63 126 119 166 150 107 18 -34 9 -109 -30
-255 -31 -118 -32 -124 -32 -346 l-1 -226 52 -101 c79 -150 128 -359 142 -598
6 -97 11 -234 11 -305 0 -108 2 -129 15 -129 17 0 19 28 16 250 -5 353 -49
589 -144 780 l-52 104 0 231 c0 228 0 231 33 349 47 172 41 274 -17 306 -34
18 -53 11 -95 -33z"/>
<path d="M1775 1826 c-32 -32 -38 -96 -32 -308 4 -161 8 -187 52 -378 57 -249
57 -251 -16 -575 -49 -219 -51 -237 -50 -369 0 -142 6 -196 21 -196 4 0 5 69
3 153 l-5 152 56 254 c62 282 69 366 40 492 -26 117 -10 87 25 -43 79 -297 87
-400 46 -583 -31 -139 -53 -270 -62 -357 -5 -58 -4 -68 10 -68 11 0 17 13 22
48 14 110 48 313 67 394 16 70 19 111 15 200 -5 113 -17 175 -75 385 l-31 111
6 324 c5 291 4 326 -11 356 -20 39 -47 42 -81 8z m61 -28 c9 -30 8 -431 -3
-558 l-8 -105 -24 105 c-32 137 -43 482 -17 543 17 41 41 48 52 15z"/>
<path d="M9583 1815 c-27 -19 -51 -80 -57 -147 -5 -51 -5 -51 9 14 23 111 45
138 110 138 62 0 89 -25 90 -83 0 -25 3 -43 8 -40 4 2 7 20 7 39 0 53 -45 94
-102 94 -24 0 -53 -7 -65 -15z"/>
<path d="M4297 1696 c-3 -8 2 -29 11 -47 14 -27 23 -34 47 -34 35 0 43 21 25
66 -10 24 -18 29 -45 29 -19 0 -35 -6 -38 -14z m61 -8 c7 -7 12 -23 12 -36 0
-38 -34 -24 -38 16 -3 33 6 40 26 20z"/>
<path d="M9540 1595 c15 -18 75 -38 97 -32 12 3 10 5 -7 6 -14 0 -43 10 -63
20 -24 12 -34 14 -27 6z"/>
<path d="M9700 1575 c-14 -8 -20 -14 -14 -15 5 0 19 7 30 15 24 18 16 19 -16
0z"/>
<path d="M3755 1460 c-279 -135 -296 -138 -435 -94 -45 14 -100 26 -123 27
l-42 2 -3 -45 c-5 -72 66 -230 103 -230 7 0 41 13 76 30 80 37 169 60 231 60
26 0 90 -14 140 -30 77 -25 116 -32 223 -37 113 -5 141 -3 213 16 79 20 175
61 186 79 8 13 -29 86 -65 126 -18 21 -51 49 -72 63 -51 32 -193 63 -292 62
-67 0 -90 -5 -140 -29z m228 -57 c-13 -43 -13 -111 -1 -208 3 -19 -2 -20 -91
-16 -65 2 -116 11 -164 27 -38 13 -91 26 -116 30 -74 10 -187 -12 -274 -53
-47 -22 -81 -33 -87 -27 -13 14 -70 162 -70 184 0 26 10 25 125 -10 160 -49
177 -46 460 90 51 25 72 29 147 29 l86 1 -15 -47z m160 4 c48 -20 147 -117
147 -144 0 -31 -249 -108 -273 -84 -17 17 -16 222 1 244 16 19 53 14 125 -16z"/>
<path d="M4105 1311 c-7 -24 4 -51 21 -51 20 0 28 25 14 49 -13 26 -27 27 -35
2z"/>
<path d="M4314 1477 c-3 -9 -4 -28 -2 -44 2 -23 8 -29 34 -31 43 -4 60 18 42
55 -15 32 -64 45 -74 20z m54 -35 c3 -17 -2 -22 -17 -22 -16 0 -21 6 -21 26 0
33 33 30 38 -4z"/>
</g>
</svg>
