<?xml version="1.0" standalone="no"?>
<!DOCTYPE svg PUBLIC "-//W3C//DTD SVG 20010904//EN"
 "http://www.w3.org/TR/2001/REC-SVG-20010904/DTD/svg10.dtd">
<svg version="1.0" xmlns="http://www.w3.org/2000/svg"
 width="1280.000000pt" height="786.000000pt" viewBox="0 0 1280.000000 786.000000"
 preserveAspectRatio="xMidYMid meet">
<g transform="translate(0.000000,786.000000) scale(0.100000,-0.100000)"
fill="#000000" stroke="none">
<path d="M11450 7849 c-243 -53 -327 -84 -447 -161 -130 -84 -284 -246 -457
-480 -47 -65 -93 -118 -101 -118 -19 0 -45 39 -45 69 0 31 -21 101 -30 101
-14 0 -20 -46 -20 -170 0 -69 -5 -142 -11 -163 -14 -52 -182 -258 -308 -379
-227 -218 -434 -322 -666 -335 -123 -7 -202 4 -328 43 -158 50 -167 56 -217
141 -30 51 -94 127 -193 232 -82 86 -161 175 -177 199 -24 37 -45 99 -65 195
-12 58 -22 22 -28 -100 -4 -71 -7 -171 -7 -224 0 -113 -7 -156 -26 -163 -8 -3
-65 3 -127 13 -184 31 -242 34 -358 17 -138 -21 -235 -49 -336 -96 -369 -173
-682 -544 -826 -980 -20 -58 -67 -231 -106 -386 -82 -328 -84 -334 -111 -334
-12 0 -71 51 -153 133 -146 146 -175 190 -203 313 -9 41 -19 74 -24 74 -16 0
-20 -95 -20 -585 0 -280 -3 -554 -7 -608 -8 -123 -9 -124 -170 -142 -89 -10
-137 -21 -193 -45 -84 -35 -113 -36 -300 -4 -183 31 -656 166 -751 214 -45 24
-80 90 -105 198 -9 41 -20 70 -24 65 -4 -4 -12 -50 -18 -101 -5 -52 -15 -99
-21 -105 -13 -13 -45 -7 -361 67 -129 31 -249 62 -266 70 -28 13 -34 23 -49
85 -22 92 -67 159 -191 291 -138 146 -165 187 -188 293 -14 61 -26 10 -26
-111 0 -70 -3 -198 -7 -285 -5 -133 -9 -159 -23 -167 -10 -5 -64 -2 -142 10
-230 34 -371 44 -613 44 -390 0 -672 -44 -1028 -161 -59 -20 -110 -33 -114
-30 -11 11 6 53 48 117 163 253 273 528 310 775 23 160 25 382 4 515 -56 343
-211 726 -328 811 -75 55 -147 30 -259 -90 -118 -126 -202 -294 -258 -516 -50
-198 -64 -324 -64 -595 -1 -264 7 -342 56 -587 17 -84 28 -163 24 -177 -3 -13
-105 -128 -225 -254 -283 -297 -387 -419 -484 -567 -134 -204 -218 -396 -250
-570 -46 -244 -46 -283 -12 -488 56 -334 171 -563 393 -778 59 -58 127 -119
152 -136 122 -83 331 -166 490 -194 94 -17 316 -17 439 0 78 11 95 11 106 -1
8 -7 21 -56 30 -108 9 -52 36 -178 60 -280 59 -248 75 -344 75 -459 -1 -190
-43 -306 -149 -411 -142 -140 -371 -212 -528 -165 -62 18 -170 88 -178 116 -9
27 11 49 44 49 99 0 219 84 261 182 41 96 37 234 -10 344 -22 51 -95 126 -154
157 -34 18 -57 21 -141 21 -119 -1 -153 -13 -224 -79 -199 -186 -210 -498 -27
-694 96 -102 214 -163 391 -200 108 -23 178 -26 234 -12 20 6 67 17 105 26
204 47 375 197 445 389 24 67 25 81 25 261 -1 179 -3 200 -37 355 -115 529
-120 560 -95 592 7 8 39 30 71 48 219 122 410 334 467 517 27 86 50 226 50
300 0 104 -4 101 221 166 335 97 530 122 904 113 149 -3 316 -11 371 -18 101
-13 102 -14 152 -60 77 -72 144 -83 287 -48 l80 20 145 -30 c169 -35 721 -171
925 -228 77 -22 226 -65 330 -95 252 -73 416 -106 604 -120 130 -10 156 -15
159 -28 2 -11 -15 -27 -50 -47 -153 -87 -215 -205 -158 -299 27 -44 73 -65
156 -71 124 -8 253 45 337 138 55 61 64 94 73 270 l6 135 88 90 c94 96 183
224 226 323 21 49 31 62 48 62 79 0 86 -289 11 -434 -14 -27 -23 -51 -20 -54
2 -3 25 37 49 89 31 65 50 124 62 188 20 109 13 164 -36 288 -28 69 -28 73
-14 120 9 26 56 208 105 403 50 195 105 401 124 456 63 191 179 394 320 563
292 350 657 523 1017 482 147 -17 241 -38 256 -58 9 -13 12 -56 10 -158 l-3
-140 -100 0 c-110 -1 -158 -13 -221 -56 -129 -88 -192 -229 -164 -364 38 -181
235 -194 409 -26 102 98 104 108 111 434 6 301 6 303 60 290 14 -3 140 -50
280 -105 322 -126 376 -144 491 -164 309 -54 595 62 895 361 148 148 203 217
409 510 238 340 353 470 517 585 232 164 450 204 826 150 170 -25 195 -23 173
16 -6 11 -39 82 -74 159 -91 199 -480 1021 -602 1272 l-103 212 -53 15 c-131
38 -425 63 -509 45z m302 -55 c220 -28 226 -32 299 -182 95 -197 95 -209 3
-198 -110 13 -121 27 -123 160 -1 96 -13 75 -20 -36 l-6 -93 -130 -8 c-249
-14 -404 -55 -551 -147 -134 -83 -232 -177 -399 -384 -62 -76 -98 -112 -114
-114 -33 -5 -221 183 -221 221 0 51 188 304 348 469 154 158 273 235 438 283
159 46 283 54 476 29z m149 -421 c11 -12 14 -54 14 -171 0 -178 1 -175 -92
-186 -305 -36 -540 -191 -810 -534 -58 -73 -110 -131 -116 -129 -13 4 -21 31
-36 127 -7 43 -26 96 -56 154 l-46 89 65 98 c124 182 294 351 446 443 144 88
286 124 491 125 106 1 129 -2 140 -16z m210 -19 l66 -15 72 -148 c39 -82 71
-156 71 -165 0 -9 -7 -19 -15 -22 -9 -4 -88 2 -178 11 -135 15 -165 21 -179
37 -26 29 -26 272 -2 307 18 26 32 25 165 -5z m26 -384 c126 -17 220 -40 237
-59 29 -32 129 -255 130 -291 1 -40 14 -39 -164 -21 -63 6 -176 11 -251 11
-91 0 -139 4 -147 12 -8 8 -12 60 -12 169 0 130 3 160 16 173 18 19 78 21 191
6z m-225 -17 c9 -41 -5 -358 -16 -365 -6 -4 -40 -17 -76 -29 -268 -89 -461
-268 -775 -719 -175 -251 -283 -388 -395 -501 -295 -298 -598 -418 -895 -355
-167 36 -572 192 -602 233 -20 26 -18 227 2 243 13 11 43 4 176 -39 205 -67
272 -81 394 -81 125 0 205 17 322 68 151 65 280 158 433 311 145 146 240 264
394 486 112 163 251 344 331 432 176 195 435 331 632 332 60 1 72 -2 75 -16z
m-1401 -162 c86 -37 139 -77 139 -106 0 -23 -135 -224 -200 -297 -47 -53 -65
-48 -73 24 -9 80 8 375 23 393 17 21 35 19 111 -14z m-167 -42 c3 -17 6 -136
6 -264 l0 -233 -118 -113 c-222 -214 -428 -321 -662 -344 -121 -12 -374 41
-412 87 -15 17 -18 40 -18 142 0 66 4 126 8 133 5 7 53 11 157 10 172 -2 248
14 390 83 146 70 356 235 478 375 38 44 85 97 103 118 40 45 59 47 68 6z m398
-146 c54 -61 81 -172 77 -303 l-4 -95 -52 -77 c-119 -174 -331 -418 -363 -418
-13 0 -15 38 -14 258 l0 257 149 198 c155 205 172 220 207 180z m-2196 -42
c86 -44 164 -110 164 -141 0 -26 -25 -26 -87 1 -26 11 -79 32 -118 46 -111 41
-139 68 -115 113 17 31 67 25 156 -19z m3794 -6 c184 -24 208 -32 239 -76 38
-51 133 -264 129 -286 -4 -22 -23 -22 -200 -3 -198 22 -393 -5 -596 -81 -79
-30 -95 -18 -51 37 17 21 37 51 44 65 16 30 35 167 35 249 0 32 6 64 14 75 25
35 206 45 386 20z m-439 -41 c31 -38 -35 -64 -71 -28 -13 14 -13 17 4 30 26
18 50 18 67 -2z m-3710 -10 c123 -23 146 -35 155 -78 9 -52 10 -206 1 -238
l-7 -28 -113 0 c-385 0 -653 -114 -932 -395 -145 -146 -234 -267 -319 -440
-84 -168 -127 -301 -221 -679 -96 -385 -149 -551 -224 -699 -107 -211 -219
-337 -364 -406 -117 -57 -159 -65 -347 -65 -198 1 -294 17 -581 100 -107 31
-201 58 -210 61 -9 3 -40 44 -69 92 -28 48 -83 123 -121 167 -113 129 -101
133 158 61 225 -63 260 -71 396 -92 155 -25 164 -32 132 -108 -8 -20 -15 -57
-15 -83 0 -40 5 -51 38 -84 52 -52 105 -66 200 -52 125 17 273 107 317 192 17
32 35 130 35 187 0 41 5 50 68 116 114 121 190 239 253 391 32 78 41 91 61 91
65 0 64 -212 -1 -374 -32 -79 -19 -72 22 11 53 111 67 168 67 285 0 87 -4 113
-25 165 -14 34 -25 70 -25 80 0 32 169 694 206 806 103 316 369 671 635 848
126 84 291 154 407 174 86 14 334 11 423 -6z m371 -110 c193 -77 225 -94 240
-127 20 -48 18 -217 -3 -230 -11 -7 -51 1 -145 31 -71 23 -155 48 -186 57 -86
23 -88 28 -88 161 0 65 5 124 11 136 14 27 48 21 171 -28z m3326 14 c49 -49
-57 -206 -180 -267 -91 -46 -128 -39 -128 23 0 59 117 197 201 239 40 20 90
22 107 5z m-325 -89 c-1 -13 -5 -52 -9 -87 -5 -50 -3 -70 11 -103 24 -52 58
-69 140 -69 36 0 65 -3 65 -6 0 -4 -57 -64 -127 -133 -140 -138 -252 -278
-441 -549 -164 -234 -247 -335 -389 -472 -246 -239 -464 -343 -718 -342 -152
0 -257 30 -595 169 -107 45 -223 91 -258 103 -93 34 -102 50 -102 180 0 87 3
110 16 121 18 15 28 12 264 -85 199 -81 307 -107 471 -113 176 -7 255 9 394
82 124 63 200 114 314 210 132 111 242 246 526 645 184 259 292 388 379 452
45 32 62 32 59 -3z m-2548 -101 c96 -32 96 -31 93 -177 l-3 -126 -40 1 c-25 0
-74 16 -129 42 l-89 42 7 62 c22 209 16 203 161 156z m1323 -193 l3 -108 -92
8 c-108 8 -144 19 -132 39 16 26 195 177 206 173 8 -2 13 -40 15 -112z m-2003
62 c18 -24 28 -145 20 -234 -9 -89 -17 -97 -125 -113 -295 -45 -508 -157 -741
-390 -144 -144 -236 -274 -330 -465 -76 -155 -111 -266 -214 -677 -101 -399
-127 -483 -205 -645 -73 -152 -125 -229 -214 -318 -125 -124 -246 -173 -452
-182 -162 -7 -278 7 -479 57 -175 44 -546 156 -589 177 -26 14 -28 18 -23 56
14 104 38 211 49 218 15 9 17 9 208 -42 255 -68 404 -92 580 -92 129 0 168 3
235 21 271 75 432 238 569 579 58 146 98 281 191 652 42 167 91 345 109 395
169 466 537 857 927 985 106 35 146 40 312 38 139 -2 160 -4 172 -20z m223
-37 c127 -37 210 -74 218 -95 6 -14 1 -37 -22 -105 -3 -8 9 6 26 32 18 26 40
50 50 53 28 9 254 -81 272 -109 4 -6 8 -61 8 -122 0 -83 -4 -114 -14 -123 -11
-9 -40 -2 -133 33 -177 66 -275 93 -413 116 -69 12 -131 27 -138 34 -23 23
-43 256 -26 300 9 24 58 20 172 -14z m-6990 -66 c47 -19 88 -58 113 -106 44
-85 43 -260 -1 -428 -27 -99 -134 -313 -215 -425 -119 -167 -301 -345 -352
-345 -47 0 -68 157 -60 450 6 227 19 321 64 464 93 294 284 460 451 390z
m7715 -201 c145 -34 342 -38 455 -9 40 10 76 16 79 12 3 -3 0 -37 -7 -75 -15
-79 -10 -108 26 -150 28 -34 102 -61 168 -61 23 0 48 -5 56 -10 42 -29 -102
-84 -267 -103 -133 -14 -226 -1 -405 57 -148 48 -232 87 -242 111 -11 31 -7
230 6 243 15 15 0 17 131 -15z m-583 -132 c148 -42 334 -109 373 -135 l32 -22
3 -115 c2 -91 0 -119 -12 -128 -11 -9 -42 -5 -148 23 -243 63 -478 72 -668 26
-112 -27 -321 -130 -430 -213 -196 -149 -384 -380 -495 -611 -78 -161 -117
-284 -201 -626 -144 -587 -172 -656 -233 -572 -20 28 -61 140 -61 166 0 8 -5
27 -11 43 l-12 28 -7 -25 c-5 -14 -8 -140 -9 -281 l-1 -256 -31 -46 c-46 -69
-131 -140 -223 -186 -118 -60 -175 -71 -352 -71 -224 0 -320 19 -787 160 -148
44 -399 114 -558 155 -160 41 -298 79 -309 85 -20 11 -25 37 -35 165 -8 97 3
135 39 135 31 0 239 -53 295 -76 43 -17 43 -18 38 -58 l-6 -40 33 39 34 40
233 -68 c461 -132 631 -167 821 -167 367 0 598 152 768 505 57 118 121 319
190 595 70 279 120 461 157 570 98 289 351 626 605 806 53 38 68 28 68 -47 0
-58 2 -64 38 -99 97 -97 322 -64 457 68 54 53 81 105 90 177 11 89 13 93 43
97 52 6 167 -12 272 -41z m155 -400 c151 -41 235 -72 245 -92 6 -11 9 -71 8
-141 l-3 -123 -50 1 c-27 1 -110 5 -183 10 -188 13 -337 2 -442 -31 -207 -66
-361 -164 -545 -349 -153 -153 -246 -284 -335 -469 -78 -162 -116 -281 -210
-659 -75 -304 -108 -408 -128 -408 -30 0 -192 164 -192 195 0 6 22 84 50 173
27 89 86 306 130 482 45 177 95 360 111 408 154 439 500 826 869 972 136 54
181 60 395 56 165 -3 214 -8 280 -25z m-2607 -446 c88 -42 192 -138 192 -177
0 -60 -104 -286 -196 -425 -55 -83 -108 -137 -128 -130 -6 2 -14 28 -18 58
-10 88 -9 655 2 683 14 37 59 34 148 -9z m-2710 -170 c29 -13 77 -47 107 -76
84 -80 133 -199 88 -216 -20 -8 -289 51 -309 68 -18 15 -20 219 -2 237 19 19
58 14 116 -13z m5545 -207 c23 -27 21 -53 -8 -117 -32 -68 -170 -208 -241
-244 -71 -36 -118 -43 -149 -23 -36 24 -35 87 3 147 70 108 197 220 285 250
58 20 84 17 110 -13z m-6153 -9 c168 -15 417 -54 435 -69 21 -18 22 -308 1
-316 -8 -3 -85 2 -172 10 -211 21 -619 21 -779 0 -285 -37 -519 -95 -758 -190
-180 -71 -277 -120 -277 -139 0 -22 9 -20 141 35 268 112 601 209 849 247 221
33 783 22 899 -18 43 -15 31 -25 -38 -32 -153 -16 -272 -107 -287 -219 -8 -58
-18 -67 -80 -74 -27 -2 -118 -11 -202 -19 -274 -27 -496 -80 -802 -190 l-180
-65 -68 10 c-37 5 -96 10 -132 10 -88 0 -139 15 -145 43 -3 12 -20 103 -39
202 -19 99 -42 221 -52 271 -9 49 -14 102 -11 116 8 32 86 120 131 147 45 28
340 125 521 171 326 83 635 103 1045 69z m667 -104 c152 -33 163 -40 163 -108
l1 -52 21 48 c14 32 28 49 44 53 23 6 399 -82 562 -132 102 -31 105 -37 100
-187 -3 -90 -6 -111 -21 -122 -10 -7 -26 -11 -35 -9 -69 15 -492 111 -597 136
-71 17 -135 34 -140 39 -6 4 -29 8 -51 7 -68 -1 -183 23 -207 42 -20 17 -22
27 -25 150 -2 72 -1 138 2 146 8 20 50 18 183 -11z m104 -396 c239 -47 605
-131 702 -160 55 -16 70 -25 78 -47 15 -36 7 -248 -10 -265 -12 -12 1 -15
-432 77 -202 43 -497 93 -599 102 -120 11 -131 24 -80 99 31 45 60 137 60 190
0 18 3 35 7 38 13 14 74 6 274 -34z m977 -15 c51 -24 97 -57 140 -99 68 -67
78 -98 32 -103 -25 -3 -305 70 -318 83 -3 3 -6 32 -7 64 0 101 32 113 153 55z
m-3549 3 c20 -25 111 -440 111 -507 0 -26 -11 -37 -101 -96 -219 -144 -360
-322 -398 -502 -16 -77 -14 -276 4 -347 53 -208 218 -395 402 -457 31 -11 58
-16 61 -13 4 4 -46 57 -110 118 -98 95 -122 123 -150 182 -29 63 -32 79 -31
155 1 97 27 187 74 261 40 64 132 148 208 193 76 44 112 54 129 33 18 -21 234
-1110 235 -1186 l2 -65 -45 -14 c-29 -9 -107 -16 -220 -19 -154 -4 -186 -2
-263 16 -206 49 -356 132 -503 276 -207 204 -286 414 -271 715 13 248 119 503
306 738 112 140 501 532 528 532 12 0 26 -6 32 -13z m3599 -231 c90 -24 176
-52 190 -63 34 -25 40 -48 41 -155 1 -78 -1 -90 -23 -114 l-23 -28 -168 44
c-92 25 -180 52 -195 62 -35 21 -45 71 -38 188 4 76 18 110 42 110 6 0 84 -20
174 -44z m-1333 -92 c371 -42 1032 -177 1074 -219 13 -13 16 -40 16 -145 0
-89 -4 -133 -12 -141 -10 -10 -67 -2 -275 39 -479 95 -671 117 -1023 117 -269
-1 -365 -9 -605 -56 -123 -24 -277 -62 -339 -84 -24 -8 -50 -15 -57 -15 -8 0
-50 34 -95 75 -45 41 -121 100 -170 131 -58 36 -89 62 -89 74 0 23 53 45 245
104 252 77 456 119 655 136 129 11 516 2 675 -16z m330 -428 c468 -72 511 -88
396 -147 -64 -33 -132 -97 -167 -156 -13 -24 -32 -47 -42 -51 -10 -5 -75 -3
-157 5 -100 10 -226 13 -440 9 -278 -4 -312 -6 -471 -34 -95 -17 -247 -52
-338 -78 -193 -55 -187 -57 -213 47 -9 35 -33 106 -54 157 -21 51 -35 100 -32
107 13 36 289 113 558 155 105 17 162 19 455 16 300 -3 353 -7 505 -30z m3322
-156 c79 -45 133 -101 133 -137 0 -58 -130 -295 -222 -406 -52 -62 -75 -74
-97 -53 -14 15 -16 46 -15 245 2 248 1 244 66 339 36 52 61 54 135 12z m-2217
-75 c124 -31 389 -103 590 -160 501 -143 528 -148 780 -149 172 -1 215 2 264
17 76 24 195 85 269 139 87 63 88 60 85 -217 l-3 -220 -60 -32 c-83 -44 -170
-64 -310 -70 -197 -8 -350 22 -818 163 -297 89 -499 142 -872 229 -154 36
-290 69 -302 75 -31 13 -29 29 12 81 22 29 40 68 50 109 9 36 18 71 20 78 8
22 65 13 295 -43z m-3171 27 c66 -21 84 -44 56 -71 -46 -43 -189 -132 -209
-129 -24 3 -43 50 -52 134 -9 74 1 84 85 83 36 0 90 -8 120 -17z m211 -128
c82 -77 170 -236 156 -281 -3 -10 -47 -43 -96 -72 -95 -56 -196 -128 -269
-192 -43 -38 -65 -47 -75 -31 -10 16 -76 353 -76 387 0 28 10 42 63 90 58 54
206 145 235 145 7 0 35 -21 62 -46z m176 -371 c25 -26 15 -261 -16 -358 -47
-150 -129 -260 -240 -323 -66 -38 -97 -41 -109 -9 -5 13 -23 100 -41 195 l-32
172 26 44 c45 78 189 197 323 267 64 34 66 34 89 12z m4764 -217 c15 -20 9
-56 -12 -70 -21 -13 -129 12 -136 32 -5 15 72 51 109 52 15 0 32 -7 39 -14z"/>
</g>
</svg>
