<?xml version="1.0" standalone="no"?>
<!DOCTYPE svg PUBLIC "-//W3C//DTD SVG 20010904//EN"
 "http://www.w3.org/TR/2001/REC-SVG-20010904/DTD/svg10.dtd">
<svg version="1.0" xmlns="http://www.w3.org/2000/svg"
 width="1280.000000pt" height="1116.000000pt" viewBox="0 0 1280.000000 1116.000000"
 preserveAspectRatio="xMidYMid meet">
<metadata>
Created by potrace 1.15, written by Peter Selinger 2001-2017
</metadata>
<g transform="translate(0.000000,1116.000000) scale(0.100000,-0.100000)"
fill="#000000" stroke="none">
<path d="M5696 11133 c3 -18 -5 -59 -23 -108 -24 -68 -202 -346 -1183 -1857
-1029 -1582 -1158 -1777 -1184 -1782 -16 -3 -30 -5 -32 -3 -1 1 542 845 1207
1876 665 1031 1208 1876 1206 1878 -2 2 -550 -841 -1216 -1874 l-1212 -1878
-47 -8 c-26 -4 -112 -22 -192 -40 -118 -26 -168 -32 -265 -32 -105 0 -125 3
-162 22 l-42 23 -33 -43 c-19 -23 -50 -63 -70 -88 -35 -44 -38 -52 -53 -175
-23 -188 -82 -438 -153 -644 l-19 -55 -184 -6 c-101 -4 -366 -12 -589 -18
-223 -6 -474 -14 -558 -17 l-152 -6 0 -158 c0 -133 3 -166 21 -216 52 -149 63
-316 29 -426 -32 -105 -120 -186 -235 -217 -22 -6 -125 -17 -229 -25 -225 -18
-266 -32 -304 -106 -21 -43 -22 -54 -20 -255 l3 -209 33 -10 32 -9 0 -87 0
-87 493 -162 c270 -90 605 -200 742 -245 l250 -82 22 -330 c12 -181 36 -534
53 -784 38 -570 42 -667 23 -674 -8 -4 -13 -22 -13 -54 0 -45 -2 -49 -35 -65
-30 -14 -35 -22 -35 -52 0 -24 -11 -50 -35 -83 -77 -108 -85 -267 -17 -343 23
-25 40 -32 107 -43 44 -7 87 -14 95 -15 8 0 49 -6 90 -11 99 -14 152 -10 156
12 2 14 -3 16 -26 12 -15 -4 -38 0 -51 7 -22 11 -23 11 -11 -4 8 -9 28 -18 45
-20 l32 -4 -31 -1 c-33 -2 -56 16 -60 46 -1 10 -6 27 -9 40 -7 21 -5 22 44 22
79 0 117 20 132 69 11 36 10 43 -7 62 -13 14 -27 19 -46 17 -16 -3 -28 -3 -28
-1 0 3 14 53 31 113 l32 109 58 20 c54 18 59 18 59 3 0 -9 -11 -27 -23 -39
-28 -26 -70 -194 -61 -241 7 -36 -18 -120 -49 -158 -23 -30 -31 -54 -16 -54
13 0 56 69 74 119 9 26 15 78 15 130 0 100 21 184 51 205 14 10 20 23 17 42
-3 27 -8 30 -63 40 l-60 11 50 7 c28 4 55 9 62 11 6 2 13 37 17 87 5 68 57
968 84 1441 4 66 11 118 17 118 6 1 173 -52 371 -117 l362 -119 6 -320 c4
-176 8 -603 9 -950 l2 -630 -45 -5 c-40 -5 -117 -47 -106 -58 3 -2 18 6 35 19
l31 23 72 -32 c40 -18 159 -70 263 -115 l190 -84 -3 -33 c-1 -19 -4 -35 -6
-37 -3 -3 -106 40 -406 172 -96 42 -181 79 -187 82 -9 4 -13 -8 -13 -41 0 -32
5 -48 15 -52 12 -5 15 -26 15 -105 l0 -99 -124 0 c-117 0 -127 -2 -152 -23
-37 -32 -27 -53 31 -60 43 -6 80 -5 203 8 23 3 42 1 42 -4 0 -5 -20 -11 -45
-14 -25 -2 -55 -13 -65 -22 -57 -51 14 -85 137 -65 54 8 77 8 93 0 l22 -12
-21 -14 c-12 -9 -21 -26 -21 -38 0 -18 7 -25 31 -30 46 -9 124 -7 152 3 21 8
49 -1 163 -51 156 -69 140 -68 358 -37 77 10 143 19 148 19 4 0 8 8 8 19 0 10
7 24 15 31 12 10 15 39 15 141 0 79 4 129 10 129 13 0 13 107 0 115 -6 4 -10
60 -10 134 l0 128 326 714 c179 393 339 742 354 776 l28 62 31 -12 c27 -10 31
-17 36 -62 3 -27 35 -511 71 -1075 35 -564 68 -1058 73 -1099 7 -67 6 -74 -11
-79 -15 -4 -18 -15 -18 -67 0 -63 0 -63 -37 -82 -35 -17 -38 -21 -41 -67 -3
-39 -9 -55 -34 -80 -17 -17 -45 -60 -62 -96 -29 -60 -31 -73 -31 -175 0 -102
2 -114 27 -156 16 -27 39 -51 55 -57 39 -16 213 -43 224 -36 6 3 16 1 22 -5
16 -13 231 -35 263 -27 23 6 94 71 94 87 0 14 -27 3 -59 -24 -44 -36 -89 -36
-123 1 -15 15 -30 39 -33 55 l-7 27 65 0 c36 0 69 5 72 10 3 6 17 10 30 10 30
0 50 29 76 107 l19 58 -6 -54 c-3 -29 -12 -73 -20 -97 -8 -25 -12 -49 -9 -54
4 -6 1 -9 -6 -8 -6 2 -13 -2 -16 -9 -2 -6 4 -10 14 -9 33 5 63 116 62 231 -2
146 23 244 67 264 21 9 25 17 22 48 l-3 38 -80 15 c-73 15 -77 17 -46 23 18 4
51 7 72 7 54 0 58 16 64 219 3 91 14 306 25 476 23 358 75 1179 90 1435 15
246 17 260 41 260 14 0 28 18 51 68 44 94 139 187 238 235 93 44 226 83 345
100 l90 13 5 79 5 80 435 41 c239 23 436 43 438 43 1 1 2 48 2 105 0 94 2 105
19 111 10 3 24 19 31 36 33 78 79 107 232 143 125 30 186 51 210 73 16 14 18
34 18 158 l0 143 78 20 c188 50 395 79 887 122 187 16 437 39 555 50 118 11
535 49 925 85 391 36 755 70 810 75 96 9 102 8 152 -16 76 -37 129 -105 166
-216 4 -10 13 -18 21 -18 10 0 16 -17 20 -62 9 -88 84 -1488 85 -1573 1 -97 8
-123 34 -128 25 -4 28 -1 -49 -32 -24 -10 -33 -21 -38 -49 -4 -19 -19 -61 -34
-93 -23 -50 -27 -71 -27 -155 0 -143 11 -154 170 -171 28 -3 92 -12 143 -19
64 -8 98 -9 110 -2 36 21 72 115 82 214 12 119 25 171 44 186 9 6 16 23 16 37
0 23 -5 26 -47 32 -27 3 -57 10 -68 15 -16 7 -13 9 16 9 20 1 50 4 67 7 33 7
36 17 47 179 5 76 38 505 85 1095 38 484 37 477 59 483 9 2 22 22 29 43 13 40
28 61 75 103 23 21 41 25 169 35 l143 11 3 51 3 51 60 6 c33 3 64 8 67 12 4 4
8 30 8 58 2 59 -9 53 149 82 49 10 102 23 117 31 l28 15 0 664 0 665 -24 15
c-38 25 -117 45 -261 66 -444 63 -1584 116 -2150 99 -165 -5 -419 -11 -565
-14 l-265 -5 345 15 345 14 138 40 c409 119 735 300 1192 664 181 145 502 462
637 631 127 159 240 327 268 400 31 82 32 191 2 258 -25 57 -149 190 -169 182
-8 -2 -11 0 -8 5 9 15 -90 57 -175 75 -62 12 -1707 152 -3880 330 -492 40
-583 53 -741 105 -187 61 -308 131 -416 242 -61 62 -133 168 -133 196 0 7 203
298 452 645 248 347 453 641 455 652 7 41 -9 48 -124 52 -103 4 -1949 43
-2005 43 -25 0 -27 -3 -22 -27z m924 -4 c1200 -25 1201 -25 1210 -40 5 -7 7
-15 5 -17 -2 -2 -178 1 -392 7 -213 6 -604 15 -868 21 -812 18 -865 20 -865
37 0 14 27 15 213 9 116 -3 430 -11 697 -17z m-225 -40 c264 -5 653 -14 865
-19 212 -5 423 -10 470 -10 102 0 101 -1 -55 -89 l-109 -62 -466 11 -465 11
-75 29 c-149 58 -213 68 -585 90 -99 6 -196 13 -215 16 -30 4 -37 1 -52 -23
-22 -35 -23 -18 -3 32 l16 37 97 -7 c53 -3 313 -10 577 -16z m-463 -49 c68 -5
193 -14 278 -21 166 -12 269 -35 384 -88 61 -27 186 -106 186 -117 0 -3 -21
10 -47 27 -63 44 -166 85 -261 104 -75 16 -309 36 -577 50 -128 7 -155 14
-155 41 0 17 26 17 192 4z m-1358 -1842 c-636 -986 -1160 -1797 -1164 -1801
-4 -5 -19 -7 -33 -5 -26 3 -25 6 62 138 48 74 561 864 1141 1755 1291 1986
1144 1764 1148 1732 3 -20 -253 -423 -1154 -1819z m3240 1830 c-13 -23 -857
-1203 -870 -1217 -11 -12 -15 -11 -22 10 -5 13 -13 47 -16 74 l-7 50 335 475
335 475 123 72 c140 81 132 77 122 61z m-1709 -58 c330 -21 419 -38 553 -101
154 -74 250 -199 275 -359 11 -75 7 -118 -33 -295 -28 -128 -25 -336 8 -425
26 -75 70 -160 81 -157 4 1 29 -21 55 -50 121 -134 318 -239 560 -299 110 -27
130 -29 3026 -269 767 -63 1430 -122 1472 -130 71 -14 168 -48 168 -59 0 -2
-30 6 -68 19 -78 26 -165 40 -342 54 -69 6 -183 15 -255 21 -71 6 -182 15
-245 20 -63 5 -172 14 -242 20 -71 5 -185 15 -255 20 -71 6 -180 15 -243 20
-123 10 -219 18 -615 50 -137 11 -306 25 -375 30 -69 6 -181 15 -250 20 -69 6
-177 15 -240 20 -63 5 -173 14 -245 20 -71 6 -182 15 -245 20 -63 5 -176 14
-250 20 -182 14 -338 27 -500 41 -412 34 -688 150 -872 368 -21 25 -38 39 -38
33 0 -19 120 -141 185 -187 156 -112 408 -199 630 -219 108 -10 313 -27 685
-56 69 -6 177 -15 240 -20 63 -5 171 -14 240 -20 69 -5 181 -14 250 -20 489
-40 645 -52 870 -70 140 -11 307 -24 370 -30 63 -5 172 -14 243 -20 70 -5 184
-15 255 -20 70 -6 179 -15 242 -20 63 -5 174 -14 245 -20 138 -11 277 -23 490
-41 294 -25 444 -97 512 -247 22 -48 25 -64 21 -140 -5 -106 -33 -169 -139
-317 -308 -430 -682 -783 -1189 -1122 -254 -170 -537 -298 -833 -377 -81 -22
-127 -26 -377 -36 -157 -5 -395 -15 -530 -20 -1025 -42 -2077 -81 -2238 -83
l-193 -2 -31 80 c-38 99 -107 281 -186 490 -185 488 -314 829 -402 1060 -54
143 -135 357 -180 475 -44 118 -94 249 -110 290 -112 288 -190 505 -186 516 3
7 158 233 345 503 188 270 341 495 341 499 0 4 -10 26 -22 50 l-23 42 -130 -1
-130 0 -351 -497 c-602 -851 -1946 -2747 -1953 -2755 -4 -4 -54 8 -112 27
-100 32 -224 57 -355 71 l-61 7 1161 1800 1161 1800 100 -6 c55 -3 172 -10
260 -16z m1281 -69 l171 -6 -314 -445 c-173 -245 -321 -454 -329 -464 -7 -11
-17 -17 -21 -13 -9 10 14 199 33 267 49 174 54 235 30 326 -30 113 -116 228
-223 300 -32 21 -62 42 -68 47 -9 8 328 2 721 -12z m-859 -406 c9 -19 15 -36
12 -38 -2 -2 -56 -2 -120 1 l-117 4 -16 32 c-14 26 -16 27 -10 6 3 -14 6 -32
7 -41 1 -8 -493 -742 -1097 -1631 l-1099 -1617 -61 31 c-34 17 -62 32 -64 33
-5 4 2288 3238 2302 3247 6 4 64 8 129 8 l117 0 17 -35z m11 -60 c2 -2 -148
-222 -334 -489 l-337 -486 -24 26 c-20 22 -30 25 -56 20 -18 -4 -40 -15 -50
-25 -17 -17 -17 -20 7 -91 l24 -73 -750 -1082 -751 -1083 -36 10 c-63 16 -121
40 -121 50 0 5 493 735 1096 1621 l1095 1612 117 -3 c64 -2 118 -5 120 -7z
m-677 -1020 c35 -89 86 -223 189 -495 44 -118 94 -249 110 -290 16 -41 66
-172 110 -290 85 -225 170 -450 250 -660 26 -69 76 -199 110 -290 34 -91 84
-221 110 -290 66 -175 149 -393 290 -765 66 -176 134 -352 149 -391 l29 -72
-37 -6 c-20 -3 -91 -9 -158 -12 -97 -6 -123 -4 -123 6 0 7 -41 139 -91 294
-50 155 -109 337 -131 406 -22 69 -62 193 -88 275 -27 83 -67 209 -90 280 -23
72 -64 198 -90 280 -27 83 -67 209 -90 280 -23 72 -50 155 -60 185 -10 30 -37
114 -60 185 -23 72 -63 198 -90 280 -26 83 -85 265 -130 405 -45 140 -104 323
-130 405 -109 339 -105 322 -90 340 9 10 25 15 49 13 33 -3 36 -6 62 -73z
m-26 -307 c65 -202 73 -229 205 -638 50 -157 110 -341 132 -410 22 -69 62
-195 90 -280 27 -85 53 -166 58 -180 5 -14 45 -140 90 -280 82 -255 143 -446
219 -679 22 -69 39 -126 38 -127 -2 -1 -1814 -71 -2115 -81 l-174 -6 77 154
c43 85 100 194 128 243 l50 90 -16 120 c-10 65 -20 122 -23 125 -5 6 -18 5
-203 -5 l-114 -6 44 64 c25 34 359 516 743 1071 384 554 702 1007 705 1007 4
0 34 -82 66 -182z m-2222 -1753 c155 -25 249 -55 453 -146 167 -74 282 -93
408 -68 31 7 58 10 60 8 2 -2 11 -54 20 -114 l16 -110 -65 -120 c-102 -187
-198 -387 -258 -535 -56 -139 -129 -350 -142 -407 -3 -18 -10 -35 -13 -37 -4
-2 -104 14 -222 35 -118 22 -239 44 -267 49 -29 6 -78 15 -108 20 -30 6 -80
15 -110 20 -30 6 -79 14 -107 20 -29 5 -152 27 -273 50 -121 23 -244 45 -272
50 -29 6 -78 15 -108 20 -30 6 -79 14 -107 19 -72 13 -212 39 -275 52 -29 6
-53 16 -53 22 0 7 29 107 65 222 99 317 132 459 156 674 9 82 12 88 67 160 31
41 60 79 63 84 4 5 32 0 63 -12 84 -31 203 -29 374 9 75 16 162 34 192 39 89
14 346 12 443 -4z m986 -297 c7 -51 15 -104 17 -116 3 -16 -14 -58 -54 -130
-172 -310 -305 -623 -387 -914 -15 -54 -30 -98 -34 -98 -3 0 -13 4 -21 10 -12
8 -10 24 18 117 77 254 189 518 344 807 l101 189 -12 86 c-7 47 -15 98 -18
113 -5 23 -2 28 14 28 18 0 22 -11 32 -92z m6061 -588 c0 -125 -3 -160 -13
-160 -7 0 -71 -4 -143 -9 -71 -6 -210 -15 -309 -21 -99 -6 -247 -15 -330 -20
-294 -20 -452 -30 -620 -40 -93 -6 -237 -15 -320 -20 -153 -10 -334 -21 -665
-40 -401 -23 -548 -37 -730 -71 -133 -25 -196 -44 -238 -69 -49 -30 -39 -51
33 -73 94 -28 112 -37 95 -47 -26 -14 -190 -34 -199 -24 -5 5 -24 52 -44 104
-19 52 -69 187 -112 298 -42 112 -74 206 -71 209 6 6 144 14 606 32 792 32
1621 63 2230 82 460 14 802 26 818 27 9 2 12 -36 12 -158z m235 145 c538 -19
1529 -102 1675 -139 8 -2 28 -7 45 -11 25 -5 27 -8 13 -16 -33 -18 -222 -35
-803 -69 -93 -6 -240 -15 -325 -20 -85 -5 -234 -14 -330 -20 -96 -6 -244 -15
-328 -21 -85 -6 -156 -8 -158 -6 -4 4 -7 262 -4 312 0 3 10 3 23 1 12 -3 99
-8 192 -11z m-1427 -12 c-32 -2 -84 -2 -115 0 -32 2 -6 3 57 3 63 0 89 -1 58
-3z m-255 -10 c-18 -2 -48 -2 -65 0 -18 2 -4 4 32 4 36 0 50 -2 33 -4z m2515
-10 c-10 -2 -26 -2 -35 0 -10 3 -2 5 17 5 19 0 27 -2 18 -5z m135 -10 c-18 -2
-48 -2 -65 0 -18 2 -4 4 32 4 36 0 50 -2 33 -4z m304 -18 c93 -8 186 -17 208
-20 263 -32 405 -66 405 -95 0 -11 -81 -27 -175 -34 -176 -15 -526 -36 -580
-34 -40 0 -21 4 55 9 338 24 421 31 487 41 78 12 107 30 76 46 -33 18 -224 47
-483 72 -260 26 -269 27 -213 29 29 0 128 -6 220 -14z m-5482 -87 c2 -7 41
-128 85 -268 45 -140 88 -274 96 -298 8 -23 14 -45 14 -47 0 -8 -90 -16 -295
-25 -233 -11 -498 -24 -800 -40 -361 -19 -566 -29 -815 -41 l-245 -11 -273 50
c-150 27 -275 51 -277 54 -12 11 161 505 186 532 4 5 95 13 201 17 106 4 303
13 438 18 267 12 560 25 965 42 143 6 334 14 425 18 266 12 290 12 295 -1z
m-752 -5 c-13 -2 -35 -2 -50 0 -16 2 -5 4 22 4 28 0 40 -2 28 -4z m-220 -10
c-29 -2 -77 -2 -105 0 -29 2 -6 3 52 3 58 0 81 -1 53 -3z m-338 -13 c-71 -4
-267 -13 -435 -20 -168 -7 -365 -15 -437 -19 -73 -3 -133 -3 -133 0 0 4 73 10
163 14 368 17 778 32 872 32 100 0 99 0 -30 -7z m7415 -669 l0 -649 -47 -16
c-59 -19 -201 -42 -348 -56 -221 -21 -763 -71 -865 -80 -58 -6 -154 -15 -215
-20 -60 -6 -162 -15 -225 -20 -63 -6 -133 -12 -155 -15 -22 -3 -263 -26 -535
-51 -272 -24 -760 -69 -1085 -99 -324 -29 -651 -59 -725 -65 -396 -32 -670
-70 -853 -115 -54 -14 -100 -25 -102 -25 -3 0 -5 -67 -5 -150 l0 -150 -37 -19
c-43 -21 -112 -41 -224 -65 -99 -22 -159 -60 -187 -118 -23 -50 -28 -52 -152
-62 -92 -8 -276 -24 -405 -36 -60 -6 -261 -24 -445 -40 -332 -29 -472 -42
-665 -60 -55 -5 -206 -19 -335 -30 -129 -11 -280 -25 -335 -30 -193 -18 -333
-31 -665 -60 -184 -16 -384 -34 -445 -40 -218 -20 -439 -40 -452 -40 -10 0
-13 52 -13 258 0 294 6 320 77 366 49 32 91 42 238 61 282 34 363 46 407 61
141 46 238 238 238 470 0 131 -29 293 -66 365 -9 19 -14 80 -14 215 l-2 189
179 11 c98 6 282 17 408 23 127 6 307 16 400 21 94 5 260 14 370 20 110 6 284
15 387 20 104 6 272 14 375 20 104 5 278 14 388 20 372 19 540 31 655 46 152
19 173 22 253 41 86 20 87 39 2 71 -79 30 -108 44 -112 59 -6 18 64 49 152 68
93 19 137 23 820 65 88 6 228 15 310 20 83 5 224 14 315 20 91 6 233 15 315
20 83 5 224 14 315 20 91 5 235 14 320 20 387 25 495 31 635 40 83 5 224 14
315 20 284 18 713 44 985 60 552 32 735 46 800 59 22 5 43 9 48 10 4 0 7 -291
7 -648z m-940 588 c-63 -5 -227 -15 -365 -24 -670 -41 -859 -53 -1050 -65 -82
-5 -223 -14 -312 -20 -407 -25 -731 -45 -1118 -70 -328 -21 -525 -33 -795 -50
-91 -6 -236 -15 -324 -21 -87 -5 -160 -8 -162 -6 -3 2 57 9 133 16 130 10 201
15 633 41 213 13 430 26 650 40 91 6 237 15 325 20 88 6 228 15 310 20 147 10
326 21 635 40 151 9 327 20 635 40 83 5 233 14 335 20 102 6 235 15 295 19 61
5 151 8 200 8 l90 0 -115 -8z m-9635 -38 c-9 -9 -128 -14 -861 -41 -312 -11
-488 -11 -524 0 -20 7 -16 8 25 10 321 12 1148 37 1245 39 75 0 120 -3 115 -8z
m-14 -31 c0 -3 -5 -27 -12 -53 -15 -62 -33 -69 -169 -67 -76 2 -456 -14 -487
-20 -4 0 -4 -110 0 -110 2 0 59 -11 128 -24 408 -81 1417 -279 1784 -351 237
-47 440 -87 453 -90 22 -5 33 -45 11 -45 -6 0 -201 38 -433 85 -231 47 -826
167 -1321 266 l-900 181 -182 -7 -183 -7 0 100 0 100 87 6 c49 3 250 11 448
17 198 6 448 15 555 19 211 7 221 7 221 0z m-1320 -195 c5 -139 9 -169 32
-231 53 -142 59 -305 16 -420 -27 -72 -104 -155 -169 -183 -69 -30 -126 -38
-329 -50 -189 -11 -227 -22 -265 -74 -20 -26 -21 -45 -24 -253 -2 -123 -6
-224 -10 -224 -3 0 -32 7 -65 17 l-58 16 3 218 c3 248 5 255 89 297 38 19 77
25 238 37 130 11 211 22 247 34 111 40 189 120 221 230 24 84 13 259 -23 376
-26 80 -29 107 -32 246 l-3 156 63 -16 63 -16 6 -160z m1096 69 c-3 -3 -12 -4
-19 -1 -8 3 -5 6 6 6 11 1 17 -2 13 -5z m28 -23 c45 -10 244 -47 380 -71 28
-5 124 -23 215 -40 91 -17 188 -35 215 -40 28 -5 124 -23 215 -40 272 -51 591
-110 655 -122 66 -11 80 -20 72 -41 -5 -12 -15 -12 -79 0 -40 8 -95 18 -123
23 -27 5 -149 27 -270 50 -121 23 -242 45 -270 50 -27 5 -174 32 -325 60 -151
28 -300 55 -330 61 -96 17 -142 26 -297 54 -146 27 -153 29 -153 52 0 19 4 23
23 19 12 -3 45 -10 72 -15z m435 -31 c151 -28 299 -55 328 -60 28 -6 77 -14
107 -20 30 -5 79 -14 108 -20 28 -5 176 -32 327 -60 151 -28 299 -55 328 -60
28 -6 77 -14 107 -20 30 -5 79 -14 108 -19 186 -34 255 -49 274 -59 29 -16 30
-16 37 14 5 18 12 24 24 20 9 -3 120 -23 246 -45 126 -23 231 -42 233 -44 3
-4 -102 -10 -457 -27 l-215 -11 -165 31 c-91 17 -187 35 -215 40 -27 5 -124
23 -215 40 -91 17 -187 35 -215 40 -27 5 -149 27 -270 50 -121 23 -242 45
-270 50 -27 5 -124 23 -215 40 -91 17 -187 35 -215 40 -27 5 -149 27 -270 50
-121 23 -241 45 -268 49 -87 15 -62 21 81 21 l142 0 0 -24 c0 -27 -26 -20 283
-76 28 -5 176 -32 327 -60 151 -28 298 -55 325 -60 28 -5 147 -27 265 -49 592
-111 674 -124 703 -112 21 8 27 17 27 41 0 16 -1 30 -3 30 -1 0 -225 41 -497
90 -272 50 -520 95 -550 101 -359 64 -678 127 -650 128 20 1 159 -22 310 -49z
m-673 -11 c120 -22 337 -62 483 -89 146 -27 364 -68 485 -90 121 -23 243 -45
270 -50 28 -5 124 -23 215 -40 91 -17 188 -35 215 -40 28 -5 149 -27 270 -50
121 -22 220 -40 220 -40 0 0 -2 -27 -3 -60 -3 -51 -6 -60 -20 -56 -10 3 -134
28 -277 56 -143 28 -420 83 -615 121 -651 129 -953 188 -1190 234 -129 25
-245 50 -257 55 -19 8 -23 18 -23 50 0 22 2 40 5 40 3 0 103 -18 222 -41z
m430 25 c-3 -3 -12 -4 -19 -1 -8 3 -5 6 6 6 11 1 17 -2 13 -5z m40 -10 c-3 -3
-12 -4 -19 -1 -8 3 -5 6 6 6 11 1 17 -2 13 -5z m70 -10 c-3 -3 -12 -4 -19 -1
-8 3 -5 6 6 6 11 1 17 -2 13 -5z m40 -10 c-3 -3 -12 -4 -19 -1 -8 3 -5 6 6 6
11 1 17 -2 13 -5z m5351 -1 c-10 -2 -26 -2 -35 0 -10 3 -2 5 17 5 19 0 27 -2
18 -5z m-5281 -9 c-3 -3 -12 -4 -19 -1 -8 3 -5 6 6 6 11 1 17 -2 13 -5z m5156
-14 c-161 -42 -179 -90 -48 -130 49 -16 98 -40 92 -46 -7 -8 -141 -33 -253
-48 -138 -19 -315 -33 -574 -46 -113 -6 -289 -15 -392 -20 -104 -6 -273 -14
-378 -20 -104 -5 -275 -14 -380 -20 -104 -5 -275 -14 -380 -20 -104 -5 -277
-15 -382 -20 -106 -6 -274 -15 -373 -21 -240 -14 -444 -14 -475 -1 -21 9 -10
11 60 11 47 1 155 5 240 11 85 5 247 14 360 20 406 20 598 30 780 40 102 5
277 14 390 20 113 6 288 15 390 20 102 5 280 14 395 20 636 32 816 52 803 92
-3 7 -38 23 -79 35 -111 34 -107 32 -81 53 28 23 98 47 210 70 116 24 167 24
75 0z m-5116 4 c-3 -3 -12 -4 -19 -1 -8 3 -5 6 6 6 11 1 17 -2 13 -5z m98 -14
c27 -7 27 -8 5 -8 -14 0 -36 4 -50 8 -20 6 -21 8 -5 8 11 0 34 -4 50 -8z
m-782 -115 c287 -58 871 -175 1297 -261 426 -85 792 -159 813 -165 34 -9 37
-13 37 -44 0 -46 -26 -52 -128 -31 -42 8 -165 34 -272 56 -107 22 -238 49
-290 60 -113 23 -434 90 -575 120 -55 11 -143 29 -195 40 -52 11 -183 38 -290
60 -107 22 -238 49 -290 60 -52 10 -160 33 -240 50 -80 17 -188 40 -240 50
-143 29 -434 90 -440 92 -8 3 148 14 223 16 52 2 191 -23 590 -103z m887 95
c20 -6 21 -8 5 -8 -11 0 -33 4 -50 8 -27 7 -27 8 -5 8 14 0 36 -4 50 -8z
m-1475 -69 c132 -27 285 -59 340 -71 55 -11 143 -29 195 -40 52 -11 183 -38
290 -60 107 -23 215 -45 240 -50 25 -5 133 -27 240 -50 107 -22 238 -49 290
-60 52 -11 183 -38 290 -60 107 -22 215 -45 240 -50 25 -5 133 -27 240 -50
107 -22 218 -45 245 -51 78 -15 85 -18 85 -45 0 -29 0 -29 -120 -4 -120 26
-371 78 -430 90 -25 5 -110 23 -190 40 -80 17 -188 40 -240 50 -52 10 -160 33
-240 50 -157 33 -407 85 -480 100 -25 5 -110 23 -190 40 -80 17 -188 40 -240
50 -52 10 -160 33 -240 50 -190 40 -424 88 -530 109 -81 16 -85 18 -88 45 -3
27 -2 28 25 23 15 -3 136 -28 268 -56z m1548 52 c-7 -2 -19 -2 -25 0 -7 3 -2
5 12 5 14 0 19 -2 13 -5z m50 -10 c-7 -2 -19 -2 -25 0 -7 3 -2 5 12 5 14 0 19
-2 13 -5z m92 -13 c27 -7 27 -8 5 -8 -14 0 -36 4 -50 8 -20 6 -21 8 -5 8 11 0
34 -4 50 -8z m110 -20 c27 -7 27 -8 5 -8 -14 0 -38 4 -55 8 -27 7 -27 8 -5 8
14 0 39 -4 55 -8z m110 -20 c27 -7 27 -8 5 -8 -14 0 -38 4 -55 8 -27 7 -27 8
-5 8 14 0 39 -4 55 -8z m-2122 -11 l57 -12 0 -472 0 -473 -102 -7 c-57 -3
-200 -9 -318 -13 l-215 -7 -5 -45 -5 -45 -75 -10 c-71 -9 -75 -12 -78 -36 -2
-21 -10 -28 -33 -33 -29 -5 -29 -7 -29 -70 0 -36 -5 -68 -11 -71 -7 -5 -9 60
-7 217 4 317 -8 304 312 329 121 10 236 22 254 28 96 29 186 114 223 210 45
116 35 314 -25 460 -28 68 -29 67 57 50z m2232 -9 c27 -7 27 -8 5 -8 -14 0
-38 4 -55 8 -27 7 -27 8 -5 8 14 0 39 -4 55 -8z m-1905 -60 c107 -22 215 -45
240 -50 25 -5 133 -27 240 -50 107 -22 215 -45 240 -50 80 -16 332 -69 480
-100 80 -17 188 -40 240 -50 52 -10 160 -33 240 -50 80 -17 165 -35 190 -40
43 -9 109 -22 527 -110 106 -22 199 -37 207 -34 11 4 17 -3 22 -23 3 -15 12
-51 20 -78 45 -161 57 -369 28 -491 -31 -136 -109 -241 -208 -284 -48 -20 -76
-24 -383 -54 l-142 -14 -108 28 c-59 15 -153 40 -208 55 -117 32 -279 75 -540
145 -38 10 -137 37 -220 59 -184 48 -275 73 -415 111 -160 44 -250 68 -395
106 -71 18 -168 44 -215 57 l-85 24 -3 473 -2 473 27 -6 c16 -3 116 -24 223
-47z m2213 4 c139 -25 254 -48 257 -51 5 -6 -46 1 -130 16 -276 50 -396 73
-399 77 -9 8 26 3 272 -42z m297 -83 c0 -10 -9 -21 -20 -24 -14 -4 -20 0 -20
12 0 21 9 31 27 31 7 0 13 -8 13 -19z m248 -142 l72 -12 0 -178 c0 -151 3
-184 19 -221 67 -156 86 -416 42 -572 -27 -97 -60 -154 -118 -205 -53 -47
-108 -67 -223 -80 -208 -25 -404 -51 -438 -61 -59 -15 -108 -55 -133 -107 -23
-46 -24 -61 -29 -304 l-5 -256 -87 25 -88 25 0 241 c0 132 5 257 10 277 17 60
52 102 110 131 57 28 88 33 380 59 81 7 156 19 187 31 175 65 272 288 244 563
-7 61 -25 163 -41 227 -27 106 -30 134 -30 279 l0 161 28 -6 c15 -3 60 -10
100 -17z m-142 -285 c-3 -8 -10 -14 -16 -14 -14 0 -13 43 3 59 10 10 13 8 15
-9 2 -12 1 -28 -2 -36z m8574 -378 l0 -55 -42 -5 c-24 -3 -110 -10 -193 -15
-82 -6 -188 -14 -235 -17 -65 -5 -115 -1 -210 16 -69 12 -145 25 -170 29 -61
10 -34 16 145 31 229 18 670 61 674 66 2 2 10 4 18 4 9 0 13 -16 13 -54z
m-11710 -37 c0 -5 4 -7 10 -4 6 3 7 -1 3 -10 -4 -12 -8 -13 -13 -5 -5 9 -9 9
-14 1 -11 -17 3 -31 29 -31 13 0 27 -5 31 -11 3 -6 21 -9 40 -7 21 2 35 -1 38
-9 3 -7 16 -13 30 -13 14 0 28 -4 31 -10 3 -5 17 -10 30 -10 13 0 27 -5 30
-10 3 -6 17 -7 30 -4 12 3 26 1 29 -5 4 -6 18 -11 31 -11 13 0 27 -4 30 -10 3
-5 24 -10 46 -10 21 0 39 -4 39 -10 0 -5 13 -10 29 -10 17 0 33 -4 36 -10 3
-5 17 -10 30 -10 13 0 27 -4 30 -10 3 -5 19 -8 36 -6 16 2 32 0 35 -5 3 -5 16
-9 29 -9 13 0 27 -4 30 -10 3 -5 26 -10 51 -10 25 0 43 -4 40 -9 -7 -11 9 -18
68 -26 25 -4 49 -11 52 -16 3 -5 20 -9 38 -9 19 0 39 -7 47 -16 7 -8 21 -13
31 -11 10 3 21 1 24 -4 3 -5 27 -9 55 -9 34 0 48 -4 46 -12 -1 -8 11 -14 28
-16 17 -2 35 -8 41 -13 7 -5 41 -12 77 -16 40 -3 65 -10 64 -17 -1 -6 12 -12
28 -14 17 -2 34 -8 40 -13 5 -5 28 -9 52 -9 24 0 43 -4 43 -10 0 -5 13 -10 29
-10 17 0 33 -4 36 -10 3 -5 19 -10 35 -10 16 0 32 -4 35 -10 3 -5 26 -10 51
-10 30 0 43 -4 42 -12 -2 -8 10 -14 27 -16 17 -2 34 -8 39 -13 6 -5 32 -9 59
-9 28 0 46 -4 42 -10 -3 -5 7 -12 22 -16 15 -3 35 -8 43 -12 23 -9 40 -12 108
-18 43 -5 62 -11 62 -20 0 -9 12 -14 35 -14 19 0 35 -4 35 -10 0 -5 16 -10 35
-10 40 0 39 1 24 -37 -6 -15 -14 -73 -18 -129 l-6 -101 -175 53 c-96 29 -386
116 -645 194 -259 78 -513 155 -565 170 -52 15 -261 78 -465 140 -203 62 -414
125 -467 141 -54 16 -142 42 -195 58 -54 16 -129 39 -167 50 -38 11 -71 22
-73 24 -2 3 21 8 52 12 l55 6 0 45 0 44 43 1 c55 2 308 15 325 17 6 1 12 -3
12 -9z m60 -10 c0 -5 5 -7 11 -3 8 4 8 0 0 -15 -14 -25 -23 -28 -14 -3 6 15 5
15 -10 3 -21 -16 -30 -11 -21 13 7 18 34 22 34 5z m197 -6 c-83 -3 -109 -7
-114 -18 -6 -18 -67 -21 -61 -3 7 20 47 26 168 25 l115 -1 -108 -3z m10613 -9
c47 -8 123 -21 170 -29 138 -24 130 -20 130 -64 l0 -38 -108 -5 c-161 -8 -233
-48 -290 -160 l-17 -34 -155 31 -154 30 -19 50 c-29 78 -80 139 -150 176 l-30
16 39 6 c21 3 102 11 179 17 77 6 145 13 150 15 26 9 179 3 255 -11z m-10719
-41 c-12 -20 -14 -14 -5 12 4 9 9 14 11 11 3 -2 0 -13 -6 -23z m44 5 c-6 -22
-6 -22 9 -4 9 11 16 16 16 10 0 -21 -17 -33 -38 -28 -18 5 -20 10 -11 25 14
27 32 24 24 -3z m11383 -30 l-3 -43 -155 -12 c-85 -6 -174 -12 -197 -12 l-43
-1 0 45 0 45 63 1 c34 1 89 5 122 9 33 4 95 8 138 9 l78 1 -3 -42z m-11324 17
c-4 -8 -12 -15 -20 -15 -8 0 -11 6 -8 15 4 8 12 15 20 15 8 0 11 -6 8 -15z
m16 -15 c-6 -11 -13 -20 -16 -20 -2 0 0 9 6 20 6 11 13 20 16 20 2 0 0 -9 -6
-20z m66 6 c7 -8 23 -12 35 -9 19 5 20 4 10 -16 -14 -26 -43 -29 -35 -3 5 14
3 14 -11 -3 -17 -20 -17 -20 -10 3 6 21 5 22 -14 11 -24 -16 -39 -5 -21 16 16
19 27 19 46 1z m64 -37 c-7 -11 -14 -18 -17 -15 -3 3 0 12 7 21 18 21 23 19
10 -6z m283 14 c-13 -2 -35 -2 -50 0 -16 2 -5 4 22 4 28 0 40 -2 28 -4z m-209
-17 c-5 -13 -63 -29 -73 -20 -2 2 2 10 9 19 16 20 72 21 64 1z m-969 -5 c17
-5 286 -86 600 -181 314 -94 689 -208 835 -252 250 -75 321 -97 558 -167 75
-22 664 -200 755 -227 16 -5 26 -54 11 -54 -4 0 -66 18 -138 41 -166 51 -226
69 -356 109 -58 17 -116 35 -130 40 -14 5 -70 22 -125 39 -89 27 -798 244
-950 290 -33 11 -107 33 -165 51 -58 18 -130 40 -160 49 -30 10 -216 67 -412
127 -293 89 -358 112 -358 127 0 20 -3 19 35 8z m1025 -22 c-14 -24 -42 -26
-34 -1 5 16 5 16 -9 0 -19 -24 -30 -23 -16 1 7 10 24 18 40 19 26 1 28 -2 19
-19z m6 -27 c-18 -16 -18 -16 -6 6 6 13 14 21 18 18 3 -4 -2 -14 -12 -24z
m106 11 c20 -4 25 -9 20 -22 -5 -14 -4 -14 13 -1 17 14 18 14 5 -10 -8 -15
-15 -20 -18 -12 -2 6 -14 12 -28 12 -18 0 -22 4 -18 18 5 14 3 14 -11 -3 -17
-20 -17 -20 -11 5 6 23 6 23 -7 8 -15 -18 -37 -24 -37 -10 0 17 26 33 45 27
11 -4 32 -9 47 -12z m-902 -84 c146 -44 276 -84 290 -89 14 -5 72 -23 130 -40
58 -17 116 -35 130 -40 14 -5 70 -22 125 -39 55 -16 336 -102 625 -191 289
-89 568 -174 620 -190 459 -140 596 -183 604 -191 16 -14 -4 -11 -90 15 -119
37 -466 143 -579 177 -55 17 -156 48 -225 69 -69 21 -172 53 -230 70 -97 29
-278 85 -425 130 -33 10 -107 32 -165 50 -58 17 -161 49 -230 70 -69 21 -172
53 -230 70 -58 17 -161 49 -230 70 -69 21 -172 52 -230 70 -185 55 -219 68
-185 69 16 1 149 -35 295 -80z m11501 47 c-17 -17 -39 -52 -50 -77 l-20 -46
-178 -12 c-98 -7 -186 -14 -196 -16 -16 -3 -18 1 -12 23 9 38 48 86 91 113 57
35 127 47 267 46 l127 -1 -29 -30z m-11721 -15 c157 -49 488 -150 595 -182 55
-17 156 -48 225 -69 69 -21 172 -53 230 -70 58 -17 161 -49 230 -70 69 -21
170 -52 225 -69 55 -16 190 -57 300 -91 110 -34 245 -75 300 -91 55 -17 156
-48 225 -69 176 -54 318 -97 369 -111 23 -7 45 -18 48 -24 2 -7 3 -44 1 -82
l-3 -71 -40 13 c-22 7 -128 41 -235 75 -426 135 -636 202 -660 210 -14 5 -110
36 -215 69 -178 56 -414 130 -705 223 -69 21 -136 43 -150 48 -14 5 -99 32
-190 60 -91 28 -176 55 -190 60 -14 5 -113 37 -220 70 -107 34 -210 67 -227
73 -32 11 -33 13 -33 69 0 39 4 58 12 58 7 0 55 -13 108 -29z m1197 12 c-9 -9
-19 -14 -23 -11 -10 10 6 28 24 28 15 0 15 -1 -1 -17z m27 -10 c-5 -17 -5 -17
9 0 12 15 32 17 158 15 l144 -2 -115 -3 c-89 -3 -116 -7 -123 -19 -6 -10 -22
-14 -53 -13 -46 3 -52 7 -32 27 16 16 18 15 12 -5z m82 -31 c-18 -16 -18 -16
-6 6 6 13 14 21 18 18 3 -4 -2 -14 -12 -24z m44 -2 c-12 -23 -30 -27 -30 -7 0
17 10 27 27 27 11 0 11 -5 3 -20z m20 -10 c-6 -11 -13 -20 -16 -20 -2 0 0 9 6
20 6 11 13 20 16 20 2 0 0 -9 -6 -20z m44 -4 c-7 -17 -34 -23 -34 -6 0 9 32
31 38 26 1 -2 0 -11 -4 -20z m333 8 c-3 -3 -12 -4 -19 -1 -8 3 -5 6 6 6 11 1
17 -2 13 -5z m-317 -24 c-6 -11 -13 -20 -16 -20 -2 0 0 9 6 20 6 11 13 20 16
20 2 0 0 -9 -6 -20z m107 13 c-21 -2 -41 -11 -44 -19 -4 -12 -53 -21 -53 -10
0 29 16 36 74 34 43 -1 50 -3 23 -5z m-31 -41 c-18 -16 -18 -16 -6 6 6 13 14
21 18 18 3 -4 -2 -14 -12 -24z m54 13 c0 -16 -27 -32 -37 -21 -7 7 16 36 28
36 5 0 9 -7 9 -15z m330 -5 c-8 -5 -64 -10 -123 -10 -86 0 -109 -3 -113 -15
-4 -9 -19 -15 -40 -15 -31 0 -34 2 -24 20 9 18 23 20 153 23 78 1 147 4 152 5
6 1 3 -3 -5 -8z m-1860 -68 c261 -83 555 -177 635 -202 50 -16 149 -47 220
-70 72 -23 171 -54 220 -70 50 -16 191 -61 315 -100 124 -39 266 -84 315 -100
50 -16 149 -47 220 -70 72 -23 171 -54 220 -70 190 -59 531 -169 550 -176 11
-4 25 -14 30 -21 15 -19 172 -63 228 -63 l47 0 0 -109 0 -109 -75 24 c-106 34
-733 240 -1015 334 -129 43 -345 114 -480 158 -135 44 -568 187 -962 317
l-718 236 0 78 0 78 78 -17 c42 -10 120 -31 172 -48z m1536 40 c-18 -16 -18
-16 -6 6 6 13 14 21 18 18 3 -4 -2 -14 -12 -24z m100 -24 c-18 -26 -22 -17 -5
14 6 11 13 17 16 15 3 -3 -2 -16 -11 -29z m9452 6 l132 -27 0 -788 c0 -477 -4
-789 -9 -789 -5 0 -50 9 -99 21 l-89 20 -6 112 c-4 62 -22 396 -41 742 -20
347 -37 654 -39 683 -2 33 0 52 7 52 6 0 71 -12 144 -26z m-9398 7 c0 -12 -29
-35 -36 -28 -11 10 5 37 21 37 8 0 15 -4 15 -9z m6 -29 c-18 -16 -18 -16 -6 6
6 13 14 21 18 18 3 -4 -2 -14 -12 -24z m9889 -14 c-3 -24 -30 -358 -60 -743
-70 -896 -58 -802 -105 -810 -21 -4 -72 -10 -114 -14 l-76 -7 0 792 0 792 69
7 c38 4 112 10 163 15 51 4 101 8 110 9 15 1 17 -6 13 -41z m-9667 22 c78 1
149 3 157 6 7 3 22 1 32 -5 13 -8 -19 -10 -123 -11 -117 0 -143 -3 -148 -15
-3 -9 -18 -15 -35 -15 -24 0 -29 3 -25 18 5 16 5 16 -9 0 -8 -10 -18 -18 -23
-18 -4 0 -3 5 4 12 7 7 12 17 12 22 0 6 -5 5 -12 -2 -18 -18 -39 -15 -31 4 4
11 13 14 32 10 14 -3 90 -6 169 -6z m-68 -50 c-6 -12 -14 -20 -17 -17 -2 3 1
14 8 26 17 26 24 19 9 -9z m48 0 c-11 -17 -38 -28 -38 -16 0 18 15 36 31 36
17 0 18 -3 7 -20z m22 -9 c-5 -11 -15 -23 -22 -27 -7 -5 -8 -2 -3 7 21 37 44
55 25 20z m293 12 c-34 -2 -93 -2 -130 0 -37 2 -9 3 62 3 72 0 102 -1 68 -3z
m-213 -23 c-8 -14 -21 -20 -46 -20 -32 0 -34 2 -24 20 8 14 21 20 46 20 32 0
34 -2 24 -20z m18 -20 c-7 -11 -16 -20 -20 -20 -5 0 -3 9 4 20 7 11 16 20 20
20 5 0 3 -9 -4 -20z m46 -2 c-6 -21 -5 -22 11 -8 17 14 18 14 5 -10 -8 -15
-15 -20 -18 -12 -2 6 -12 12 -23 12 -17 0 -18 3 -7 20 18 28 41 26 32 -2z m74
-10 c-6 -16 -36 -34 -44 -25 -9 9 15 37 33 37 8 0 13 -5 11 -12z m8 -30 c-18
-26 -22 -17 -5 14 6 11 13 17 16 15 3 -3 -2 -16 -11 -29z m229 20 c-106 -6
-141 -12 -148 -23 -5 -9 -22 -15 -43 -15 -31 0 -33 2 -22 20 13 21 56 26 253
27 94 0 91 0 -40 -9z m-75 -26 c0 -14 -24 -42 -36 -42 -11 0 -14 6 -9 23 6 21
6 21 -14 -3 -22 -27 -28 -21 -10 9 8 11 23 18 40 17 16 -1 29 -2 29 -4z m6
-40 c-18 -16 -18 -16 -6 6 6 13 14 21 18 18 3 -4 -2 -14 -12 -24z m243 21
c-121 -3 -138 -6 -154 -23 -10 -11 -31 -20 -47 -20 -31 0 -33 3 -18 31 10 18
22 19 183 17 l172 -2 -136 -3z m-139 -48 c-7 -9 -15 -13 -18 -10 -3 2 1 11 8
20 7 9 15 13 18 10 3 -2 -1 -11 -8 -20z m60 16 c0 -6 -10 -17 -22 -26 -26 -17
-37 -3 -18 20 14 17 40 20 40 6z m15 -23 c-6 -21 -5 -22 8 -5 8 9 22 17 31 17
14 0 15 -4 6 -20 -7 -14 -20 -19 -44 -18 -34 1 -34 2 -19 25 19 29 26 29 18 1z
m63 -27 c-7 -12 -16 -21 -21 -21 -4 0 0 11 9 25 20 30 31 26 12 -4z m307 19
c-3 -6 -52 -10 -111 -10 -84 0 -106 -3 -110 -15 -4 -10 -20 -15 -45 -15 -36 0
-39 2 -29 20 9 16 23 20 93 23 187 7 208 7 202 -3z m-207 -49 c-7 -12 -16 -21
-21 -21 -4 0 0 11 9 25 20 30 31 26 12 -4z m52 -1 c-6 -11 -20 -20 -30 -20
-18 0 -19 3 -8 20 7 11 21 20 31 20 15 0 16 -3 7 -20z m18 -19 c-7 -12 -16
-21 -21 -21 -4 0 0 11 9 25 20 30 31 26 12 -4z m62 11 c0 -14 -24 -32 -42 -32
-16 0 -17 3 -8 20 10 19 50 29 50 12z m-1356 -570 c6 -178 14 -434 36 -1147 5
-175 8 -320 7 -322 -3 -2 -108 45 -115 52 -4 4 -5 18 -67 937 -25 368 -45 681
-45 697 l0 30 88 -30 89 -30 7 -187z m5366 138 c0 -95 -1 -100 -22 -104 -13
-3 -201 -21 -418 -41 -217 -19 -441 -40 -497 -45 -57 -6 -150 -14 -208 -20
-58 -5 -153 -15 -212 -20 -166 -16 -308 -30 -418 -40 -55 -5 -149 -14 -210
-20 -60 -6 -155 -15 -210 -20 -55 -5 -147 -14 -205 -19 -58 -6 -152 -15 -210
-20 -58 -6 -154 -15 -215 -21 -60 -6 -155 -15 -210 -20 -55 -5 -147 -14 -205
-19 -58 -6 -157 -15 -220 -21 -63 -6 -153 -15 -200 -21 -133 -14 -120 -25
-120 100 l0 109 48 6 c26 3 72 8 102 11 30 2 102 9 160 14 58 6 161 15 230 21
69 6 170 15 225 20 241 22 350 32 665 60 332 29 472 42 665 60 55 5 206 19
335 30 277 24 418 37 555 50 55 5 208 19 340 30 132 12 272 25 310 29 39 5 87
9 108 10 l37 1 0 -100z m-5116 -35 l216 -70 0 -40 c0 -87 -82 -1430 -88 -1437
-4 -3 -59 -11 -122 -18 -63 -6 -133 -14 -155 -17 l-41 -5 -12 393 c-7 217 -17
536 -22 709 -6 173 -12 370 -14 438 -4 101 -2 123 9 120 7 -2 110 -34 229 -73z
m4236 -234 c0 -78 3 -74 -85 -86 -103 -13 -253 -57 -342 -101 -119 -57 -196
-130 -244 -230 l-33 -70 -136 -12 c-74 -7 -180 -17 -235 -23 -55 -5 -134 -13
-175 -17 l-74 -7 -29 57 c-15 31 -44 71 -65 89 -95 83 -289 129 -549 129
l-113 0 0 70 c0 82 -13 74 160 90 249 23 323 30 640 60 58 6 152 15 210 20 58
5 152 14 210 20 58 6 152 15 210 20 58 5 152 14 210 20 58 6 159 15 225 21 66
5 125 12 130 14 6 2 27 4 48 4 l37 1 0 -69z m-3191 -111 c29 -10 55 -21 57
-23 2 -2 5 -429 6 -950 2 -768 1 -947 -10 -947 -7 0 -30 9 -51 19 l-38 20 -7
753 c-3 414 -9 842 -13 951 -3 108 -4 197 -2 197 2 0 28 -9 58 -20z m1101 -85
c0 -46 -4 -65 -13 -65 -7 0 -76 20 -152 45 -77 24 -145 45 -151 45 -8 0 -13
-109 -17 -358 l-5 -358 -47 -105 c-26 -57 -50 -108 -54 -112 -4 -4 -6 16 -5
45 2 29 9 240 15 468 6 228 13 417 16 420 3 3 24 6 46 7 48 1 245 22 267 27 8
2 34 4 58 5 l42 1 0 -65z m-930 29 c25 -8 51 -18 58 -23 10 -6 15 -160 22
-717 5 -390 10 -800 10 -910 l0 -202 -57 -6 c-32 -4 -73 -10 -90 -13 l-33 -5
0 952 0 951 23 -6 c12 -4 42 -14 67 -21z m497 -156 c-4 -84 -16 -508 -27 -943
-12 -434 -23 -813 -26 -842 l-5 -52 -67 -6 c-37 -3 -84 -8 -104 -11 l-38 -6 0
994 0 995 93 10 c50 5 112 10 136 11 l44 2 -6 -152z m124 -739 c-7 -574 -14
-866 -21 -873 -7 -7 -9 70 -5 254 8 406 15 978 15 1255 0 180 3 246 11 238 8
-8 8 -250 0 -874z m147 831 c56 -17 102 -35 102 -40 0 -14 -221 -494 -232
-505 -8 -7 -9 -4 -4 8 3 10 6 145 6 299 0 231 2 279 13 275 8 -3 60 -19 115
-37z m-552 -952 c-4 -541 -10 -985 -12 -987 -2 -3 -24 5 -48 16 l-43 21 -6 69
c-4 37 -9 472 -13 966 l-7 897 68 0 68 0 -7 -982z m684 904 c0 -13 -251 -556
-262 -567 -20 -19 4 38 126 307 106 234 136 292 136 260z m361 -38 c17 -16 35
-37 41 -47 7 -14 -61 -172 -327 -755 -185 -405 -340 -740 -343 -744 -4 -4 -6
210 -4 475 l3 482 142 314 142 313 158 -4 157 -5 31 -29z m79 11 c143 -21 246
-77 301 -163 41 -65 39 -74 -13 -58 -280 86 -277 85 -293 122 -8 20 -29 54
-47 76 -26 33 -28 39 -12 35 10 -3 39 -8 64 -12z m-34 -158 c-61 -136 -760
-1666 -774 -1692 -8 -16 -17 -25 -19 -19 -3 9 95 228 622 1381 98 215 182 390
187 387 4 -3 -3 -28 -16 -57z m246 -53 l126 -39 6 -140 c3 -77 10 -329 16
-560 17 -705 30 -1184 34 -1318 3 -71 1 -127 -3 -125 -5 2 -49 21 -100 43 -86
37 -91 41 -91 70 0 16 -5 91 -10 165 -5 74 -34 524 -64 1000 -31 476 -57 884
-60 908 -2 29 0 42 8 39 6 -2 68 -21 138 -43z m696 -271 c-85 -1351 -119
-1867 -122 -1870 -2 -2 -45 -8 -95 -13 -50 -6 -132 -14 -183 -20 -51 -5 -93
-8 -94 -7 -2 2 -9 243 -34 1147 -5 190 -12 464 -15 610 -3 146 -8 291 -11 322
l-6 57 34 5 c18 3 94 10 168 17 74 6 162 15 195 19 33 4 87 8 120 9 l61 1 -18
-277z m6045 167 l37 -11 0 -64 c0 -36 -3 -65 -6 -65 -4 0 -46 9 -94 21 -98 22
-100 25 -100 111 l0 46 63 -14 c34 -7 79 -18 100 -24z m273 -52 c-4 -35 -9
-64 -10 -66 -2 -1 -49 -8 -104 -15 l-102 -13 0 67 0 68 48 6 c26 3 54 8 62 9
8 2 37 4 64 5 l49 1 -7 -62z m-324 -101 c9 -14 13 -14 -54 -9 -57 4 -75 16
-40 25 25 8 86 -3 94 -16z m126 0 c32 2 52 -2 52 -8 0 -16 -146 -7 -162 10
-11 11 -7 12 22 5 19 -5 59 -8 88 -7z m133 -17 c18 0 28 -4 24 -10 -3 -5 -34
-10 -68 -10 -58 0 -60 1 -37 14 14 8 31 12 38 10 8 -2 27 -4 43 -4z m-133 -24
c52 -8 95 -16 97 -18 2 -1 -10 -52 -25 -113 -16 -60 -29 -123 -30 -140 0 -25
-2 -27 -10 -13 -7 12 -3 47 14 120 14 56 22 106 18 109 -8 8 -225 38 -287 40
-22 1 -47 -2 -56 -5 -13 -6 -16 -2 -11 20 l5 27 96 -7 c53 -3 138 -12 189 -20z
m192 -6 c0 -5 -8 -18 -18 -28 -11 -11 -22 -39 -26 -63 -3 -24 -13 -66 -21 -94
-7 -27 -16 -62 -20 -77 -3 -16 -10 -28 -15 -28 -16 0 -12 57 5 74 17 16 5 29
-18 20 -11 -4 -9 15 12 92 20 73 31 99 46 105 29 11 55 11 55 -1z m-351 -36
c1 -1 -6 -13 -18 -25 -27 -29 -51 -100 -58 -174 -5 -54 2 -97 22 -148 7 -17 4
-18 -41 -12 -69 10 -82 20 -95 68 -26 95 19 276 73 296 19 7 107 4 117 -5z
m41 -9 c0 -2 -11 -20 -24 -40 -14 -20 -30 -62 -37 -93 -13 -64 -7 -188 10
-205 16 -16 14 -27 -4 -20 -69 26 -55 297 18 348 21 15 37 19 37 10z m112 -11
l46 -6 -24 -36 c-51 -75 -70 -215 -39 -289 8 -20 14 -37 13 -39 -2 -1 -30 2
-63 7 -40 6 -66 16 -77 30 -47 56 -30 239 28 309 27 31 40 34 116 24z m43 -83
c-4 -17 -13 -31 -21 -31 -18 0 -18 4 2 41 19 37 28 32 19 -10z m-7818 -495
l-6 -524 -40 -88 c-33 -73 -44 -89 -62 -89 -26 0 -25 -40 -8 554 l11 373 49
110 c28 61 48 112 46 114 -2 2 -23 -38 -47 -88 -23 -51 -44 -88 -47 -81 -4 12
96 243 105 243 2 0 2 -236 -1 -524z m7792 433 c-6 -12 -11 -44 -11 -70 0 -27
-4 -49 -9 -49 -10 0 -12 63 -3 109 4 17 13 31 21 31 11 0 11 -4 2 -21z m21
-112 c0 -5 -4 -5 -10 -2 -5 3 -10 14 -10 23 0 15 2 15 10 2 5 -8 10 -19 10
-23z m61 -46 c-28 -54 -57 -70 -82 -45 -10 11 -21 31 -24 45 -6 26 -5 27 49
33 31 4 59 12 63 19 5 8 8 8 10 0 2 -6 -5 -30 -16 -52z m-9937 -151 l66 -29 0
-76 0 -75 -58 29 -58 29 -12 65 c-13 69 -14 87 -8 87 2 0 34 -13 70 -30z m390
-72 c-3 -40 -9 -76 -13 -80 -3 -4 -70 -13 -148 -20 l-143 -14 0 77 0 77 78 8
c42 4 100 10 127 14 28 4 63 8 78 9 l28 1 -7 -72z m-454 -68 c0 -49 -3 -58
-15 -54 -11 5 -15 21 -15 60 0 41 4 54 15 54 12 0 15 -13 15 -60z m55 -16 c19
-15 19 -15 -9 -12 -16 2 -31 9 -34 16 -5 17 19 15 43 -4z m25 -39 c0 -10 -10
-15 -30 -15 -20 0 -30 5 -30 15 0 10 10 15 30 15 20 0 30 -5 30 -15z m90 0
c25 0 69 3 98 7 47 6 52 5 52 -12 0 -18 -7 -20 -65 -20 -75 0 -165 17 -165 32
0 6 7 7 18 2 9 -5 37 -8 62 -9z m-182 -36 c4 -31 -18 -52 -50 -47 -15 2 -24
11 -26 26 -5 32 16 54 47 50 20 -2 27 -9 29 -29z m413 24 l34 -7 -54 -16 c-30
-10 -64 -15 -75 -12 -19 5 -19 6 2 13 12 5 22 13 22 19 0 12 24 13 71 3z
m-180 -34 c42 -6 81 -14 87 -18 8 -5 0 -48 -28 -147 -40 -139 -45 -176 -25
-203 8 -11 6 -13 -5 -9 -26 8 -24 89 5 178 27 87 32 135 14 146 -6 4 -44 8
-85 9 -60 1 -80 6 -113 28 -23 15 -41 30 -41 34 0 6 74 0 191 -18z m-159 -25
l50 -37 -25 -25 c-27 -27 -53 -25 -64 5 -3 10 -12 25 -19 33 -12 14 -9 60 3
60 3 0 28 -16 55 -36z m-128 -30 c21 -8 21 -82 0 -166 -20 -76 -13 -166 16
-213 l20 -32 -53 9 c-88 16 -111 53 -111 173 1 93 28 170 76 210 33 28 31 27
52 19z m335 -10 c10 -9 -8 -11 -66 -6 -35 2 -63 9 -63 14 0 9 119 2 129 -8z
m-271 -61 c-2 -42 -8 -68 -15 -71 -10 -3 -13 15 -13 67 0 57 3 71 15 71 13 0
15 -12 13 -67z m242 39 c0 -4 -8 -12 -18 -18 -29 -19 -70 -106 -81 -173 -12
-72 -2 -136 28 -187 l18 -31 -51 5 c-28 2 -61 10 -73 18 -86 54 -74 271 19
365 27 26 36 29 94 29 35 0 64 -3 64 -8z m-206 -64 c-19 -36 -23 -34 -17 9 4
21 9 30 19 26 11 -4 11 -10 -2 -35z m222 -2 c-8 -40 -19 -50 -46 -41 l-21 7
25 33 c14 18 22 36 18 39 -3 4 2 4 12 0 14 -5 17 -14 12 -38z m-252 -66 c-3
-8 -8 -44 -11 -80 -4 -51 0 -77 16 -119 11 -30 19 -56 18 -57 -2 -2 -14 2 -27
9 -37 18 -64 82 -65 152 0 91 8 112 45 111 23 -1 29 -5 24 -16z m220 -23 c-11
-21 -15 -47 -12 -84 l5 -53 -30 0 -30 0 6 69 c7 88 18 110 51 104 25 -5 25 -6
10 -36z m112 -33 c8 -30 -11 -77 -29 -72 -6 3 -14 22 -17 44 -5 37 -6 37 -13
12 -4 -14 -5 -35 -2 -45 3 -11 1 -9 -6 5 -9 17 -9 28 -1 48 7 14 16 23 21 19
5 -3 12 -1 16 5 11 18 24 11 31 -16z m1040 -180 c61 -27 99 -28 217 -8 l37 7
0 -56 0 -55 65 -27 c69 -30 55 -29 260 -9 43 4 65 2 79 -8 16 -13 2 -16 -122
-31 l-139 -17 -254 111 c-140 61 -256 113 -258 115 -15 15 67 -1 115 -22z
m774 -104 c0 -60 -4 -100 -10 -100 -11 0 -14 157 -4 184 12 30 14 16 14 -84z
m-690 -72 l280 -122 0 -34 c0 -18 -4 -32 -8 -30 -5 2 -138 59 -295 128 l-287
125 0 34 c0 26 3 32 15 27 9 -3 142 -61 295 -128z m660 52 c0 -59 0 -60 -24
-49 l-24 11 20 49 c12 27 22 49 24 49 2 0 4 -27 4 -60z m-467 -218 l107 -47 0
-152 c0 -84 -1 -153 -3 -153 -4 0 -261 111 -265 114 -4 5 41 32 66 40 19 7 22
4 22 -22 0 -20 6 -31 18 -35 9 -2 25 -8 35 -12 15 -7 17 2 17 92 l0 99 -35 17
-35 17 0 -34 c0 -32 -3 -34 -37 -39 -21 -2 -41 -2 -45 0 -5 2 -8 28 -8 57 0
47 -3 54 -25 64 -38 18 -45 15 -45 -18 0 -16 -4 -30 -9 -30 -5 0 -23 -3 -40
-6 l-31 -6 0 59 c0 58 -1 59 -33 71 -45 16 -45 16 -49 -20 -3 -30 -6 -33 -40
-36 l-38 -3 0 95 0 94 183 -79 c100 -44 230 -101 290 -127z m472 134 c23 -19
26 -26 15 -29 -23 -8 -372 -49 -376 -45 -2 2 0 17 4 34 8 28 10 29 118 45 163
25 203 24 239 -5z m31 -128 c-13 -8 -16 -32 -16 -143 0 -83 -4 -135 -10 -135
-5 0 -10 -9 -10 -20 0 -11 -1 -20 -2 -20 -2 0 -73 -9 -158 -20 -85 -11 -163
-20 -172 -20 -16 0 -18 14 -18 159 0 96 -4 162 -10 166 -17 11 -12 63 8 69 16
4 56 10 302 40 l95 11 3 -39 c2 -28 -1 -42 -12 -48z m-851 60 c28 -12 37 -55
9 -44 -9 3 -22 6 -30 6 -8 0 -14 10 -14 25 0 29 0 29 35 13z m20 -78 c0 -20
-55 -27 -272 -36 -156 -6 -173 -6 -173 9 0 9 12 23 28 31 40 22 417 18 417 -4z
m136 10 c28 -15 24 -40 -6 -40 -20 0 -25 5 -25 25 0 28 3 29 31 15z m-141 -50
c-20 -13 -40 -13 -40 0 0 6 12 10 28 10 21 0 24 -2 12 -10z m-77 -7 c-13 -2
-33 -2 -45 0 -13 2 -3 4 22 4 25 0 35 -2 23 -4z m225 -15 c-3 -20 -14 -25 -88
-40 -47 -9 -120 -23 -163 -32 -75 -15 -151 -13 -162 4 -19 30 34 60 108 61 29
0 97 6 152 13 151 20 157 20 153 -6z m153 2 c27 -15 24 -37 -6 -37 -20 0 -25
5 -25 23 0 27 3 28 31 14z m-141 -39 c0 -9 -41 -23 -49 -16 -3 4 28 20 47 24
1 1 2 -3 2 -8z m-60 -20 c0 -14 -86 -34 -111 -25 -22 7 -19 9 21 20 55 15 90
17 90 5z m208 -13 c-2 -18 -13 -26 -52 -35 -26 -7 -56 -19 -65 -27 -29 -26
-89 -46 -138 -46 -86 0 -115 19 -77 51 38 31 206 76 292 78 39 1 43 -1 40 -21z
m12 -73 c0 -19 -4 -35 -9 -35 -24 0 -41 14 -41 34 0 27 8 36 32 36 14 0 18 -8
18 -35z m1630 -222 c0 -68 -3 -93 -12 -93 -7 0 -39 15 -72 34 -68 39 -86 73
-93 173 l-5 62 91 -42 91 -42 0 -92z m404 55 c-11 -132 0 -123 -161 -137 -76
-6 -159 -15 -185 -18 l-48 -6 0 102 0 101 33 0 c17 0 68 5 112 10 140 18 220
27 238 29 16 1 17 -6 11 -81z m-570 -89 c10 -102 10 -102 -19 -83 -22 15 -25
23 -25 80 0 56 2 64 19 64 15 0 19 -11 25 -61z m56 -24 c39 -20 38 -25 -5 -25
-28 0 -35 4 -35 20 0 24 3 24 40 5z m43 -56 c5 -18 1 -20 -36 -17 -30 2 -43 8
-45 21 -3 14 4 17 36 17 32 0 41 -4 45 -21z m132 1 c33 4 86 10 118 13 55 5
58 5 55 -16 -2 -17 -12 -23 -43 -29 -70 -12 -245 15 -245 39 0 11 4 11 28 -1
20 -10 43 -12 87 -6z m-261 -16 c22 -21 20 -50 -4 -74 -38 -38 -90 -20 -90 31
0 48 62 76 94 43z m539 0 c31 -7 30 -8 -34 -29 -48 -16 -76 -21 -100 -16 l-34
8 34 7 c21 5 35 16 39 28 5 20 3 20 95 2z m-228 -40 c55 -9 104 -20 108 -24 5
-4 -14 -88 -42 -186 -48 -173 -57 -244 -32 -252 6 -2 11 -8 11 -14 0 -6 -9 -4
-22 4 -34 23 -32 83 8 217 41 139 43 176 12 185 -52 14 -155 18 -162 7 -5 -8
-27 2 -67 31 -33 23 -63 46 -66 51 -8 13 114 3 252 -19z m285 3 c0 -14 -12
-32 -29 -45 -26 -19 -33 -37 -63 -162 -18 -77 -36 -140 -39 -140 -4 0 -9 9
-12 20 -7 25 -59 27 -78 3 -8 -9 -9 -14 -4 -11 6 4 10 -16 10 -53 0 -32 -3
-59 -7 -59 -12 0 -19 42 -15 90 5 51 75 310 89 325 7 8 115 50 141 54 4 0 7
-9 7 -22z m-488 -39 c61 -45 67 -52 51 -61 -10 -5 -28 -19 -40 -30 -21 -19
-24 -19 -47 -4 -13 9 -26 27 -28 39 -2 12 -13 28 -26 34 -20 10 -21 13 -7 24
8 7 15 21 15 31 0 11 3 19 6 19 4 0 38 -23 76 -52z m-161 -38 c15 -9 19 -22
19 -69 0 -32 -7 -78 -16 -102 -11 -28 -17 -78 -18 -139 -1 -84 2 -101 25 -149
l27 -53 -57 7 c-110 12 -146 67 -146 220 1 119 25 193 84 256 40 41 51 45 82
29z m85 -89 c-8 -82 -14 -95 -39 -85 -14 5 -17 21 -17 89 0 88 7 101 44 83 17
-9 18 -18 12 -87z m320 82 c34 -13 8 -18 -58 -12 -40 4 -79 8 -85 8 -7 1 -13
6 -13 12 0 11 123 5 156 -8z m-43 -23 l31 0 -37 -38 c-36 -37 -49 -61 -25 -46
7 4 8 3 4 -5 -4 -6 -11 -9 -16 -6 -23 14 -70 -139 -70 -226 0 -62 9 -101 20
-94 5 3 6 -3 3 -13 -2 -10 8 -35 22 -56 l26 -39 -72 7 c-41 3 -84 14 -97 22
-92 60 -88 324 6 436 44 52 81 70 131 64 24 -4 58 -6 74 -6z m57 -20 c0 -5 -5
-10 -12 -10 -7 0 -25 -12 -40 -27 -15 -15 -28 -22 -28 -15 0 6 17 23 37 37 43
28 43 29 43 15z m-291 -24 c9 -11 7 -21 -9 -48 l-20 -33 0 48 c0 48 9 58 29
33z m271 -55 c-6 -22 -14 -42 -18 -45 -11 -7 -62 5 -62 15 0 16 83 94 87 82 2
-6 -1 -30 -7 -52z m-317 -86 c-5 -16 -8 -70 -8 -120 0 -73 4 -99 23 -136 12
-25 22 -49 22 -53 0 -4 -10 -4 -22 0 -78 23 -122 150 -98 278 l12 64 39 -2
c39 -1 39 -2 32 -31z m295 21 c2 -2 -4 -16 -14 -31 -19 -30 -25 -123 -11 -163
8 -22 7 -23 -30 -20 l-38 3 -3 58 c-2 33 4 82 13 114 16 54 17 55 47 49 18 -3
33 -8 36 -10z m124 -71 c21 -47 -26 -135 -52 -95 -15 23 -12 73 6 98 20 29 32
28 46 -3z m-39 -122 c-7 -2 -19 -2 -25 0 -7 3 -2 5 12 5 14 0 19 -2 13 -5z
m-77 -153 c25 0 49 9 73 27 31 23 33 24 16 4 -24 -28 -67 -51 -94 -51 -20 0
-91 55 -91 70 0 5 13 -5 29 -21 22 -22 39 -29 67 -29z"/>
<path d="M8435 7855 c-955 -1100 -888 -1015 -864 -1107 l10 -38 103 0 103 0
887 1027 c957 1109 897 1031 863 1103 -12 24 -16 25 -117 27 l-105 2 -880
-1014z m1049 997 c32 -6 42 -13 53 -40 l13 -32 -95 0 -95 0 -15 36 c-8 20 -15
38 -15 40 0 7 112 3 154 -4z m-156 -88 c-21 -34 -1731 -2024 -1738 -2024 -4 0
-12 22 -17 48 l-9 48 875 1007 876 1008 13 -33 c12 -27 12 -36 0 -54z m199 -2
c7 -5 -287 -353 -843 -997 -470 -545 -867 -1003 -882 -1018 -27 -27 -32 -28
-115 -25 l-87 3 876 1023 877 1022 81 0 c45 0 86 -4 93 -8z"/>
<path d="M9302 8638 c-17 -17 -15 -48 4 -55 21 -8 57 28 48 50 -7 20 -35 22
-52 5z m43 -8 c7 -12 -12 -40 -27 -40 -16 0 -21 32 -7 41 18 12 26 11 34 -1z"/>
<path d="M8449 7641 c-14 -11 -20 -24 -16 -34 13 -33 67 -13 67 24 0 25 -26
30 -51 10z m41 -16 c0 -9 -7 -18 -16 -22 -18 -7 -39 11 -30 26 11 17 46 13 46
-4z"/>
<path d="M7761 6844 c-38 -27 -21 -61 25 -50 17 5 24 13 24 30 0 30 -22 39
-49 20z m39 -18 c0 -8 -5 -18 -10 -21 -17 -11 -40 3 -34 20 8 19 44 20 44 1z"/>
<path d="M5882 4734 c-17 -12 -23 -24 -21 -48 2 -17 -3 -43 -10 -58 -28 -55
13 -107 68 -86 53 20 89 84 53 96 -8 2 -12 -2 -10 -9 3 -16 -6 -21 -27 -13
-23 9 -47 -4 -43 -23 2 -9 9 -18 17 -21 10 -3 12 0 8 12 -6 16 4 22 16 9 10
-10 -13 -33 -34 -33 -10 0 -23 9 -29 20 -9 17 -6 25 14 45 14 14 30 25 36 25
5 0 10 5 10 10 0 6 -6 10 -14 10 -20 0 -36 23 -27 38 5 9 17 11 34 6 32 -7 37
10 8 26 -25 13 -22 13 -49 -6z"/>
<path d="M6243 4700 c-32 -13 -56 -55 -49 -85 8 -33 49 -59 81 -51 63 16 84
78 40 121 -26 27 -37 29 -72 15z m55 -32 c30 -30 -7 -95 -47 -80 -49 18 -38
92 14 92 12 0 26 -5 33 -12z"/>
<path d="M6377 4703 c-15 -4 -17 -14 -15 -66 4 -81 26 -89 30 -10 2 47 6 58
22 61 25 5 36 -14 36 -65 0 -24 5 -43 10 -43 14 0 12 104 -2 118 -12 12 -46
14 -81 5z"/>
<path d="M5109 4675 c-37 -20 -59 -58 -59 -104 0 -73 79 -113 151 -76 16 9 27
20 24 25 -4 6 -18 4 -35 -5 -38 -20 -63 -19 -89 3 -32 26 -37 72 -10 105 28
37 62 49 95 37 35 -14 53 -1 23 16 -31 17 -67 17 -100 -1z"/>
<path d="M5250 4590 c0 -82 3 -100 15 -100 11 0 15 13 15 54 0 42 4 55 17 60
25 10 43 -20 43 -72 0 -26 4 -41 10 -37 6 3 10 31 10 60 0 45 -4 56 -21 66
-12 6 -30 9 -40 6 -16 -4 -19 0 -19 29 0 24 -5 34 -15 34 -12 0 -15 -18 -15
-100z"/>
<path d="M6100 4670 c-9 -17 -6 -25 21 -50 29 -26 30 -30 15 -36 -11 -4 -21
-1 -26 7 -11 17 -24 5 -16 -16 9 -25 35 -29 56 -10 27 25 25 45 -7 71 -16 12
-24 26 -20 30 4 5 12 2 16 -5 5 -7 14 -10 20 -6 9 5 9 10 0 21 -17 20 -47 17
-59 -6z"/>
<path d="M5390 4655 c0 -8 7 -15 15 -15 8 0 15 7 15 15 0 8 -7 15 -15 15 -8 0
-15 -7 -15 -15z"/>
<path d="M5625 4635 c-48 -47 -23 -115 43 -115 65 0 98 74 55 123 -23 25 -69
21 -98 -8z m79 -11 c21 -20 20 -43 -1 -66 -20 -22 -46 -23 -67 -2 -21 21 -20
40 4 64 24 24 43 25 64 4z"/>
<path d="M5466 4624 c-14 -15 -26 -37 -26 -49 0 -36 32 -68 69 -68 32 0 71 26
58 40 -4 3 -13 1 -19 -5 -15 -15 -51 -15 -66 0 -36 36 14 102 58 78 26 -14 37
-6 20 15 -20 24 -64 18 -94 -11z"/>
<path d="M5390 4565 c0 -51 3 -65 15 -65 12 0 15 14 15 65 0 51 -3 65 -15 65
-12 0 -15 -14 -15 -65z"/>
<path d="M5841 4433 c-13 -28 -2 -51 18 -39 14 9 15 36 1 36 -5 0 -7 7 -4 15
10 26 -2 16 -15 -12z m19 -23 c0 -5 -2 -10 -4 -10 -3 0 -8 5 -11 10 -3 6 -1
10 4 10 6 0 11 -4 11 -10z"/>
<path d="M5680 4439 c0 -5 5 -7 12 -3 11 7 10 4 -9 -43 -3 -8 2 -13 13 -12 12
0 14 3 6 6 -10 4 -10 8 -1 19 6 7 9 21 5 29 -6 17 -26 20 -26 4z"/>
<path d="M5725 4430 c-9 -29 12 -55 32 -38 8 6 13 21 11 32 -4 28 -35 33 -43
6z m35 -9 c0 -23 -16 -36 -25 -21 -9 14 1 40 15 40 5 0 10 -9 10 -19z"/>
<path d="M5795 4420 c0 -16 3 -30 8 -30 4 0 7 14 7 30 0 17 -3 30 -7 30 -5 0
-8 -13 -8 -30z"/>
<path d="M2117 5039 c-23 -13 -22 -44 3 -69 21 -21 50 -27 50 -10 0 5 -6 7
-13 4 -19 -7 -51 32 -43 52 4 11 14 15 31 12 29 -6 32 -2 7 11 -11 6 -24 6
-35 0z"/>
<path d="M2192 4990 c0 -36 1 -40 8 -20 7 25 9 24 23 -20 3 -8 6 -3 6 13 1 15
-4 27 -9 27 -6 0 -15 10 -20 23 -7 18 -9 14 -8 -23z"/>
<path d="M2242 4955 c0 -16 2 -22 5 -12 2 9 2 23 0 30 -3 6 -5 -1 -5 -18z"/>
<path d="M2277 4973 c-4 -3 -7 -14 -7 -24 0 -22 36 -44 45 -29 3 5 -3 10 -14
10 -12 0 -21 6 -21 13 0 21 12 28 27 16 8 -7 13 -8 13 -1 0 5 -7 13 -16 16
-19 7 -19 7 -27 -1z"/>
<path d="M2334 4945 c-4 -8 -1 -22 6 -30 18 -21 50 -19 50 3 0 36 -45 57 -56
27z m44 -18 c2 -10 -3 -17 -11 -17 -16 0 -30 24 -19 34 10 10 27 1 30 -17z"/>
<path d="M2443 4946 c3 -7 1 -18 -4 -23 -24 -24 22 -63 48 -41 13 10 12 13 -4
19 -10 3 -21 2 -24 -3 -4 -6 -9 -6 -13 1 -4 6 0 14 9 17 13 5 13 9 3 22 -11
13 -10 15 5 9 11 -4 16 -3 12 3 -10 15 -38 12 -32 -4z"/>
<path d="M2540 4901 c0 -5 5 -13 10 -16 6 -3 10 -11 10 -16 0 -6 -5 -7 -12 -3
-7 4 -8 3 -4 -4 13 -22 27 -12 23 15 -3 25 -27 47 -27 24z"/>
<path d="M2591 4891 c-16 -10 -6 -47 15 -55 21 -8 34 1 34 24 0 23 -31 42 -49
31z m34 -21 c11 -17 -5 -32 -21 -19 -8 6 -14 15 -14 20 0 12 27 11 35 -1z"/>
<path d="M2650 4855 c0 -14 5 -25 10 -25 6 0 10 9 10 21 0 30 20 13 21 -19 2
-24 2 -25 6 -4 5 26 -12 52 -33 52 -8 0 -14 -10 -14 -25z"/>
<path d="M11446 2973 c-11 -11 -6 -23 9 -23 8 0 15 4 15 9 0 13 -16 22 -24 14z"/>
<path d="M11655 2961 c-8 -15 3 -31 21 -31 9 0 14 7 12 17 -4 20 -24 28 -33
14z"/>
<path d="M1730 2236 c0 -8 5 -18 10 -21 6 -3 10 3 10 14 0 12 -4 21 -10 21 -5
0 -10 -6 -10 -14z"/>
<path d="M1963 2224 c-8 -21 13 -42 28 -27 13 13 5 43 -11 43 -6 0 -13 -7 -17
-16z m27 -9 c0 -8 -4 -15 -10 -15 -5 0 -10 7 -10 15 0 8 5 15 10 15 6 0 10 -7
10 -15z"/>
<path d="M4842 879 c1 -12 9 -24 16 -27 9 -3 13 3 10 19 -1 12 -9 24 -16 27
-9 3 -13 -3 -10 -19z"/>
<path d="M5134 866 c-9 -24 4 -48 23 -44 12 2 18 12 18 28 0 29 -32 41 -41 16z
m36 -10 c0 -8 -4 -17 -9 -21 -12 -7 -24 12 -16 25 9 15 25 12 25 -4z"/>
</g>
</svg>
